  0
SECTION
  2
HEADER
  9
$ACADVER
  1
AC1015
  9
$ACADMAINTVER
 70
     6
  9
$DWGCODEPAGE
  3
ANSI_1252
  9
$INSBASE
 10
0.0
 20
0.0
 30
0.0
  9
$EXTMIN
 10
-6.4519867575
 20
-386.3070346476
 30
0.0
  9
$EXTMAX
 10
294.5480132425
 20
-146.3070346476
 30
0.0
  9
$LIMMIN
 10
0.0
 20
0.0
  9
$LIMMAX
 10
420.0
 20
297.0
  9
$ORTHOMODE
 70
     0
  9
$REGENMODE
 70
     1
  9
$FILLMODE
 70
     1
  9
$QTEXTMODE
 70
     0
  9
$MIRRTEXT
 70
     1
  9
$LTSCALE
 40
1.0
  9
$ATTMODE
 70
     1
  9
$TEXTSIZE
 40
3.5
  9
$TRACEWID
 40
1.0
  9
$TEXTSTYLE
  7
Standard
  9
$CLAYER
  8
0
  9
$CELTYPE
  6
ByLayer
  9
$CECOLOR
 62
   256
  9
$CELTSCALE
 40
1.0
  9
$DISPSILH
 70
     0
  9
$DIMSCALE
 40
1.0
  9
$DIMASZ
 40
3.302
  9
$DIMEXO
 40
0.0
  9
$DIMDLI
 40
3.75
  9
$DIMRND
 40
0.0
  9
$DIMDLE
 40
0.0
  9
$DIMEXE
 40
1.0
  9
$DIMTP
 40
0.0
  9
$DIMTM
 40
0.0
  9
$DIMTXT
 40
3.5
  9
$DIMCEN
 40
2.5
  9
$DIMTSZ
 40
0.0
  9
$DIMTOL
 70
     0
  9
$DIMLIM
 70
     0
  9
$DIMTIH
 70
     1
  9
$DIMTOH
 70
     1
  9
$DIMSE1
 70
     0
  9
$DIMSE2
 70
     0
  9
$DIMTAD
 70
     1
  9
$DIMZIN
 70
     1
  9
$DIMBLK
  1

  9
$DIMASO
 70
     1
  9
$DIMSHO
 70
     1
  9
$DIMPOST
  1

  9
$DIMAPOST
  1

  9
$DIMALT
 70
     0
  9
$DIMALTD
 70
     3
  9
$DIMALTF
 40
0.0393700787
  9
$DIMLFAC
 40
1.0
  9
$DIMTOFL
 70
     1
  9
$DIMTVP
 40
0.0
  9
$DIMTIX
 70
     0
  9
$DIMSOXD
 70
     0
  9
$DIMSAH
 70
     0
  9
$DIMBLK1
  1

  9
$DIMBLK2
  1

  9
$DIMSTYLE
  2
ISO-25
  9
$DIMCLRD
 70
     0
  9
$DIMCLRE
 70
     0
  9
$DIMCLRT
 70
     0
  9
$DIMTFAC
 40
1.0
  9
$DIMGAP
 40
1.524
  9
$DIMJUST
 70
     0
  9
$DIMSD1
 70
     0
  9
$DIMSD2
 70
     0
  9
$DIMTOLJ
 70
     0
  9
$DIMTZIN
 70
     1
  9
$DIMALTZ
 70
     0
  9
$DIMALTTZ
 70
     0
  9
$DIMUPT
 70
     0
  9
$DIMDEC
 70
     2
  9
$DIMTDEC
 70
     2
  9
$DIMALTU
 70
     2
  9
$DIMALTTD
 70
     3
  9
$DIMTXSTY
  7
Standard
  9
$DIMAUNIT
 70
     0
  9
$DIMADEC
 70
     2
  9
$DIMALTRND
 40
0.0
  9
$DIMAZIN
 70
     0
  9
$DIMDSEP
 70
    44
  9
$DIMATFIT
 70
     3
  9
$DIMFRAC
 70
     0
  9
$DIMLDRBLK
  1

  9
$DIMLUNIT
 70
     2
  9
$DIMLWD
 70
    -2
  9
$DIMLWE
 70
    -2
  9
$DIMTMOVE
 70
     0
  9
$LUNITS
 70
     2
  9
$LUPREC
 70
     2
  9
$SKETCHINC
 40
1.0
  9
$FILLETRAD
 40
0.0
  9
$AUNITS
 70
     0
  9
$AUPREC
 70
     2
  9
$MENU
  1
.
  9
$ELEVATION
 40
0.0
  9
$PELEVATION
 40
0.0
  9
$THICKNESS
 40
0.0
  9
$LIMCHECK
 70
     0
  9
$CHAMFERA
 40
0.0
  9
$CHAMFERB
 40
0.0
  9
$CHAMFERC
 40
0.0
  9
$CHAMFERD
 40
0.0
  9
$SKPOLY
 70
     0
  9
$TDCREATE
 40
2460691.733715741
  9
$TDUCREATE
 40
2460691.504549074
  9
$TDUPDATE
 40
2460691.733754097
  9
$TDUUPDATE
 40
2460691.504587431
  9
$TDINDWG
 40
0.0000000116
  9
$TDUSRTIMER
 40
0.0000000116
  9
$USRTIMER
 70
     1
  9
$ANGBASE
 50
0.0
  9
$ANGDIR
 70
     0
  9
$PDMODE
 70
     0
  9
$PDSIZE
 40
-1.0
  9
$PLINEWID
 40
0.0
  9
$SPLFRAME
 70
     0
  9
$SPLINETYPE
 70
     6
  9
$SPLINESEGS
 70
     8
  9
$HANDSEED
  5
ED
  9
$SURFTAB1
 70
     6
  9
$SURFTAB2
 70
     6
  9
$SURFTYPE
 70
     6
  9
$SURFU
 70
     6
  9
$SURFV
 70
     6
  9
$UCSBASE
  2

  9
$UCSNAME
  2

  9
$UCSORG
 10
0.0
 20
0.0
 30
0.0
  9
$UCSXDIR
 10
1.0
 20
0.0
 30
0.0
  9
$UCSYDIR
 10
0.0
 20
1.0
 30
0.0
  9
$UCSORTHOREF
  2

  9
$UCSORTHOVIEW
 70
     0
  9
$UCSORGTOP
 10
0.0
 20
0.0
 30
0.0
  9
$UCSORGBOTTOM
 10
0.0
 20
0.0
 30
0.0
  9
$UCSORGLEFT
 10
0.0
 20
0.0
 30
0.0
  9
$UCSORGRIGHT
 10
0.0
 20
0.0
 30
0.0
  9
$UCSORGFRONT
 10
0.0
 20
0.0
 30
0.0
  9
$UCSORGBACK
 10
0.0
 20
0.0
 30
0.0
  9
$PUCSBASE
  2

  9
$PUCSNAME
  2

  9
$PUCSORG
 10
0.0
 20
0.0
 30
0.0
  9
$PUCSXDIR
 10
1.0
 20
0.0
 30
0.0
  9
$PUCSYDIR
 10
0.0
 20
1.0
 30
0.0
  9
$PUCSORTHOREF
  2

  9
$PUCSORTHOVIEW
 70
     0
  9
$PUCSORGTOP
 10
0.0
 20
0.0
 30
0.0
  9
$PUCSORGBOTTOM
 10
0.0
 20
0.0
 30
0.0
  9
$PUCSORGLEFT
 10
0.0
 20
0.0
 30
0.0
  9
$PUCSORGRIGHT
 10
0.0
 20
0.0
 30
0.0
  9
$PUCSORGFRONT
 10
0.0
 20
0.0
 30
0.0
  9
$PUCSORGBACK
 10
0.0
 20
0.0
 30
0.0
  9
$USERI1
 70
     0
  9
$USERI2
 70
     0
  9
$USERI3
 70
     0
  9
$USERI4
 70
     0
  9
$USERI5
 70
     0
  9
$USERR1
 40
0.0
  9
$USERR2
 40
0.0
  9
$USERR3
 40
0.0
  9
$USERR4
 40
0.0
  9
$USERR5
 40
0.0
  9
$WORLDVIEW
 70
     1
  9
$SHADEDGE
 70
     3
  9
$SHADEDIF
 70
    70
  9
$TILEMODE
 70
     1
  9
$MAXACTVP
 70
    64
  9
$PINSBASE
 10
0.0
 20
0.0
 30
0.0
  9
$PLIMCHECK
 70
     0
  9
$PEXTMIN
 10
1.0000000000E+20
 20
1.0000000000E+20
 30
1.0000000000E+20
  9
$PEXTMAX
 10
-1.0000000000E+20
 20
-1.0000000000E+20
 30
-1.0000000000E+20
  9
$PLIMMIN
 10
0.0
 20
0.0
  9
$PLIMMAX
 10
420.0
 20
297.0
  9
$UNITMODE
 70
     0
  9
$VISRETAIN
 70
     1
  9
$PLINEGEN
 70
     0
  9
$PSLTSCALE
 70
     1
  9
$TREEDEPTH
 70
  3020
  9
$CMLSTYLE
  2
Standard
  9
$CMLJUST
 70
     0
  9
$CMLSCALE
 40
20.0
  9
$PROXYGRAPHICS
 70
     1
  9
$MEASUREMENT
 70
     1
  9
$CELWEIGHT
370
    -1
  9
$ENDCAPS
280
     0
  9
$JOINSTYLE
280
     0
  9
$LWDISPLAY
290
     1
  9
$INSUNITS
 70
     4
  9
$HYPERLINKBASE
  1

  9
$STYLESHEET
  1

  9
$XEDIT
290
     1
  9
$CEPSNTYPE
380
     0
  9
$PSTYLEMODE
290
     1
  9
$FINGERPRINTGUID
  2
{e47e5fd9-04f4-485d-b3c7-bb4e551bc5f1}
  9
$VERSIONGUID
  2
{FAEB1C32-E019-11D5-929B-00C0DF256EC4}
  9
$EXTNAMES
290
     1
  9
$PSVPSCALE
 40
0.0
  9
$OLESTARTUP
290
     0
  0
ENDSEC
  0
SECTION
  2
CLASSES
  0
CLASS
  1
ACDBDICTIONARYWDFLT
  2
AcDbDictionaryWithDefault
  3
ObjectDBX Classes
 90
        0
280
     0
281
     0
  0
CLASS
  1
VISUALSTYLE
  2
AcDbVisualStyle
  3
ObjectDBX Classes
 90
     4095
280
     0
281
     0
  0
CLASS
  1
MATERIAL
  2
AcDbMaterial
  3
ObjectDBX Classes
 90
     1153
280
     0
281
     0
  0
CLASS
  1
SCALE
  2
AcDbScale
  3
ObjectDBX Classes
 90
     1153
280
     0
281
     0
  0
CLASS
  1
TABLESTYLE
  2
AcDbTableStyle
  3
ObjectDBX Classes
 90
     4095
280
     0
281
     0
  0
CLASS
  1
MLEADERSTYLE
  2
AcDbMLeaderStyle
  3
ACDB_MLEADERSTYLE_CLASS
 90
     4095
280
     0
281
     0
  0
CLASS
  1
SUN
  2
AcDbSun
  3
SCENEOE
 90
     1153
280
     0
281
     0
  0
CLASS
  1
ACDBPLACEHOLDER
  2
AcDbPlaceHolder
  3
ObjectDBX Classes
 90
        0
280
     0
281
     0
  0
CLASS
  1
LAYOUT
  2
AcDbLayout
  3
ObjectDBX Classes
 90
        0
280
     0
281
     0
  0
ENDSEC
  0
SECTION
  2
TABLES
  0
TABLE
  2
VPORT
  5
8
330
0
100
AcDbSymbolTable
 70
     1
  0
VPORT
  5
29
330
8
100
AcDbSymbolTableRecord
100
AcDbViewportTableRecord
  2
*Active
 70
     0
 10
0.0
 20
0.0
 11
1.0
 21
1.0
 12
144.0480132425
 22
-266.3070346476
 13
0.0
 23
0.0
 14
10.0
 24
10.0
 15
10.0
 25
10.0
 16
0.0
 26
0.0
 36
1.0
 17
0.0
 27
0.0
 37
0.0
 40
244.8
 41
1.2541666667
 42
50.0
 43
0.0
 44
0.0
 50
0.0
 51
0.0
 71
     0
 72
   100
 73
     1
 74
     3
 75
     0
 76
     0
 77
     0
 78
     0
281
     0
 65
     1
110
0.0
120
0.0
130
0.0
111
1.0
121
0.0
131
0.0
112
0.0
122
1.0
132
0.0
 79
     0
146
0.0
  0
ENDTAB
  0
TABLE
  2
LTYPE
  5
5
330
0
100
AcDbSymbolTable
 70
     6
  0
LTYPE
  5
14
330
5
100
AcDbSymbolTableRecord
100
AcDbLinetypeTableRecord
  2
ByBlock
 70
     0
  3

 72
    65
 73
     0
 40
0.0
  0
LTYPE
  5
15
330
5
100
AcDbSymbolTableRecord
100
AcDbLinetypeTableRecord
  2
ByLayer
 70
     0
  3

 72
    65
 73
     0
 40
0.0
  0
LTYPE
  5
16
330
5
100
AcDbSymbolTableRecord
100
AcDbLinetypeTableRecord
  2
Continuous
 70
     0
  3
Solid line
 72
    65
 73
     0
 40
0.0
  0
LTYPE
  5
5E
330
5
100
AcDbSymbolTableRecord
100
AcDbLinetypeTableRecord
  2
HIDDEN
 70
     0
  3
Hidden __ __ __ __ __ __ __ __ __ __ __ __ __ __
 72
    65
 73
     2
 40
1.905
 49
1.27
 74
     0
 49
-0.635
 74
     0
  0
LTYPE
  5
5F
330
5
100
AcDbSymbolTableRecord
100
AcDbLinetypeTableRecord
  2
PHANTOM
 70
     0
  3
Phantom ______  __  __  ______  __  __  ______
 72
    65
 73
     6
 40
12.7
 49
6.35
 74
     0
 49
-1.27
 74
     0
 49
1.27
 74
     0
 49
-1.27
 74
     0
 49
1.27
 74
     0
 49
-1.27
 74
     0
  0
LTYPE
  5
60
330
5
100
AcDbSymbolTableRecord
100
AcDbLinetypeTableRecord
  2
CENTER
 70
     0
  3
Center ____ _ ____ _ ____ _ ____ _ ____ _ ____
 72
    65
 73
     4
 40
10.16
 49
6.35
 74
     0
 49
-1.27
 74
     0
 49
1.27
 74
     0
 49
-1.27
 74
     0
  0
LTYPE
  5
61
330
5
100
AcDbSymbolTableRecord
100
AcDbLinetypeTableRecord
  2
CENTERX2
 70
     0
  3
Center (2x) ________  __  ________  __  _____
 72
    65
 73
     4
 40
20.32
 49
12.7
 74
     0
 49
-2.54
 74
     0
 49
2.54
 74
     0
 49
-2.54
 74
     0
  0
LTYPE
  5
62
330
5
100
AcDbSymbolTableRecord
100
AcDbLinetypeTableRecord
  2
DOT2
 70
     0
  3
Dot (.5x) ........................................
 72
    65
 73
     2
 40
0.635
 49
0.0
 74
     0
 49
-0.635
 74
     0
  0
ENDTAB
  0
TABLE
  2
LAYER
  5
2
330
0
100
AcDbSymbolTable
 70
     1
  0
LAYER
  5
10
330
2
100
AcDbSymbolTableRecord
100
AcDbLayerTableRecord
  2
0
 70
     0
 62
     7
  6
Continuous
370
    -3
390
F
  0
ENDTAB
  0
TABLE
  2
STYLE
  5
3
330
0
100
AcDbSymbolTable
 70
     1
  0
STYLE
  5
11
330
3
100
AcDbSymbolTableRecord
100
AcDbTextStyleTableRecord
  2
Standard
 70
     0
 40
0.0
 41
1.0
 50
0.0
 71
     0
 42
3.5
  3
txt
  4

  0
ENDTAB
  0
TABLE
  2
VIEW
  5
6
330
0
100
AcDbSymbolTable
 70
     0
  0
ENDTAB
  0
TABLE
  2
UCS
  5
7
330
0
100
AcDbSymbolTable
 70
     0
  0
ENDTAB
  0
TABLE
  2
APPID
  5
9
330
0
100
AcDbSymbolTable
 70
     1
  0
APPID
  5
12
330
9
100
AcDbSymbolTableRecord
100
AcDbRegAppTableRecord
  2
ACAD
 70
     0
  0
ENDTAB
  0
TABLE
  2
DIMSTYLE
  5
A
330
0
100
AcDbSymbolTable
 70
     1
100
AcDbDimStyleTable
  0
DIMSTYLE
105
27
330
A
100
AcDbSymbolTableRecord
100
AcDbDimStyleTableRecord
  2
ISO-25
 70
     0
 41
2.5
 42
0.625
 43
3.75
 44
1.25
 73
     0
 74
     0
 77
     1
 78
     8
140
2.5
141
2.5
143
0.0393700787
147
0.625
171
     3
172
     1
178
     0
271
     2
272
     2
274
     3
278
    44
283
     0
284
     8
340
11
  0
ENDTAB
  0
TABLE
  2
BLOCK_RECORD
  5
1
330
0
100
AcDbSymbolTable
 70
     1
  0
BLOCK_RECORD
  5
1F
330
1
100
AcDbSymbolTableRecord
100
AcDbBlockTableRecord
  2
*Model_Space
340
22
  0
BLOCK_RECORD
  5
1B
330
1
100
AcDbSymbolTableRecord
100
AcDbBlockTableRecord
  2
*Paper_Space
340
1E
  0
BLOCK_RECORD
  5
23
330
1
100
AcDbSymbolTableRecord
100
AcDbBlockTableRecord
  2
*Paper_Space0
340
26
  0
ENDTAB
  0
ENDSEC
  0
SECTION
  2
BLOCKS
  0
BLOCK
  5
20
330
1F
100
AcDbEntity
  8
0
100
AcDbBlockBegin
  2
*Model_Space
 70
     0
 10
0.0
 20
0.0
 30
0.0
  3
*Model_Space
  1

  0
ENDBLK
  5
21
330
1F
100
AcDbEntity
  8
0
100
AcDbBlockEnd
  0
BLOCK
  5
1C
330
1B
100
AcDbEntity
 67
     1
  8
0
100
AcDbBlockBegin
  2
*Paper_Space
 70
     0
 10
0.0
 20
0.0
 30
0.0
  3
*Paper_Space
  1

  0
ENDBLK
  5
1D
330
1B
100
AcDbEntity
 67
     1
  8
0
100
AcDbBlockEnd
  0
BLOCK
  5
24
330
23
100
AcDbEntity
  8
0
100
AcDbBlockBegin
  2
*Paper_Space0
 70
     0
 10
0.0
 20
0.0
 30
0.0
  3
*Paper_Space0
  1

  0
ENDBLK
  5
25
330
23
100
AcDbEntity
  8
0
100
AcDbBlockEnd
  0
ENDSEC
  0
SECTION
  2
ENTITIES
  0
CIRCLE
  5
7E
330
1F
100
AcDbEntity
  8
0
  6
Continuous
 62
     7
370
    25
100
AcDbCircle
 10
264.8480132425
 20
-361.3070346476
 30
0.0
 40
2.500000000000114
  0
CIRCLE
  5
7F
330
1F
100
AcDbEntity
  8
0
  6
Continuous
 62
     7
370
    25
100
AcDbCircle
 10
264.8480132425
 20
-290.5070346476
 30
0.0
 40
2.5
  0
CIRCLE
  5
80
330
1F
100
AcDbEntity
  8
0
  6
Continuous
 62
     7
370
    25
100
AcDbCircle
 10
194.0480132425
 20
-290.5070346476
 30
0.0
 40
2.499999999999972
  0
CIRCLE
  5
81
330
1F
100
AcDbEntity
  8
0
  6
Continuous
 62
     7
370
    25
100
AcDbCircle
 10
194.0480132425
 20
-361.3070346476
 30
0.0
 40
2.499999999999943
  0
CIRCLE
  5
82
330
1F
100
AcDbEntity
  8
0
  6
Continuous
 62
     7
370
    25
100
AcDbCircle
 10
23.2480132425
 20
-361.3070346476
 30
0.0
 40
2.500000000000004
  0
CIRCLE
  5
83
330
1F
100
AcDbEntity
  8
0
  6
Continuous
 62
     7
370
    25
100
AcDbCircle
 10
23.2480132425
 20
-290.5070346476
 30
0.0
 40
2.500000000000057
  0
CIRCLE
  5
84
330
1F
100
AcDbEntity
  8
0
  6
Continuous
 62
     7
370
    25
100
AcDbCircle
 10
94.0480132425
 20
-290.5070346476
 30
0.0
 40
2.500000000000057
  0
CIRCLE
  5
85
330
1F
100
AcDbEntity
  8
0
  6
Continuous
 62
     7
370
    25
100
AcDbCircle
 10
94.0480132425
 20
-361.3070346476
 30
0.0
 40
2.5
  0
SPLINE
  5
A4
330
1F
100
AcDbEntity
  8
0
  6
Continuous
 62
     7
370
    25
100
AcDbSpline
210
0.0
220
0.0
230
1.0
 70
     8
 71
     3
 72
    27
 73
    23
 74
     0
 42
0.00000001
 43
0.00000001
 40
0.0
 40
0.0
 40
0.0
 40
0.0
 40
0.0855610696136934
 40
0.1558292551837865
 40
0.2124937451069923
 40
0.2575150585024895
 40
0.2933173403844297
 40
0.3230003597837196
 40
0.3535613711135687
 40
0.3854929753130915
 40
0.4212300811707472
 40
0.4828923976135427
 40
0.5523103966354546
 40
0.6108728889217857
 40
0.6697634932146332
 40
0.7269092132772906
 40
0.7806541280268966
 40
0.8302612107983367
 40
0.8691654978621882
 40
0.9079865278116616
 40
0.9502192798907471
 40
1.0
 40
1.0
 40
1.0
 40
1.0
 10
132.0881410391038
 20
-182.1879420183693
 30
0.0
 10
130.7604679969646
 20
-181.4109555290953
 30
0.0
 10
128.3424255131778
 20
-179.9958583773406
 30
0.0
 10
124.8952282760153
 20
-178.3399684335076
 30
0.0
 10
121.9905254933611
 20
-177.2659266771365
 30
0.0
 10
119.565007800905
 20
-176.7375577633487
 30
0.0
 10
117.5592653433872
 20
-176.7164550251309
 30
0.0
 10
115.8704698712067
 20
-177.2086662994318
 30
0.0
 10
114.5389597992707
 20
-178.2677370255669
 30
0.0
 10
113.6259338829321
 20
-179.8101178927811
 30
0.0
 10
112.943242956561
 20
-182.0448611316899
 30
0.0
 10
112.6018608579993
 20
-185.0370839952014
 30
0.0
 10
112.5256782615
 20
-188.4442978642728
 30
0.0
 10
112.5237353182925
 20
-191.8032295454876
 30
0.0
 10
112.4707076578518
 20
-194.9413169709511
 30
0.0
 10
112.2547585378211
 20
-197.9880573659979
 30
0.0
 10
111.7619745343108
 20
-200.8378144924888
 30
0.0
 10
110.9069073567251
 20
-203.2681400000828
 30
0.0
 10
109.6411761325616
 20
-205.2057449795504
 30
0.0
 10
107.9709475589859
 20
-206.6175019898669
 30
0.0
 10
105.7622334279574
 20
-207.5450679622495
 30
0.0
 10
104.1047502821883
 20
-207.6735830369486
 30
0.0
 10
103.2080261112273
 20
-207.7431116919516
 30
0.0
  0
SPLINE
  5
A5
330
1F
100
AcDbEntity
  8
0
  6
Continuous
 62
     7
370
    25
100
AcDbSpline
210
0.0
220
0.0
230
1.0
 70
     8
 71
     3
 72
    26
 73
    22
 74
     0
 42
0.00000001
 43
0.00000001
 40
0.0
 40
0.0
 40
0.0
 40
0.0
 40
0.066365108086136
 40
0.1220928758414356
 40
0.169153245284476
 40
0.2097997833055344
 40
0.246486383244572
 40
0.2815764579375322
 40
0.3354752676935668
 40
0.3933312916304653
 40
0.4555422094177312
 40
0.5207854381137215
 40
0.5869533006723939
 40
0.6505879610821329
 40
0.7108825163889739
 40
0.7666064215391555
 40
0.818196295009469
 40
0.8565599537178227
 40
0.8972957107324396
 40
0.9439445752698751
 40
1.0
 40
1.0
 40
1.0
 40
1.0
 10
103.2080261112273
 20
-207.7431116919516
 30
0.0
 10
104.1878071953084
 20
-208.0592807244669
 30
0.0
 10
105.990325019814
 20
-208.6409415933333
 30
0.0
 10
108.5851741598253
 20
-209.0805166195246
 30
0.0
 10
110.8187649102353
 20
-209.1135658491046
 30
0.0
 10
112.7284305743803
 20
-208.7518664990336
 30
0.0
 10
114.3327995446355
 20
-208.0295000427215
 30
0.0
 10
115.8773506972022
 20
-206.8143523309201
 30
0.0
 10
117.2360342436835
 20
-204.9488016643789
 30
0.0
 10
118.299534472347
 20
-202.4581396858374
 30
0.0
 10
119.0680841495315
 20
-199.6863558630349
 30
0.0
 10
119.6642456461038
 20
-196.7447719434305
 30
0.0
 10
120.2005842947715
 20
-193.7701821243124
 30
0.0
 10
120.788678250525
 20
-190.8826812418968
 30
0.0
 10
121.5365014455099
 20
-188.1963322376631
 30
0.0
 10
122.564350047008
 20
-185.797765744736
 30
0.0
 10
123.9169157438069
 20
-183.9507052647135
 30
0.0
 10
125.5588865200976
 20
-182.7205073702946
 30
0.0
 10
127.4096410385045
 20
-182.0372906582672
 30
0.0
 10
129.6480072970354
 20
-181.8206441643448
 30
0.0
 10
131.2265702421701
 20
-182.0582552313919
 30
0.0
 10
132.0881410391038
 20
-182.1879420183693
 30
0.0
  0
SPLINE
  5
A6
330
1F
100
AcDbEntity
  8
0
  6
Continuous
 62
     7
370
    25
100
AcDbSpline
210
0.0
220
0.0
230
1.0
 70
     8
 71
     3
 72
    26
 73
    22
 74
     0
 42
0.00000001
 43
0.00000001
 40
0.0
 40
0.0
 40
0.0
 40
0.0
 40
0.0663651080861361
 40
0.1220928758414353
 40
0.1691532452844756
 40
0.2097997833055346
 40
0.246486383244572
 40
0.2815764579375319
 40
0.3354752676935665
 40
0.3933312916304654
 40
0.4555422094177315
 40
0.520785438113722
 40
0.5869533006723942
 40
0.6505879610821333
 40
0.710882516388974
 40
0.7666064215391557
 40
0.8181962950094697
 40
0.8565599537178229
 40
0.8972957107324395
 40
0.9439445752698754
 40
1.0
 40
1.0
 40
1.0
 40
1.0
 10
132.1349217548258
 20
-165.0565014240051
 30
0.0
 10
132.1369961419496
 20
-166.0860302127055
 30
0.0
 10
132.1408124227764
 20
-167.9800696288824
 30
0.0
 10
132.5246042118192
 20
-170.5837539656889
 30
0.0
 10
133.183390027024
 20
-172.718237777194
 30
0.0
 10
134.1175056946439
 20
-174.422666504998
 30
0.0
 10
135.3002942971291
 20
-175.7252885575341
 30
0.0
 10
136.9332610015238
 20
-176.8187427023113
 30
0.0
 10
139.1273614252568
 20
-177.5344406829466
 30
0.0
 10
141.8247613740159
 20
-177.7762326268856
 30
0.0
 10
144.6983793517252
 20
-177.6506384994888
 30
0.0
 10
147.6802159405268
 20
-177.3086223540303
 30
0.0
 10
150.6749567284827
 20
-176.8995119153844
 30
0.0
 10
153.6028642851291
 20
-176.5665356602584
 30
0.0
 10
156.3888240866867
 20
-176.447630287755
 30
0.0
 10
158.9876190650596
 20
-176.6839745895219
 30
0.0
 10
161.1622437568956
 20
-177.3995679312144
 30
0.0
 10
162.8396283548563
 20
-178.5810228817523
 30
0.0
 10
164.0613206594756
 20
-180.1300694516883
 30
0.0
 10
164.9590569327745
 20
-182.1919348193256
 30
0.0
 10
165.2208781558528
 20
-183.7666632524471
 30
0.0
 10
165.3637787101303
 20
-184.6261411942424
 30
0.0
  0
SPLINE
  5
A7
330
1F
100
AcDbEntity
  8
0
  6
Continuous
 62
     7
370
    25
100
AcDbSpline
210
0.0
220
0.0
230
1.0
 70
     8
 71
     3
 72
    27
 73
    23
 74
     0
 42
0.00000001
 43
0.00000001
 40
0.0
 40
0.0
 40
0.0
 40
0.0
 40
0.0855610696136934
 40
0.1558292551837865
 40
0.2124937451069926
 40
0.2575150585024896
 40
0.2933173403844299
 40
0.3230003597837196
 40
0.3535613711135688
 40
0.3854929753130915
 40
0.4212300811707473
 40
0.4828923976135432
 40
0.5523103966354546
 40
0.610872888921786
 40
0.6697634932146331
 40
0.7269092132772907
 40
0.7806541280268967
 40
0.8302612107983368
 40
0.8691654978621887
 40
0.9079865278116617
 40
0.9502192798907471
 40
1.0
 40
1.0
 40
1.0
 40
1.0
 10
165.3637787101303
 20
-184.6261411942424
 30
0.0
 10
165.692463240833
 20
-183.123347066421
 30
0.0
 10
166.2910843875893
 20
-180.3863629369533
 30
0.0
 10
166.8006867796938
 20
-176.5961854081364
 30
0.0
 10
166.9245586674151
 20
-173.5017517434054
 30
0.0
 10
166.6775411787547
 20
-171.031672362946
 30
0.0
 10
166.0778025697361
 20
-169.1175768239768
 30
0.0
 10
165.0878153289909
 20
-167.6635385340516
 30
0.0
 10
163.6691199732731
 20
-166.7244680562449
 30
0.0
 10
161.9200880744468
 20
-166.3327507087329
 30
0.0
 10
159.5837578566817
 20
-166.3740466934794
 30
0.0
 10
156.6324919341008
 20
-166.9740207398781
 30
0.0
 10
153.3684972645152
 20
-167.9544537740624
 30
0.0
 10
150.1733629988357
 20
-168.9905728977039
 30
0.0
 10
147.1724780558965
 20
-169.9098629400004
 30
0.0
 10
144.2081238017178
 20
-170.6459776817252
 30
0.0
 10
141.3455650850692
 20
-171.0579356259875
 30
0.0
 10
138.7699578851474
 20
-170.995730298584
 30
0.0
 10
136.5360535848413
 20
-170.3907012370061
 30
0.0
 10
134.6772638670288
 20
-169.2384763765204
 30
0.0
 10
133.1125660024969
 20
-167.4244980584427
 30
0.0
 10
132.4781504433294
 20
-165.8878512541251
 30
0.0
 10
132.1349217548258
 20
-165.0565014240051
 30
0.0
  0
SPLINE
  5
A8
330
1F
100
AcDbEntity
  8
0
  6
Continuous
 62
     7
370
    25
100
AcDbSpline
210
0.0
220
0.0
230
1.0
 70
     8
 71
     3
 72
    26
 73
    22
 74
     0
 42
0.00000001
 43
0.00000001
 40
0.0
 40
0.0
 40
0.0
 40
0.0
 40
0.0663651080861365
 40
0.1220928758414356
 40
0.1691532452844756
 40
0.2097997833055341
 40
0.2464863832445721
 40
0.2815764579375323
 40
0.3354752676935665
 40
0.3933312916304652
 40
0.4555422094177312
 40
0.5207854381137218
 40
0.5869533006723934
 40
0.6505879610821326
 40
0.7108825163889735
 40
0.7666064215391556
 40
0.8181962950094689
 40
0.8565599537178227
 40
0.8972957107324399
 40
0.9439445752698754
 40
1.0
 40
1.0
 40
1.0
 40
1.0
 10
181.671202957091
 20
-179.3767260169836
 30
0.0
 10
180.6927039147582
 20
-179.6968407682817
 30
0.0
 10
178.8925446815141
 20
-180.2857606346447
 30
0.0
 10
176.5348919117345
 20
-181.4553510245755
 30
0.0
 10
174.7084531864274
 20
-182.7414853389423
 30
0.0
 10
173.3761027542953
 20
-184.1565795741978
 30
0.0
 10
172.502737341882
 20
-185.6840107334723
 30
0.0
 10
171.967415115128
 20
-187.5749502718856
 30
0.0
 10
171.9647602052444
 20
-189.8828266161391
 30
0.0
 10
172.5683448261661
 20
-192.5229242342407
 30
0.0
 10
173.5757887298888
 20
-195.2170866175247
 30
0.0
 10
174.8225035940939
 20
-197.9472929345345
 30
0.0
 10
176.1370165398787
 20
-200.6690385974171
 30
0.0
 10
177.3584689700504
 20
-203.3507488367182
 30
0.0
 10
178.332463623719
 20
-205.9636102792999
 30
0.0
 10
178.9107586486478
 20
-208.5082455837662
 30
0.0
 10
178.9021849241785
 20
-210.7975670710778
 30
0.0
 10
178.2968948416329
 20
-212.7579442811059
 30
0.0
 10
177.2011876912751
 20
-214.3985244235103
 30
0.0
 10
175.5176529625764
 20
-215.8894737948589
 30
0.0
 10
174.1009044322802
 20
-216.6250984225317
 30
0.0
 10
173.3276510349012
 20
-217.0265982161646
 30
0.0
  0
SPLINE
  5
A9
330
1F
100
AcDbEntity
  8
0
  6
Continuous
 62
     7
370
    25
100
AcDbSpline
210
0.0
220
0.0
230
1.0
 70
     8
 71
     3
 72
    27
 73
    23
 74
     0
 42
0.00000001
 43
0.00000001
 40
0.0
 40
0.0
 40
0.0
 40
0.0
 40
0.0855610696136936
 40
0.1558292551837865
 40
0.2124937451069926
 40
0.2575150585024898
 40
0.2933173403844298
 40
0.3230003597837193
 40
0.3535613711135685
 40
0.3854929753130915
 40
0.4212300811707475
 40
0.482892397613543
 40
0.5523103966354543
 40
0.6108728889217855
 40
0.6697634932146328
 40
0.7269092132772904
 40
0.7806541280268963
 40
0.8302612107983364
 40
0.8691654978621882
 40
0.9079865278116611
 40
0.9502192798907466
 40
1.0
 40
1.0
 40
1.0
 40
1.0
 10
173.3276510349012
 20
-217.0265982161646
 30
0.0
 10
174.8584622885911
 20
-216.8748068563513
 30
0.0
 10
177.6464729874577
 20
-216.5983547894258
 30
0.0
 10
181.4086218236891
 20
-215.911786197054
 30
0.0
 10
184.3898816432057
 20
-215.0733627726894
 30
0.0
 10
186.6627341318539
 20
-214.0751386744429
 30
0.0
 10
188.2978177446326
 20
-212.9132653118631
 30
0.0
 10
189.3747674536039
 20
-211.5224089534447
 30
0.0
 10
189.8294755760248
 20
-209.8829607541935
 30
0.0
 10
189.6615403314808
 20
-208.0984852522338
 30
0.0
 10
188.9002997743296
 20
-205.8892643354972
 30
0.0
 10
187.4176992228971
 20
-203.267845825028
 30
0.0
 10
185.4766221744939
 20
-200.4665728947755
 30
0.0
 10
183.503863542892
 20
-197.7479980483651
 30
0.0
 10
181.7022423122685
 20
-195.1780631145602
 30
0.0
 10
180.0861197485213
 20
-192.586266649519
 30
0.0
 10
178.8097451703506
 20
-189.9911135345178
 30
0.0
 10
178.0729995567156
 20
-187.522343020307
 30
0.0
 10
177.9581019956753
 20
-185.2108095166029
 30
0.0
 10
178.4795353457042
 20
-183.0869383798236
 30
0.0
 10
179.7212130143274
 20
-181.0382721520136
 30
0.0
 10
180.9866057815393
 20
-179.9600571235423
 30
0.0
 10
181.671202957091
 20
-179.3767260169837
 30
0.0
  0
SPLINE
  5
AA
330
1F
100
AcDbEntity
  8
0
  6
Continuous
 62
     7
370
    25
100
AcDbSpline
210
0.0
220
0.0
230
1.0
 70
     8
 71
     3
 72
    26
 73
    22
 74
     0
 42
0.00000001
 43
0.00000001
 40
0.0
 40
0.0
 40
0.0
 40
0.0
 40
0.0663651080861362
 40
0.1220928758414352
 40
0.1691532452844762
 40
0.2097997833055342
 40
0.2464863832445718
 40
0.2815764579375326
 40
0.3354752676935667
 40
0.3933312916304651
 40
0.4555422094177314
 40
0.5207854381137215
 40
0.5869533006723938
 40
0.6505879610821331
 40
0.7108825163889737
 40
0.766606421539155
 40
0.8181962950094687
 40
0.8565599537178228
 40
0.8972957107324394
 40
0.9439445752698752
 40
1.0
 40
1.0
 40
1.0
 40
1.0
 10
183.3594127727647
 20
-230.9137218099236
 30
0.0
 10
182.7525927195201
 20
-230.0820348178257
 30
0.0
 10
181.6362168473866
 20
-228.5519678957112
 30
0.0
 10
179.7953155129495
 20
-226.6711301727971
 30
0.0
 10
178.0077284871359
 20
-225.331521081668
 30
0.0
 10
176.2501749675328
 20
-224.5016686885362
 30
0.0
 10
174.5276168555774
 20
-224.1430510079072
 30
0.0
 10
172.5638028201157
 20
-224.2182617685406
 30
0.0
 10
170.3680615718374
 20
-224.9289098104858
 30
0.0
 10
168.0436974338947
 20
-226.3187879281512
 30
0.0
 10
165.792714030445
 20
-228.109465979629
 30
0.0
 10
163.5813896020018
 20
-230.138842425299
 30
0.0
 10
161.3990624931926
 20
-232.2300841923391
 30
0.0
 10
159.2260540540335
 20
-234.2204485233317
 30
0.0
 10
157.0420560533038
 20
-235.9541910752447
 30
0.0
 10
154.8006670558619
 20
-237.2905178806108
 30
0.0
 10
152.6207435108936
 20
-237.9898030292524
 30
0.0
 10
150.5692690688666
 20
-238.0199278252826
 30
0.0
 10
148.6703925036098
 20
-237.4848155446207
 30
0.0
 10
146.7321745467343
 20
-236.3444075639819
 30
0.0
 10
145.5947545784215
 20
-235.2243201537238
 30
0.0
 10
144.9739571426475
 20
-234.6129827308698
 30
0.0
  0
SPLINE
  5
AB
330
1F
100
AcDbEntity
  8
0
  6
Continuous
 62
     7
370
    25
100
AcDbSpline
210
0.0
220
0.0
230
1.0
 70
     8
 71
     3
 72
    27
 73
    23
 74
     0
 42
0.00000001
 43
0.00000001
 40
0.0
 40
0.0
 40
0.0
 40
0.0
 40
0.0855610696136938
 40
0.1558292551837868
 40
0.2124937451069924
 40
0.2575150585024893
 40
0.2933173403844299
 40
0.3230003597837198
 40
0.3535613711135687
 40
0.3854929753130917
 40
0.4212300811707473
 40
0.4828923976135435
 40
0.5523103966354546
 40
0.610872888921786
 40
0.6697634932146331
 40
0.7269092132772903
 40
0.7806541280268964
 40
0.8302612107983365
 40
0.869165497862188
 40
0.9079865278116614
 40
0.9502192798907465
 40
1.0
 40
1.0
 40
1.0
 40
1.0
 10
144.9739571426475
 20
-234.6129827308698
 30
0.0
 10
145.5913659970859
 20
-236.0219646391278
 30
0.0
 10
146.7158302232276
 20
-238.5880919949755
 30
0.0
 10
148.5313636826498
 20
-241.9539467980984
 30
0.0
 10
150.2500116926842
 20
-244.5302062896082
 30
0.0
 10
151.901729270744
 20
-246.3833492489618
 30
0.0
 10
153.5120051269078
 20
-247.5793675592337
 30
0.0
 10
155.1675838919716
 20
-248.1738093461875
 30
0.0
 10
156.867304322306
 20
-248.0996451140619
 30
0.0
 10
158.5125465320953
 20
-247.3884959492717
 30
0.0
 10
160.378404211926
 20
-245.9818263493246
 30
0.0
 10
162.4133726019822
 20
-243.7617265647179
 30
0.0
 10
164.4777156808723
 20
-241.0500116478725
 30
0.0
 10
166.4536180606223
 20
-238.3337208681889
 30
0.0
 10
168.3410398481826
 20
-235.8261236879251
 30
0.0
 10
170.3065754279799
 20
-233.4881906388832
 30
0.0
 10
172.3802912729426
 20
-231.4723398635399
 30
0.0
 10
174.5005646425757
 20
-230.0087611027376
 30
0.0
 10
176.6634583449345
 20
-229.1851838928922
 30
0.0
 10
178.8445115959324
 20
-229.0247842031235
 30
0.0
 10
181.1766084627453
 20
-229.5726171608106
 30
0.0
 10
182.5930797611679
 20
-230.442890430352
 30
0.0
 10
183.3594127727647
 20
-230.9137218099236
 30
0.0
  0
SPLINE
  5
AC
330
1F
100
AcDbEntity
  8
0
  6
Continuous
 62
     7
370
    25
100
AcDbSpline
210
0.0
220
0.0
230
1.0
 70
     8
 71
     3
 72
    26
 73
    22
 74
     0
 42
0.00000001
 43
0.00000001
 40
0.0
 40
0.0
 40
0.0
 40
0.0
 40
0.0663651080861362
 40
0.1220928758414355
 40
0.1691532452844757
 40
0.2097997833055341
 40
0.2464863832445718
 40
0.2815764579375322
 40
0.3354752676935665
 40
0.3933312916304652
 40
0.4555422094177308
 40
0.5207854381137211
 40
0.5869533006723932
 40
0.6505879610821323
 40
0.7108825163889733
 40
0.7666064215391549
 40
0.8181962950094689
 40
0.8565599537178222
 40
0.8972957107324391
 40
0.9439445752698747
 40
1.0
 40
1.0
 40
1.0
 40
1.0
 10
134.866502616727
 20
-248.445112295042
 30
0.0
 10
135.4699662410996
 20
-247.6109867146263
 30
0.0
 10
136.5801672411448
 20
-246.0764334853345
 30
0.0
 10
137.8000804163074
 20
-243.7444214553199
 30
0.0
 10
138.5217296018133
 20
-241.6303631909972
 30
0.0
 10
138.7678522217837
 20
-239.7023919711407
 30
0.0
 10
138.5766181734118
 20
-237.9533228962708
 30
0.0
 10
137.8982365786663
 20
-236.1088661642487
 30
0.0
 10
136.5438487666139
 20
-234.2401944639558
 30
0.0
 10
134.5037281062122
 20
-232.4590887627911
 30
0.0
 10
132.1050999510457
 20
-230.8716262782288
 30
0.0
 10
129.4917114299098
 20
-229.3956435806116
 30
0.0
 10
126.8284461563106
 20
-227.9663564084531
 30
0.0
 10
124.2640006528983
 20
-226.5147589757009
 30
0.0
 10
121.9402210034169
 20
-224.9734093579434
 30
0.0
 10
119.9766713960589
 20
-223.2546694392709
 30
0.0
 10
118.6379782768617
 20
-221.3975299416477
 30
0.0
 10
117.9753874271829
 20
-219.4557708794706
 30
0.0
 10
117.8975243197713
 20
-217.4844731598195
 30
0.0
 10
118.3831744735156
 20
-215.2887128953947
 30
0.0
 10
119.0969588039117
 20
-213.8608361778114
 30
0.0
 10
119.4865382858535
 20
-213.0815090782599
 30
0.0
  0
SPLINE
  5
AD
330
1F
100
AcDbEntity
  8
0
  6
Continuous
 62
     7
370
    25
100
AcDbSpline
210
0.0
220
0.0
230
1.0
 70
     8
 71
     3
 72
    27
 73
    23
 74
     0
 42
0.00000001
 43
0.00000001
 40
0.0
 40
0.0
 40
0.0
 40
0.0
 40
0.0855610696136935
 40
0.1558292551837868
 40
0.2124937451069927
 40
0.2575150585024898
 40
0.29331734038443
 40
0.3230003597837195
 40
0.3535613711135686
 40
0.3854929753130912
 40
0.421230081170747
 40
0.4828923976135429
 40
0.5523103966354542
 40
0.6108728889217853
 40
0.6697634932146325
 40
0.7269092132772899
 40
0.780654128026896
 40
0.8302612107983363
 40
0.8691654978621878
 40
0.907986527811661
 40
0.9502192798907466
 40
0.9999999999999999
 40
0.9999999999999999
 40
0.9999999999999999
 40
0.9999999999999999
 10
119.4865382858535
 20
-213.0815090782599
 30
0.0
 10
118.3373066891617
 20
-214.1040991469104
 30
0.0
 10
116.244253101184
 20
-215.9665051392106
 30
0.0
 10
113.6041656505884
 20
-218.7332864011097
 30
0.0
 10
111.6850887159702
 20
-221.1639257550666
 30
0.0
 10
110.4330538303786
 20
-223.3074551882063
 30
0.0
 10
109.7931754279725
 20
-225.2085085177014
 30
0.0
 10
109.7394296668631
 20
-226.9667501047904
 30
0.0
 10
110.3352065417616
 20
-228.5603622878384
 30
0.0
 10
111.5199573916813
 20
-229.9053234348866
 30
0.0
 10
113.4343614131378
 20
-231.2451747279146
 30
0.0
 10
116.1746415956568
 20
-232.4944961130807
 30
0.0
 10
119.3915528312546
 20
-233.6198370569226
 30
0.0
 10
122.5854862919939
 20
-234.6596518781608
 30
0.0
 10
125.5535983384367
 20
-235.6798065244692
 30
0.0
 10
128.3844886965958
 20
-236.8266809017807
 30
0.0
 10
130.9424901499628
 20
-238.1759697213721
 30
0.0
 10
132.9896367714722
 20
-239.7401988161945
 30
0.0
 10
134.4412761546233
 20
-241.5427336118544
 30
0.0
 10
135.2678078449846
 20
-243.5674722885718
 30
0.0
 10
135.4674453051088
 20
-245.9547179043897
 30
0.0
 10
135.0774799444109
 20
-247.5707913929381
 30
0.0
 10
134.866502616727
 20
-248.445112295042
 30
0.0
  0
LINE
  5
B5
330
1F
100
AcDbEntity
  8
0
  6
Continuous
 62
     7
370
    25
100
AcDbLine
 10
114.0480132425
 20
-346.3070346476
 30
0.0
 11
174.0480132425
 21
-346.3070346476
 31
0.0
  0
LINE
  5
B6
330
1F
100
AcDbEntity
  8
0
  6
Continuous
 62
     7
370
    25
100
AcDbLine
 10
114.0480132425
 20
-386.3070346476
 30
0.0
 11
114.0480132425
 21
-346.3070346476
 31
0.0
  0
LINE
  5
B7
330
1F
100
AcDbEntity
  8
0
  6
Continuous
 62
     7
370
    25
100
AcDbLine
 10
-6.4519867575
 20
-329.3070346476
 30
0.0
 11
6.5480132425
 21
-329.3070346476
 31
0.0
  0
LINE
  5
B8
330
1F
100
AcDbEntity
  8
0
  6
Continuous
 62
     7
370
    25
100
AcDbLine
 10
6.5480132425
 20
-323.3070346476
 30
0.0
 11
-6.4519867575
 21
-323.3070346476
 31
0.0
  0
LINE
  5
B9
330
1F
100
AcDbEntity
  8
0
  6
Continuous
 62
     7
370
    25
100
AcDbLine
 10
-6.4519867575
 20
-323.3070346476
 30
0.0
 11
-6.4519867575
 21
-266.3070346476
 31
0.0
  0
LINE
  5
BA
330
1F
100
AcDbEntity
  8
0
  6
Continuous
 62
     7
370
    25
100
AcDbLine
 10
18.5480132425
 20
-279.3070346476
 30
0.0
 11
18.5480132425
 21
-266.3070346476
 31
0.0
  0
LINE
  5
BB
330
1F
100
AcDbEntity
  8
0
  6
Continuous
 62
     7
370
    25
100
AcDbLine
 10
24.5480132425
 20
-253.3070346476
 30
0.0
 11
24.5480132425
 21
-279.3070346476
 31
0.0
  0
LINE
  5
BC
330
1F
100
AcDbEntity
  8
0
  6
Continuous
 62
     7
370
    25
100
AcDbLine
 10
141.0480132425
 20
-279.3070346476
 30
0.0
 11
141.0480132425
 21
-266.3070346476
 31
0.0
  0
LINE
  5
BD
330
1F
100
AcDbEntity
  8
0
  6
Continuous
 62
     7
370
    25
100
AcDbLine
 10
147.0480132425
 20
-266.3070346476
 30
0.0
 11
147.0480132425
 21
-279.3070346476
 31
0.0
  0
LINE
  5
BE
330
1F
100
AcDbEntity
  8
0
  6
Continuous
 62
     7
370
    25
100
AcDbLine
 10
263.5480132425
 20
-266.3070346476
 30
0.0
 11
-6.4519867575
 21
-266.3070346476
 31
0.0
  0
LINE
  5
BF
330
1F
100
AcDbEntity
  8
0
  6
Continuous
 62
     7
370
    25
100
AcDbLine
 10
263.5480132425
 20
-253.3070346476
 30
0.0
 11
263.5480132425
 21
-279.3070346476
 31
0.0
  0
LINE
  5
C0
330
1F
100
AcDbEntity
  8
0
  6
Continuous
 62
     7
370
    25
100
AcDbLine
 10
269.5480132425
 20
-253.3070346476
 30
0.0
 11
269.5480132425
 21
-279.3070346476
 31
0.0
  0
LINE
  5
C1
330
1F
100
AcDbEntity
  8
0
  6
Continuous
 62
     7
370
    25
100
AcDbLine
 10
269.5480132425
 20
-266.3070346476
 30
0.0
 11
294.5480132425
 21
-266.3070346476
 31
0.0
  0
LINE
  5
C2
330
1F
100
AcDbEntity
  8
0
  6
Continuous
 62
     7
370
    25
100
AcDbLine
 10
294.5480132425
 20
-209.3070346476
 30
0.0
 11
294.5480132425
 21
-323.3070346476
 31
0.0
  0
LINE
  5
C3
330
1F
100
AcDbEntity
  8
0
  6
Continuous
 62
     7
370
    25
100
AcDbLine
 10
294.5480132425
 20
-323.3070346476
 30
0.0
 11
281.5480132425
 21
-323.3070346476
 31
0.0
  0
LINE
  5
C4
330
1F
100
AcDbEntity
  8
0
  6
Continuous
 62
     7
370
    25
100
AcDbLine
 10
281.5480132425
 20
-329.3070346476
 30
0.0
 11
294.5480132425
 21
-329.3070346476
 31
0.0
  0
LINE
  5
C5
330
1F
100
AcDbEntity
  8
0
  6
Continuous
 62
     7
370
    25
100
AcDbLine
 10
294.5480132425
 20
-386.3070346476
 30
0.0
 11
269.5480132425
 21
-386.3070346476
 31
0.0
  0
LINE
  5
C6
330
1F
100
AcDbEntity
  8
0
  6
Continuous
 62
     7
370
    25
100
AcDbLine
 10
263.5480132425
 20
-373.3070346476
 30
0.0
 11
263.5480132425
 21
-386.3070346476
 31
0.0
  0
LINE
  5
C7
330
1F
100
AcDbEntity
  8
0
  6
Continuous
 62
     7
370
    25
100
AcDbLine
 10
-6.4519867575
 20
-386.3070346476
 30
0.0
 11
-6.4519867575
 21
-329.3070346476
 31
0.0
  0
LINE
  5
C8
330
1F
100
AcDbEntity
  8
0
  6
Continuous
 62
     7
370
    25
100
AcDbLine
 10
114.0480132425
 20
-386.3070346476
 30
0.0
 11
24.5480132425
 21
-386.3070346476
 31
0.0
  0
LINE
  5
C9
330
1F
100
AcDbEntity
  8
0
  6
Continuous
 62
     7
370
    25
100
AcDbLine
 10
269.5480132425
 20
-386.3070346476
 30
0.0
 11
269.5480132425
 21
-373.3070346476
 31
0.0
  0
LINE
  5
CA
330
1F
100
AcDbEntity
  8
0
  6
Continuous
 62
     7
370
    25
100
AcDbLine
 10
174.0480132425
 20
-386.3070346476
 30
0.0
 11
174.0480132425
 21
-346.3070346476
 31
0.0
  0
LINE
  5
CB
330
1F
100
AcDbEntity
  8
0
  6
Continuous
 62
     7
370
    25
100
AcDbLine
 10
24.5480132425
 20
-386.3070346476
 30
0.0
 11
24.5480132425
 21
-373.3070346476
 31
0.0
  0
LINE
  5
CC
330
1F
100
AcDbEntity
  8
0
  6
Continuous
 62
     7
370
    25
100
AcDbLine
 10
18.5480132425
 20
-373.3070346476
 30
0.0
 11
18.5480132425
 21
-386.3070346476
 31
0.0
  0
LINE
  5
CD
330
1F
100
AcDbEntity
  8
0
  6
Continuous
 62
     7
370
    25
100
AcDbLine
 10
18.5480132425
 20
-386.3070346476
 30
0.0
 11
-6.4519867575
 21
-386.3070346476
 31
0.0
  0
LINE
  5
CE
330
1F
100
AcDbEntity
  8
0
  6
Continuous
 62
     7
370
    25
100
AcDbLine
 10
294.5480132425
 20
-329.3070346476
 30
0.0
 11
294.5480132425
 21
-386.3070346476
 31
0.0
  0
LINE
  5
CF
330
1F
100
AcDbEntity
  8
0
  6
Continuous
 62
     7
370
    25
100
AcDbLine
 10
263.5480132425
 20
-386.3070346476
 30
0.0
 11
174.0480132425
 21
-386.3070346476
 31
0.0
  0
LINE
  5
D0
330
1F
100
AcDbEntity
  8
0
  6
Continuous
 62
     7
370
    25
100
AcDbLine
 10
-0.4519867575
 20
-209.3070346476
 30
0.0
 11
12.5480132425
 21
-209.3070346476
 31
0.0
  0
LINE
  5
D1
330
1F
100
AcDbEntity
  8
0
  6
Continuous
 62
     7
370
    25
100
AcDbLine
 10
12.5480132425
 20
-203.3070346476
 30
0.0
 11
-0.4519867575
 21
-203.3070346476
 31
0.0
  0
LINE
  5
D2
330
1F
100
AcDbEntity
  8
0
  6
Continuous
 62
     7
370
    25
100
AcDbLine
 10
-0.4519867575
 20
-203.3070346476
 30
0.0
 11
-0.4519867575
 21
-146.3070346476
 31
0.0
  0
LINE
  5
D3
330
1F
100
AcDbEntity
  8
0
  6
Continuous
 62
     7
370
    25
100
AcDbLine
 10
-0.4519867575
 20
-146.3070346476
 30
0.0
 11
24.5480132425
 21
-146.3070346476
 31
0.0
  0
LINE
  5
D4
330
1F
100
AcDbEntity
  8
0
  6
Continuous
 62
     7
370
    25
100
AcDbLine
 10
24.5480132425
 20
-146.3070346476
 30
0.0
 11
24.5480132425
 21
-159.3070346476
 31
0.0
  0
LINE
  5
D5
330
1F
100
AcDbEntity
  8
0
  6
Continuous
 62
     7
370
    25
100
AcDbLine
 10
30.5480132425
 20
-159.3070346476
 30
0.0
 11
30.5480132425
 21
-146.3070346476
 31
0.0
  0
LINE
  5
D6
330
1F
100
AcDbEntity
  8
0
  6
Continuous
 62
     7
370
    25
100
AcDbLine
 10
30.5480132425
 20
-146.3070346476
 30
0.0
 11
263.5480132425
 21
-146.3070346476
 31
0.0
  0
LINE
  5
D7
330
1F
100
AcDbEntity
  8
0
  6
Continuous
 62
     7
370
    25
100
AcDbLine
 10
263.5480132425
 20
-146.3070346476
 30
0.0
 11
263.5480132425
 21
-159.3070346476
 31
0.0
  0
LINE
  5
D8
330
1F
100
AcDbEntity
  8
0
  6
Continuous
 62
     7
370
    25
100
AcDbLine
 10
269.5480132425
 20
-159.3070346476
 30
0.0
 11
269.5480132425
 21
-146.3070346476
 31
0.0
  0
LINE
  5
D9
330
1F
100
AcDbEntity
  8
0
  6
Continuous
 62
     7
370
    25
100
AcDbLine
 10
269.5480132425
 20
-146.3070346476
 30
0.0
 11
294.5480132425
 21
-146.3070346476
 31
0.0
  0
LINE
  5
DA
330
1F
100
AcDbEntity
  8
0
  6
Continuous
 62
     7
370
    25
100
AcDbLine
 10
294.5480132425
 20
-146.3070346476
 30
0.0
 11
294.5480132425
 21
-203.3070346476
 31
0.0
  0
LINE
  5
DB
330
1F
100
AcDbEntity
  8
0
  6
Continuous
 62
     7
370
    25
100
AcDbLine
 10
294.5480132425
 20
-203.3070346476
 30
0.0
 11
281.5480132425
 21
-203.3070346476
 31
0.0
  0
LINE
  5
DC
330
1F
100
AcDbEntity
  8
0
  6
Continuous
 62
     7
370
    25
100
AcDbLine
 10
281.5480132425
 20
-209.3070346476
 30
0.0
 11
294.5480132425
 21
-209.3070346476
 31
0.0
  0
LINE
  5
DD
330
1F
100
AcDbEntity
  8
0
  6
Continuous
 62
     7
370
    25
100
AcDbLine
 10
30.5480132425
 20
-266.3070346476
 30
0.0
 11
30.5480132425
 21
-253.3070346476
 31
0.0
  0
LINE
  5
DE
330
1F
100
AcDbEntity
  8
0
  6
Continuous
 62
     7
370
    25
100
AcDbLine
 10
-0.4519867575
 20
-266.3070346476
 30
0.0
 11
-0.4519867575
 21
-209.3070346476
 31
0.0
  0
ARC
  5
DF
330
1F
100
AcDbEntity
  8
0
  6
Continuous
 62
     7
370
    25
100
AcDbCircle
 10
21.5480132425
 20
-373.3070346476
 30
0.0
 40
2.999999999999982
100
AcDbArc
 50
0.0
 51
180.0
  0
ARC
  5
E0
330
1F
100
AcDbEntity
  8
0
  6
Continuous
 62
     7
370
    25
100
AcDbCircle
 10
6.5480132425
 20
-326.3070346476
 30
0.0
 40
3.000000000000057
100
AcDbArc
 50
270.0
 51
90.0
  0
ARC
  5
E1
330
1F
100
AcDbEntity
  8
0
  6
Continuous
 62
     7
370
    25
100
AcDbCircle
 10
21.5480132425
 20
-279.3070346476
 30
0.0
 40
3.000000000000007
100
AcDbArc
 50
180.0
 51
0.0
  0
ARC
  5
E2
330
1F
100
AcDbEntity
  8
0
  6
Continuous
 62
     7
370
    25
100
AcDbCircle
 10
144.0480132425
 20
-279.3070346476
 30
0.0
 40
3.000000000000028
100
AcDbArc
 50
180.0
 51
0.0
  0
ARC
  5
E3
330
1F
100
AcDbEntity
  8
0
  6
Continuous
 62
     7
370
    25
100
AcDbCircle
 10
266.5480132425
 20
-279.3070346476
 30
0.0
 40
3.0
100
AcDbArc
 50
180.0
 51
0.0
  0
ARC
  5
E4
330
1F
100
AcDbEntity
  8
0
  6
Continuous
 62
     7
370
    25
100
AcDbCircle
 10
281.5480132425
 20
-326.3070346476
 30
0.0
 40
3.0
100
AcDbArc
 50
90.0
 51
270.0
  0
ARC
  5
E5
330
1F
100
AcDbEntity
  8
0
  6
Continuous
 62
     7
370
    25
100
AcDbCircle
 10
266.5480132425
 20
-373.3070346476
 30
0.0
 40
3.000000000000057
100
AcDbArc
 50
0.0
 51
180.0
  0
ARC
  5
E6
330
1F
100
AcDbEntity
  8
0
  6
Continuous
 62
     7
370
    25
100
AcDbCircle
 10
266.5480132425
 20
-253.3070346476
 30
0.0
 40
3.0
100
AcDbArc
 50
0.0
 51
180.0
  0
ARC
  5
E7
330
1F
100
AcDbEntity
  8
0
  6
Continuous
 62
     7
370
    25
100
AcDbCircle
 10
27.5480132425
 20
-253.3070346476
 30
0.0
 40
3.000000000000004
100
AcDbArc
 50
0.0
 51
180.0
  0
ARC
  5
E8
330
1F
100
AcDbEntity
  8
0
  6
Continuous
 62
     7
370
    25
100
AcDbCircle
 10
12.5480132425
 20
-206.3070346476
 30
0.0
 40
3.0
100
AcDbArc
 50
270.0
 51
90.0
  0
ARC
  5
E9
330
1F
100
AcDbEntity
  8
0
  6
Continuous
 62
     7
370
    25
100
AcDbCircle
 10
27.5480132425
 20
-159.3070346476
 30
0.0
 40
3.000000000000004
100
AcDbArc
 50
180.0
 51
0.0
  0
ARC
  5
EA
330
1F
100
AcDbEntity
  8
0
  6
Continuous
 62
     7
370
    25
100
AcDbCircle
 10
266.5480132425
 20
-159.3070346476
 30
0.0
 40
3.0
100
AcDbArc
 50
180.0
 51
0.0
  0
ARC
  5
EB
330
1F
100
AcDbEntity
  8
0
  6
Continuous
 62
     7
370
    25
100
AcDbCircle
 10
281.5480132425
 20
-206.3070346476
 30
0.0
 40
3.0
100
AcDbArc
 50
90.0
 51
270.0
  0
ENDSEC
  0
SECTION
  2
OBJECTS
  0
DICTIONARY
  5
C
330
0
100
AcDbDictionary
281
     1
  3
ACAD_GROUP
350
D
  3
ACAD_LAYOUT
350
1A
  3
ACAD_MLINESTYLE
350
17
  3
ACAD_PLOTSETTINGS
350
19
  3
ACAD_PLOTSTYLENAME
350
E
  3
ACAD_SCALELIST
350
47
  3
DWGPROPS
350
EC
  0
DICTIONARY
  5
D
102
{ACAD_REACTORS
330
C
102
}
330
C
100
AcDbDictionary
281
     1
  0
DICTIONARY
  5
1A
102
{ACAD_REACTORS
330
C
102
}
330
C
100
AcDbDictionary
281
     1
  3
Layout1
350
1E
  3
Layout2
350
26
  3
Model
350
22
  0
DICTIONARY
  5
17
102
{ACAD_REACTORS
330
C
102
}
330
C
100
AcDbDictionary
281
     1
  3
Standard
350
18
  0
DICTIONARY
  5
19
102
{ACAD_REACTORS
330
C
102
}
330
C
100
AcDbDictionary
281
     1
  0
ACDBDICTIONARYWDFLT
  5
E
102
{ACAD_REACTORS
330
C
102
}
330
C
100
AcDbDictionary
281
     1
  3
Normal
350
F
100
AcDbDictionaryWithDefault
340
F
  0
DICTIONARY
  5
47
102
{ACAD_REACTORS
330
C
102
}
330
C
100
AcDbDictionary
281
     1
  3
A0
350
48
  3
A1
350
49
  3
A2
350
4A
  3
A3
350
4B
  3
A4
350
4C
  3
A5
350
4D
  3
A6
350
4E
  3
A7
350
4F
  3
A8
350
50
  3
A9
350
51
  3
B0
350
52
  3
B1
350
53
  3
B2
350
54
  3
B3
350
55
  3
B4
350
56
  3
B5
350
57
  3
B6
350
58
  0
XRECORD
  5
EC
102
{ACAD_REACTORS
330
C
102
}
330
C
100
AcDbXrecord
280
     1
  1
DWGPROPS COOKIE
  2

  3

  4

  6

  7

  8
itisa
  9

300
=
301
=
302
=
303
=
304
=
305
=
306
=
307
=
308
=
309
=
 40
0.0
 41
2460691.504549074
 42
2460691.504587431
  1

 90
        0
  0
LAYOUT
  5
1E
102
{ACAD_REACTORS
330
1A
102
}
330
1A
100
AcDbPlotSettings
  1

  2
none_device
  4

  6

 40
0.0
 41
0.0
 42
0.0
 43
0.0
 44
0.0
 45
0.0
 46
0.0
 47
0.0
 48
0.0
 49
0.0
140
0.0
141
0.0
142
1.0
143
1.0
 70
   688
 72
     1
 73
     0
 74
     5
  7

 75
    16
147
1.0
148
0.0
149
0.0
100
AcDbLayout
  1
Layout1
 70
     1
 71
     1
 10
0.0
 20
0.0
 11
420.0
 21
297.0
 12
0.0
 22
0.0
 32
0.0
 14
1.0000000000E+20
 24
1.0000000000E+20
 34
1.0000000000E+20
 15
-1.0000000000E+20
 25
-1.0000000000E+20
 35
-1.0000000000E+20
146
0.0
 13
0.0
 23
0.0
 33
0.0
 16
1.0
 26
0.0
 36
0.0
 17
0.0
 27
1.0
 37
0.0
 76
     0
330
1B
  0
LAYOUT
  5
26
102
{ACAD_REACTORS
330
1A
102
}
330
1A
100
AcDbPlotSettings
  1

  2
none_device
  4

  6

 40
0.0
 41
0.0
 42
0.0
 43
0.0
 44
0.0
 45
0.0
 46
0.0
 47
0.0
 48
0.0
 49
0.0
140
0.0
141
0.0
142
1.0
143
1.0
 70
   688
 72
     1
 73
     0
 74
     5
  7

 75
    16
147
1.0
148
0.0
149
0.0
100
AcDbLayout
  1
Layout2
 70
     1
 71
     2
 10
0.0
 20
0.0
 11
0.0
 21
0.0
 12
0.0
 22
0.0
 32
0.0
 14
0.0
 24
0.0
 34
0.0
 15
0.0
 25
0.0
 35
0.0
146
0.0
 13
0.0
 23
0.0
 33
0.0
 16
1.0
 26
0.0
 36
0.0
 17
0.0
 27
1.0
 37
0.0
 76
     0
330
23
  0
LAYOUT
  5
22
102
{ACAD_REACTORS
330
1A
102
}
330
1A
100
AcDbPlotSettings
  1

  2
none_device
  4
ANSI_A_(11.00_x_8.50_Inches)
  6

 40
6.35
 41
19.05
 42
6.35000508
 43
19.05000254
 44
279.4
 45
215.9
 46
5.0626374664
 47
326.0697149492
 48
0.0
 49
0.0
140
0.0
141
0.0
142
0.0350625
143
1.0
 70
  1696
 72
     0
 73
     0
 74
     0
  7

 75
     0
147
0.0179189148
148
-1300.4909072572
149
0.0
100
AcDbLayout
  1
Model
 70
     1
 71
     0
 10
0.0
 20
0.0
 11
420.0
 21
297.0
 12
0.0
 22
0.0
 32
0.0
 14
-6.4519867575
 24
-386.3070346476
 34
0.0
 15
294.5480132425
 25
-146.3070346476
 35
0.0
146
0.0
 13
0.0
 23
0.0
 33
0.0
 16
1.0
 26
0.0
 36
0.0
 17
0.0
 27
1.0
 37
0.0
 76
     0
330
1F
331
29
  0
MLINESTYLE
  5
18
102
{ACAD_REACTORS
330
17
102
}
330
17
100
AcDbMlineStyle
  2
Standard
 70
     0
  3

 62
   256
 51
90.0
 52
90.0
 71
     2
 49
0.5
 62
   256
  6
BYLAYER
 49
-0.5
 62
   256
  6
BYLAYER
  0
ACDBPLACEHOLDER
  5
F
102
{ACAD_REACTORS
330
E
102
}
330
E
  0
SCALE
  5
48
102
{ACAD_REACTORS
330
47
102
}
330
47
100
AcDbScale
 70
     0
300
1:1
140
1.0
141
1.0
290
     1
  0
SCALE
  5
49
102
{ACAD_REACTORS
330
47
102
}
330
47
100
AcDbScale
 70
     0
300
1:2
140
1.0
141
2.0
290
     0
  0
SCALE
  5
4A
102
{ACAD_REACTORS
330
47
102
}
330
47
100
AcDbScale
 70
     0
300
1:4
140
1.0
141
4.0
290
     0
  0
SCALE
  5
4B
102
{ACAD_REACTORS
330
47
102
}
330
47
100
AcDbScale
 70
     0
300
1:5
140
1.0
141
5.0
290
     0
  0
SCALE
  5
4C
102
{ACAD_REACTORS
330
47
102
}
330
47
100
AcDbScale
 70
     0
300
1:8
140
1.0
141
8.0
290
     0
  0
SCALE
  5
4D
102
{ACAD_REACTORS
330
47
102
}
330
47
100
AcDbScale
 70
     0
300
1:10
140
1.0
141
10.0
290
     0
  0
SCALE
  5
4E
102
{ACAD_REACTORS
330
47
102
}
330
47
100
AcDbScale
 70
     0
300
1:16
140
1.0
141
16.0
290
     0
  0
SCALE
  5
4F
102
{ACAD_REACTORS
330
47
102
}
330
47
100
AcDbScale
 70
     0
300
1:20
140
1.0
141
20.0
290
     0
  0
SCALE
  5
50
102
{ACAD_REACTORS
330
47
102
}
330
47
100
AcDbScale
 70
     0
300
1:30
140
1.0
141
30.0
290
     0
  0
SCALE
  5
51
102
{ACAD_REACTORS
330
47
102
}
330
47
100
AcDbScale
 70
     0
300
1:40
140
1.0
141
40.0
290
     0
  0
SCALE
  5
52
102
{ACAD_REACTORS
330
47
102
}
330
47
100
AcDbScale
 70
     0
300
1:50
140
1.0
141
50.0
290
     0
  0
SCALE
  5
53
102
{ACAD_REACTORS
330
47
102
}
330
47
100
AcDbScale
 70
     0
300
1:100
140
1.0
141
100.0
290
     0
  0
SCALE
  5
54
102
{ACAD_REACTORS
330
47
102
}
330
47
100
AcDbScale
 70
     0
300
2:1
140
2.0
141
1.0
290
     0
  0
SCALE
  5
55
102
{ACAD_REACTORS
330
47
102
}
330
47
100
AcDbScale
 70
     0
300
4:1
140
4.0
141
1.0
290
     0
  0
SCALE
  5
56
102
{ACAD_REACTORS
330
47
102
}
330
47
100
AcDbScale
 70
     0
300
8:1
140
8.0
141
1.0
290
     0
  0
SCALE
  5
57
102
{ACAD_REACTORS
330
47
102
}
330
47
100
AcDbScale
 70
     0
300
10:1
140
10.0
141
1.0
290
     0
  0
SCALE
  5
58
102
{ACAD_REACTORS
330
47
102
}
330
47
100
AcDbScale
 70
     0
300
100:1
140
100.0
141
1.0
290
     0
  0
ENDSEC
  0
EOF
