  0
SECTION
  2
HEADER
  9
$ACADVER
  1
AC1015
  9
$ACADMAINTVER
 70
     6
  9
$DWGCODEPAGE
  3
ANSI_1252
  9
$INSBASE
 10
0.0
 20
0.0
 30
0.0
  9
$EXTMIN
 10
-294.5480132425
 20
-572.3070346476
 30
0.0
  9
$EXTMAX
 10
6.4519867575
 20
-146.3070346476
 30
0.0
  9
$LIMMIN
 10
0.0
 20
0.0
  9
$LIMMAX
 10
420.0
 20
297.0
  9
$ORTHOMODE
 70
     0
  9
$REGENMODE
 70
     1
  9
$FILLMODE
 70
     1
  9
$QTEXTMODE
 70
     0
  9
$MIRRTEXT
 70
     1
  9
$LTSCALE
 40
1.0
  9
$ATTMODE
 70
     1
  9
$TEXTSIZE
 40
3.5
  9
$TRACEWID
 40
1.0
  9
$TEXTSTYLE
  7
Standard
  9
$CLAYER
  8
0
  9
$CELTYPE
  6
ByLayer
  9
$CECOLOR
 62
   256
  9
$CELTSCALE
 40
1.0
  9
$DISPSILH
 70
     0
  9
$DIMSCALE
 40
1.0
  9
$DIMASZ
 40
3.302
  9
$DIMEXO
 40
0.0
  9
$DIMDLI
 40
3.75
  9
$DIMRND
 40
0.0
  9
$DIMDLE
 40
0.0
  9
$DIMEXE
 40
1.0
  9
$DIMTP
 40
0.0
  9
$DIMTM
 40
0.0
  9
$DIMTXT
 40
3.5
  9
$DIMCEN
 40
2.5
  9
$DIMTSZ
 40
0.0
  9
$DIMTOL
 70
     0
  9
$DIMLIM
 70
     0
  9
$DIMTIH
 70
     1
  9
$DIMTOH
 70
     1
  9
$DIMSE1
 70
     0
  9
$DIMSE2
 70
     0
  9
$DIMTAD
 70
     1
  9
$DIMZIN
 70
     1
  9
$DIMBLK
  1

  9
$DIMASO
 70
     1
  9
$DIMSHO
 70
     1
  9
$DIMPOST
  1

  9
$DIMAPOST
  1

  9
$DIMALT
 70
     0
  9
$DIMALTD
 70
     3
  9
$DIMALTF
 40
0.0393700787
  9
$DIMLFAC
 40
1.0
  9
$DIMTOFL
 70
     1
  9
$DIMTVP
 40
0.0
  9
$DIMTIX
 70
     0
  9
$DIMSOXD
 70
     0
  9
$DIMSAH
 70
     0
  9
$DIMBLK1
  1

  9
$DIMBLK2
  1

  9
$DIMSTYLE
  2
ISO-25
  9
$DIMCLRD
 70
     0
  9
$DIMCLRE
 70
     0
  9
$DIMCLRT
 70
     0
  9
$DIMTFAC
 40
1.0
  9
$DIMGAP
 40
1.524
  9
$DIMJUST
 70
     0
  9
$DIMSD1
 70
     0
  9
$DIMSD2
 70
     0
  9
$DIMTOLJ
 70
     0
  9
$DIMTZIN
 70
     1
  9
$DIMALTZ
 70
     0
  9
$DIMALTTZ
 70
     0
  9
$DIMUPT
 70
     0
  9
$DIMDEC
 70
     2
  9
$DIMTDEC
 70
     2
  9
$DIMALTU
 70
     2
  9
$DIMALTTD
 70
     3
  9
$DIMTXSTY
  7
Standard
  9
$DIMAUNIT
 70
     0
  9
$DIMADEC
 70
     2
  9
$DIMALTRND
 40
0.0
  9
$DIMAZIN
 70
     0
  9
$DIMDSEP
 70
    44
  9
$DIMATFIT
 70
     3
  9
$DIMFRAC
 70
     0
  9
$DIMLDRBLK
  1

  9
$DIMLUNIT
 70
     2
  9
$DIMLWD
 70
    -2
  9
$DIMLWE
 70
    -2
  9
$DIMTMOVE
 70
     0
  9
$LUNITS
 70
     2
  9
$LUPREC
 70
     2
  9
$SKETCHINC
 40
1.0
  9
$FILLETRAD
 40
0.0
  9
$AUNITS
 70
     0
  9
$AUPREC
 70
     2
  9
$MENU
  1
.
  9
$ELEVATION
 40
0.0
  9
$PELEVATION
 40
0.0
  9
$THICKNESS
 40
0.0
  9
$LIMCHECK
 70
     0
  9
$CHAMFERA
 40
0.0
  9
$CHAMFERB
 40
0.0
  9
$CHAMFERC
 40
0.0
  9
$CHAMFERD
 40
0.0
  9
$SKPOLY
 70
     0
  9
$TDCREATE
 40
2460719.623825868
  9
$TDUCREATE
 40
2460719.394659202
  9
$TDUPDATE
 40
2460719.623852304
  9
$TDUUPDATE
 40
2460719.394685637
  9
$TDINDWG
 40
0.0000000116
  9
$TDUSRTIMER
 40
0.0000000116
  9
$USRTIMER
 70
     1
  9
$ANGBASE
 50
0.0
  9
$ANGDIR
 70
     0
  9
$PDMODE
 70
     0
  9
$PDSIZE
 40
-1.0
  9
$PLINEWID
 40
0.0
  9
$SPLFRAME
 70
     0
  9
$SPLINETYPE
 70
     6
  9
$SPLINESEGS
 70
     8
  9
$HANDSEED
  5
1CA
  9
$SURFTAB1
 70
     6
  9
$SURFTAB2
 70
     6
  9
$SURFTYPE
 70
     6
  9
$SURFU
 70
     6
  9
$SURFV
 70
     6
  9
$UCSBASE
  2

  9
$UCSNAME
  2

  9
$UCSORG
 10
0.0
 20
0.0
 30
0.0
  9
$UCSXDIR
 10
1.0
 20
0.0
 30
0.0
  9
$UCSYDIR
 10
0.0
 20
1.0
 30
0.0
  9
$UCSORTHOREF
  2

  9
$UCSORTHOVIEW
 70
     0
  9
$UCSORGTOP
 10
0.0
 20
0.0
 30
0.0
  9
$UCSORGBOTTOM
 10
0.0
 20
0.0
 30
0.0
  9
$UCSORGLEFT
 10
0.0
 20
0.0
 30
0.0
  9
$UCSORGRIGHT
 10
0.0
 20
0.0
 30
0.0
  9
$UCSORGFRONT
 10
0.0
 20
0.0
 30
0.0
  9
$UCSORGBACK
 10
0.0
 20
0.0
 30
0.0
  9
$PUCSBASE
  2

  9
$PUCSNAME
  2

  9
$PUCSORG
 10
0.0
 20
0.0
 30
0.0
  9
$PUCSXDIR
 10
1.0
 20
0.0
 30
0.0
  9
$PUCSYDIR
 10
0.0
 20
1.0
 30
0.0
  9
$PUCSORTHOREF
  2

  9
$PUCSORTHOVIEW
 70
     0
  9
$PUCSORGTOP
 10
0.0
 20
0.0
 30
0.0
  9
$PUCSORGBOTTOM
 10
0.0
 20
0.0
 30
0.0
  9
$PUCSORGLEFT
 10
0.0
 20
0.0
 30
0.0
  9
$PUCSORGRIGHT
 10
0.0
 20
0.0
 30
0.0
  9
$PUCSORGFRONT
 10
0.0
 20
0.0
 30
0.0
  9
$PUCSORGBACK
 10
0.0
 20
0.0
 30
0.0
  9
$USERI1
 70
     0
  9
$USERI2
 70
     0
  9
$USERI3
 70
     0
  9
$USERI4
 70
     0
  9
$USERI5
 70
     0
  9
$USERR1
 40
0.0
  9
$USERR2
 40
0.0
  9
$USERR3
 40
0.0
  9
$USERR4
 40
0.0
  9
$USERR5
 40
0.0
  9
$WORLDVIEW
 70
     1
  9
$SHADEDGE
 70
     3
  9
$SHADEDIF
 70
    70
  9
$TILEMODE
 70
     1
  9
$MAXACTVP
 70
    64
  9
$PINSBASE
 10
0.0
 20
0.0
 30
0.0
  9
$PLIMCHECK
 70
     0
  9
$PEXTMIN
 10
1.0000000000E+20
 20
1.0000000000E+20
 30
1.0000000000E+20
  9
$PEXTMAX
 10
-1.0000000000E+20
 20
-1.0000000000E+20
 30
-1.0000000000E+20
  9
$PLIMMIN
 10
0.0
 20
0.0
  9
$PLIMMAX
 10
420.0
 20
297.0
  9
$UNITMODE
 70
     0
  9
$VISRETAIN
 70
     1
  9
$PLINEGEN
 70
     0
  9
$PSLTSCALE
 70
     1
  9
$TREEDEPTH
 70
  3020
  9
$CMLSTYLE
  2
Standard
  9
$CMLJUST
 70
     0
  9
$CMLSCALE
 40
20.0
  9
$PROXYGRAPHICS
 70
     1
  9
$MEASUREMENT
 70
     1
  9
$CELWEIGHT
370
    -1
  9
$ENDCAPS
280
     0
  9
$JOINSTYLE
280
     0
  9
$LWDISPLAY
290
     1
  9
$INSUNITS
 70
     4
  9
$HYPERLINKBASE
  1

  9
$STYLESHEET
  1

  9
$XEDIT
290
     1
  9
$CEPSNTYPE
380
     0
  9
$PSTYLEMODE
290
     1
  9
$FINGERPRINTGUID
  2
{3a11d653-a1da-47f4-a6d2-029ad1deef4f}
  9
$VERSIONGUID
  2
{FAEB1C32-E019-11D5-929B-00C0DF256EC4}
  9
$EXTNAMES
290
     1
  9
$PSVPSCALE
 40
0.0
  9
$OLESTARTUP
290
     0
  0
ENDSEC
  0
SECTION
  2
CLASSES
  0
CLASS
  1
ACDBDICTIONARYWDFLT
  2
AcDbDictionaryWithDefault
  3
ObjectDBX Classes
 90
        0
280
     0
281
     0
  0
CLASS
  1
VISUALSTYLE
  2
AcDbVisualStyle
  3
ObjectDBX Classes
 90
     4095
280
     0
281
     0
  0
CLASS
  1
MATERIAL
  2
AcDbMaterial
  3
ObjectDBX Classes
 90
     1153
280
     0
281
     0
  0
CLASS
  1
SCALE
  2
AcDbScale
  3
ObjectDBX Classes
 90
     1153
280
     0
281
     0
  0
CLASS
  1
TABLESTYLE
  2
AcDbTableStyle
  3
ObjectDBX Classes
 90
     4095
280
     0
281
     0
  0
CLASS
  1
MLEADERSTYLE
  2
AcDbMLeaderStyle
  3
ACDB_MLEADERSTYLE_CLASS
 90
     4095
280
     0
281
     0
  0
CLASS
  1
SUN
  2
AcDbSun
  3
SCENEOE
 90
     1153
280
     0
281
     0
  0
CLASS
  1
ACDBPLACEHOLDER
  2
AcDbPlaceHolder
  3
ObjectDBX Classes
 90
        0
280
     0
281
     0
  0
CLASS
  1
LAYOUT
  2
AcDbLayout
  3
ObjectDBX Classes
 90
        0
280
     0
281
     0
  0
ENDSEC
  0
SECTION
  2
TABLES
  0
TABLE
  2
VPORT
  5
8
330
0
100
AcDbSymbolTable
 70
     1
  0
VPORT
  5
29
330
8
100
AcDbSymbolTableRecord
100
AcDbViewportTableRecord
  2
*Active
 70
     0
 10
0.0
 20
0.0
 11
1.0
 21
1.0
 12
-144.0480132425
 22
-359.3070346476
 13
0.0
 23
0.0
 14
10.0
 24
10.0
 15
10.0
 25
10.0
 16
0.0
 26
0.0
 36
1.0
 17
0.0
 27
0.0
 37
0.0
 40
434.52
 41
0.70657277
 42
50.0
 43
0.0
 44
0.0
 50
0.0
 51
0.0
 71
     0
 72
   100
 73
     1
 74
     3
 75
     0
 76
     0
 77
     0
 78
     0
281
     0
 65
     1
110
0.0
120
0.0
130
0.0
111
1.0
121
0.0
131
0.0
112
0.0
122
1.0
132
0.0
 79
     0
146
0.0
  0
ENDTAB
  0
TABLE
  2
LTYPE
  5
5
330
0
100
AcDbSymbolTable
 70
     6
  0
LTYPE
  5
14
330
5
100
AcDbSymbolTableRecord
100
AcDbLinetypeTableRecord
  2
ByBlock
 70
     0
  3

 72
    65
 73
     0
 40
0.0
  0
LTYPE
  5
15
330
5
100
AcDbSymbolTableRecord
100
AcDbLinetypeTableRecord
  2
ByLayer
 70
     0
  3

 72
    65
 73
     0
 40
0.0
  0
LTYPE
  5
16
330
5
100
AcDbSymbolTableRecord
100
AcDbLinetypeTableRecord
  2
Continuous
 70
     0
  3
Solid line
 72
    65
 73
     0
 40
0.0
  0
LTYPE
  5
5E
330
5
100
AcDbSymbolTableRecord
100
AcDbLinetypeTableRecord
  2
HIDDEN
 70
     0
  3
Hidden __ __ __ __ __ __ __ __ __ __ __ __ __ __
 72
    65
 73
     2
 40
1.905
 49
1.27
 74
     0
 49
-0.635
 74
     0
  0
LTYPE
  5
5F
330
5
100
AcDbSymbolTableRecord
100
AcDbLinetypeTableRecord
  2
PHANTOM
 70
     0
  3
Phantom ______  __  __  ______  __  __  ______
 72
    65
 73
     6
 40
12.7
 49
6.35
 74
     0
 49
-1.27
 74
     0
 49
1.27
 74
     0
 49
-1.27
 74
     0
 49
1.27
 74
     0
 49
-1.27
 74
     0
  0
LTYPE
  5
60
330
5
100
AcDbSymbolTableRecord
100
AcDbLinetypeTableRecord
  2
CENTER
 70
     0
  3
Center ____ _ ____ _ ____ _ ____ _ ____ _ ____
 72
    65
 73
     4
 40
10.16
 49
6.35
 74
     0
 49
-1.27
 74
     0
 49
1.27
 74
     0
 49
-1.27
 74
     0
  0
LTYPE
  5
61
330
5
100
AcDbSymbolTableRecord
100
AcDbLinetypeTableRecord
  2
CENTERX2
 70
     0
  3
Center (2x) ________  __  ________  __  _____
 72
    65
 73
     4
 40
20.32
 49
12.7
 74
     0
 49
-2.54
 74
     0
 49
2.54
 74
     0
 49
-2.54
 74
     0
  0
LTYPE
  5
62
330
5
100
AcDbSymbolTableRecord
100
AcDbLinetypeTableRecord
  2
DOT2
 70
     0
  3
Dot (.5x) ........................................
 72
    65
 73
     2
 40
0.635
 49
0.0
 74
     0
 49
-0.635
 74
     0
  0
ENDTAB
  0
TABLE
  2
LAYER
  5
2
330
0
100
AcDbSymbolTable
 70
     1
  0
LAYER
  5
10
330
2
100
AcDbSymbolTableRecord
100
AcDbLayerTableRecord
  2
0
 70
     0
 62
     7
  6
Continuous
370
    -3
390
F
  0
ENDTAB
  0
TABLE
  2
STYLE
  5
3
330
0
100
AcDbSymbolTable
 70
     1
  0
STYLE
  5
11
330
3
100
AcDbSymbolTableRecord
100
AcDbTextStyleTableRecord
  2
Standard
 70
     0
 40
0.0
 41
1.0
 50
0.0
 71
     0
 42
3.5
  3
txt
  4

  0
ENDTAB
  0
TABLE
  2
VIEW
  5
6
330
0
100
AcDbSymbolTable
 70
     0
  0
ENDTAB
  0
TABLE
  2
UCS
  5
7
330
0
100
AcDbSymbolTable
 70
     0
  0
ENDTAB
  0
TABLE
  2
APPID
  5
9
330
0
100
AcDbSymbolTable
 70
     1
  0
APPID
  5
12
330
9
100
AcDbSymbolTableRecord
100
AcDbRegAppTableRecord
  2
ACAD
 70
     0
  0
ENDTAB
  0
TABLE
  2
DIMSTYLE
  5
A
330
0
100
AcDbSymbolTable
 70
     1
100
AcDbDimStyleTable
  0
DIMSTYLE
105
27
330
A
100
AcDbSymbolTableRecord
100
AcDbDimStyleTableRecord
  2
ISO-25
 70
     0
 41
2.5
 42
0.625
 43
3.75
 44
1.25
 73
     0
 74
     0
 77
     1
 78
     8
140
2.5
141
2.5
143
0.0393700787
147
0.625
171
     3
172
     1
178
     0
271
     2
272
     2
274
     3
278
    44
283
     0
284
     8
340
11
  0
ENDTAB
  0
TABLE
  2
BLOCK_RECORD
  5
1
330
0
100
AcDbSymbolTable
 70
     1
  0
BLOCK_RECORD
  5
1F
330
1
100
AcDbSymbolTableRecord
100
AcDbBlockTableRecord
  2
*Model_Space
340
22
  0
BLOCK_RECORD
  5
1B
330
1
100
AcDbSymbolTableRecord
100
AcDbBlockTableRecord
  2
*Paper_Space
340
1E
  0
BLOCK_RECORD
  5
23
330
1
100
AcDbSymbolTableRecord
100
AcDbBlockTableRecord
  2
*Paper_Space0
340
26
  0
ENDTAB
  0
ENDSEC
  0
SECTION
  2
BLOCKS
  0
BLOCK
  5
20
330
1F
100
AcDbEntity
  8
0
100
AcDbBlockBegin
  2
*Model_Space
 70
     0
 10
0.0
 20
0.0
 30
0.0
  3
*Model_Space
  1

  0
ENDBLK
  5
21
330
1F
100
AcDbEntity
  8
0
100
AcDbBlockEnd
  0
BLOCK
  5
1C
330
1B
100
AcDbEntity
 67
     1
  8
0
100
AcDbBlockBegin
  2
*Paper_Space
 70
     0
 10
0.0
 20
0.0
 30
0.0
  3
*Paper_Space
  1

  0
ENDBLK
  5
1D
330
1B
100
AcDbEntity
 67
     1
  8
0
100
AcDbBlockEnd
  0
BLOCK
  5
24
330
23
100
AcDbEntity
  8
0
100
AcDbBlockBegin
  2
*Paper_Space0
 70
     0
 10
0.0
 20
0.0
 30
0.0
  3
*Paper_Space0
  1

  0
ENDBLK
  5
25
330
23
100
AcDbEntity
  8
0
100
AcDbBlockEnd
  0
ENDSEC
  0
SECTION
  2
ENTITIES
  0
SPLINE
  5
63
330
1F
100
AcDbEntity
  8
0
  6
Continuous
 62
     7
370
    25
100
AcDbSpline
210
0.0
220
0.0
230
1.0
 70
     8
 71
     3
 72
    22
 73
    18
 74
     0
 42
0.00000001
 43
0.00000001
 40
0.0
 40
0.0
 40
0.0
 40
0.0
 40
0.0699093016454719
 40
0.1336193661480002
 40
0.194593505886148
 40
0.2552557304854041
 40
0.3376361750933236
 40
0.421986894595071
 40
0.5068785054119281
 40
0.590205740968941
 40
0.6701792646520122
 40
0.7464794266307918
 40
0.7915218481184954
 40
0.8374267251560231
 40
0.8860108415417302
 40
0.9394442524414629
 40
1.0
 40
1.0
 40
1.0
 40
1.0
 10
-156.5286844491663
 20
-541.2423655105266
 30
0.0
 10
-157.9734054572775
 20
-540.3549154070026
 30
0.0
 10
-160.7347362218658
 20
-538.6587102164231
 30
0.0
 10
-163.9913102100264
 20
-535.195869343511
 30
0.0
 10
-166.3674615975089
 20
-531.3733319115128
 30
0.0
 10
-168.1836012719912
 20
-526.7673060100202
 30
0.0
 10
-169.3801658076896
 20
-521.3857426571891
 30
0.0
 10
-170.0690503476862
 20
-515.3414672481341
 30
0.0
 10
-170.5106990544299
 20
-509.2557275260497
 30
0.0
 10
-171.0535037085633
 20
-503.281798364547
 30
0.0
 10
-172.0490786171908
 20
-497.5681007456391
 30
0.0
 10
-173.6594994214956
 20
-492.9366348221939
 30
0.0
 10
-175.739619576623
 20
-489.4513216445808
 30
0.0
 10
-177.9669003358829
 20
-486.893311214529
 30
0.0
 10
-180.8032268466588
 20
-484.6877403819025
 30
0.0
 10
-184.3027684840948
 20
-482.8466753645007
 30
0.0
 10
-186.948744379
 20
-482.063314261523
 30
0.0
 10
-188.3543960260952
 20
-481.6471604988261
 30
0.0
  0
SPLINE
  5
64
330
1F
100
AcDbEntity
  8
0
  6
Continuous
 62
     7
370
    25
100
AcDbSpline
210
0.0
220
0.0
230
1.0
 70
     8
 71
     3
 72
    23
 73
    19
 74
     0
 42
0.00000001
 43
0.00000001
 40
0.0
 40
0.0
 40
0.0
 40
0.0
 40
0.0698651594446926
 40
0.1379745548114042
 40
0.2065245627954157
 40
0.2762128412917773
 40
0.3466856062247488
 40
0.4170078584131007
 40
0.4860724886754539
 40
0.5447664646910939
 40
0.601625725554692
 40
0.6571506311414241
 40
0.7128305030091932
 40
0.7592466492148638
 40
0.8092042265016454
 40
0.8646772176232528
 40
0.9276500345781311
 40
1.0
 40
1.0
 40
1.0
 40
1.0
 10
-188.3543960260952
 20
-481.6471604988261
 30
0.0
 10
-187.3129901112241
 20
-483.0382026275386
 30
0.0
 10
-185.2563495964901
 20
-485.785328948562
 30
0.0
 10
-183.3515099143369
 20
-490.5864664257027
 30
0.0
 10
-182.1663193780121
 20
-495.5659577336679
 30
0.0
 10
-181.5358064217968
 20
-500.7060897890051
 30
0.0
 10
-181.214449949665
 20
-505.9107537833784
 30
0.0
 10
-180.9932634314287
 20
-511.1046976988616
 30
0.0
 10
-180.672233704656
 20
-516.0027210419287
 30
0.0
 10
-180.0808276812127
 20
-520.5423845691267
 30
0.0
 10
-179.1149393514252
 20
-524.6794405629388
 30
0.0
 10
-177.5859609325958
 20
-528.5725835594343
 30
0.0
 10
-175.4806152231898
 20
-531.8955847539165
 30
0.0
 10
-172.8677300593799
 20
-534.6354061987237
 30
0.0
 10
-169.8176945937827
 20
-536.8698487615264
 30
0.0
 10
-166.0777982081779
 20
-538.7517617728721
 30
0.0
 10
-161.5889689722639
 20
-540.2860851161488
 30
0.0
 10
-158.2916091186369
 20
-540.9092122480007
 30
0.0
 10
-156.5286844491663
 20
-541.2423655105266
 30
0.0
  0
SPLINE
  5
65
330
1F
100
AcDbEntity
  8
0
  6
Continuous
 62
     7
370
    25
100
AcDbSpline
210
0.0
220
0.0
230
1.0
 70
     8
 71
     3
 72
    22
 73
    18
 74
     0
 42
0.00000001
 43
0.00000001
 40
0.0
 40
0.0
 40
0.0
 40
0.0
 40
0.0699093016454722
 40
0.1336193661480009
 40
0.1945935058861486
 40
0.2552557304854043
 40
0.3376361750933241
 40
0.421986894595071
 40
0.5068785054119275
 40
0.5902057409689404
 40
0.6701792646520126
 40
0.7464794266307917
 40
0.7915218481184951
 40
0.8374267251560238
 40
0.8860108415417298
 40
0.9394442524414625
 40
1.0
 40
1.0
 40
1.0
 40
1.0
 10
-89.00075274048471
 20
-510.3159281152786
 30
0.0
 10
-90.29121128796481
 20
-511.4157022806226
 30
0.0
 10
-92.75769642078734
 20
-513.5177276680947
 30
0.0
 10
-97.05739050364473
 20
-515.5448369017856
 30
0.0
 10
-101.4271107970685
 20
-516.6234621344329
 30
0.0
 10
-106.3689197684811
 20
-516.927373326259
 30
0.0
 10
-111.8568494394432
 20
-516.4023792927724
 30
0.0
 10
-117.8181739835285
 20
-515.1897636034307
 30
0.0
 10
-123.7425333586208
 20
-513.7291994864256
 30
0.0
 10
-129.5918134783066
 20
-512.399391755718
 30
0.0
 10
-135.3335123968484
 20
-511.580610095066
 30
0.0
 10
-140.235945639965
 20
-511.6810096157641
 30
0.0
 10
-144.1934679271395
 20
-512.5823004413736
 30
0.0
 10
-147.3145480212468
 20
-513.9101016264121
 30
0.0
 10
-150.2886436271927
 20
-515.9260495672471
 30
0.0
 10
-153.1210183474065
 20
-518.6853910674502
 30
0.0
 10
-154.6836905472375
 20
-520.9597917907072
 30
0.0
 10
-155.5138465421548
 20
-522.1680473643718
 30
0.0
  0
SPLINE
  5
66
330
1F
100
AcDbEntity
  8
0
  6
Continuous
 62
     7
370
    25
100
AcDbSpline
210
0.0
220
0.0
230
1.0
 70
     8
 71
     3
 72
    23
 73
    19
 74
     0
 42
0.00000001
 43
0.00000001
 40
0.0
 40
0.0
 40
0.0
 40
0.0
 40
0.0698651594446926
 40
0.1379745548114042
 40
0.2065245627954157
 40
0.2762128412917773
 40
0.3466856062247486
 40
0.4170078584131001
 40
0.4860724886754537
 40
0.5447664646910929
 40
0.6016257255546917
 40
0.657150631141424
 40
0.7128305030091919
 40
0.7592466492148625
 40
0.8092042265016457
 40
0.8646772176232526
 40
0.9276500345781312
 40
1.0
 40
1.0
 40
1.0
 40
1.0
 10
-155.5138465421548
 20
-522.1680473643718
 30
0.0
 10
-153.8690747354639
 20
-521.6074671405888
 30
0.0
 10
-150.6208654763957
 20
-520.5003944962652
 30
0.0
 10
-145.4660845597874
 20
-520.1724173768234
 30
0.0
 10
-140.364062886215
 20
-520.5839816317039
 30
0.0
 10
-135.2806675817251
 20
-521.572716334517
 30
0.0
 10
-130.2314333636083
 20
-522.8754177919157
 30
0.0
 10
-125.2233487644549
 20
-524.2700738501447
 30
0.0
 10
-120.4658481057929
 20
-525.4783288884264
 30
0.0
 10
-115.965617014644
 20
-526.3187015147029
 30
0.0
 10
-111.7325670448785
 20
-526.6785077334138
 30
0.0
 10
-107.5574877137416
 20
-526.4274101923604
 30
0.0
 10
-103.746538170832
 20
-525.451971277799
 30
0.0
 10
-100.3333872122956
 20
-523.8136212044247
 30
0.0
 10
-97.26579326033884
 20
-521.6033458247983
 30
0.0
 10
-94.32029608744453
 20
-518.6280360994409
 30
0.0
 10
-91.4739433549726
 20
-514.8330377920279
 30
0.0
 10
-89.86237400440427
 20
-511.889619090064
 30
0.0
 10
-89.00075274048471
 20
-510.3159281152786
 30
0.0
  0
SPLINE
  5
67
330
1F
100
AcDbEntity
  8
0
  6
Continuous
 62
     7
370
    25
100
AcDbSpline
210
0.0
220
0.0
230
1.0
 70
     8
 71
     3
 72
    22
 73
    18
 74
     0
 42
0.00000001
 43
0.00000001
 40
0.0
 40
0.0
 40
0.0
 40
0.0
 40
0.0699093016454714
 40
0.1336193661480009
 40
0.1945935058861485
 40
0.2552557304854042
 40
0.3376361750933241
 40
0.4219868945950707
 40
0.5068785054119277
 40
0.5902057409689405
 40
0.6701792646520128
 40
0.7464794266307919
 40
0.7915218481184954
 40
0.8374267251560237
 40
0.8860108415417298
 40
0.9394442524414628
 40
1.0
 40
1.0
 40
1.0
 40
1.0
 10
-97.54626405805575
 20
-436.5362539011977
 30
0.0
 10
-96.89909029336002
 20
-438.1034018188532
 30
0.0
 10
-95.6621311736023
 20
-441.0987301441054
 30
0.0
 10
-95.06291426987453
 20
-445.8143934223478
 30
0.0
 10
-95.38739854505822
 20
-450.3035579092455
 30
0.0
 10
-96.62546478081784
 20
-455.0974112568477
 30
0.0
 10
-98.82062730964331
 20
-460.1545104530934
 30
0.0
 10
-101.8160439558603
 20
-465.4493481508433
 30
0.0
 10
-105.0358507044929
 20
-470.6324096058707
 30
0.0
 10
-108.1080999740444
 20
-475.7844723912935
 30
0.0
 10
-110.6610901502442
 20
-480.9921351145535
 30
0.0
 10
-112.0805397177629
 20
-485.6856513542444
 30
0.0
 10
-112.4463028473445
 20
-489.7279928958325
 30
0.0
 10
-112.1479556678539
 20
-493.1066295885407
 30
0.0
 10
-111.1497213273441
 20
-496.5581247681532
 30
0.0
 10
-109.4006835358764
 20
-500.1045566192493
 30
0.0
 10
-107.7204921737413
 20
-502.293574673237
 30
0.0
 10
-106.8279051474695
 20
-503.456471447555
 30
0.0
  0
SPLINE
  5
68
330
1F
100
AcDbEntity
  8
0
  6
Continuous
 62
     7
370
    25
100
AcDbSpline
210
0.0
220
0.0
230
1.0
 70
     8
 71
     3
 72
    23
 73
    19
 74
     0
 42
0.00000001
 43
0.00000001
 40
0.0
 40
0.0
 40
0.0
 40
0.0
 40
0.0698651594446925
 40
0.1379745548114038
 40
0.2065245627954158
 40
0.2762128412917776
 40
0.346685606224749
 40
0.4170078584131002
 40
0.4860724886754536
 40
0.5447664646910931
 40
0.6016257255546923
 40
0.6571506311414245
 40
0.7128305030091919
 40
0.7592466492148631
 40
0.8092042265016457
 40
0.8646772176232523
 40
0.9276500345781317
 40
1.0
 40
1.0
 40
1.0
 40
1.0
 10
-106.8279051474695
 20
-503.456471447555
 30
0.0
 10
-106.8527861820681
 20
-501.7189716871238
 30
0.0
 10
-106.9019229721258
 20
-498.2876368438932
 30
0.0
 10
-105.6209328432554
 20
-493.2837983594047
 30
0.0
 10
-103.652900573974
 20
-488.5586677495105
 30
0.0
 10
-101.141702453763
 20
-484.0296073463684
 30
0.0
 10
-98.34246056193928
 20
-479.6300571298612
 30
0.0
 10
-95.46848057936401
 20
-475.2980580609798
 30
0.0
 10
-92.84921319758344
 20
-471.146777398649
 30
0.0
 10
-90.65932344946772
 20
-467.1264927177047
 30
0.0
 10
-89.00904302186329
 20
-463.2118091964197
 30
0.0
 10
-87.95768050832295
 20
-459.1634793850612
 30
0.0
 10
-87.7077298707999
 20
-455.2376237874311
 30
0.0
 10
-88.21117173350002
 20
-451.4852463118079
 30
0.0
 10
-89.36532987310417
 20
-447.8847784398988
 30
0.0
 10
-91.2848088920938
 20
-444.1640228912242
 30
0.0
 10
-94.01449539536885
 20
-440.2842616067173
 30
0.0
 10
-96.31585061511706
 20
-437.8420016739299
 30
0.0
 10
-97.54626405805575
 20
-436.5362539011977
 30
0.0
  0
SPLINE
  5
69
330
1F
100
AcDbEntity
  8
0
  6
Continuous
 62
     7
370
    25
100
AcDbSpline
210
0.0
220
0.0
230
1.0
 70
     8
 71
     3
 72
    22
 73
    18
 74
     0
 42
0.00000001
 43
0.00000001
 40
0.0
 40
0.0
 40
0.0
 40
0.0
 40
0.0699093016454718
 40
0.1336193661480009
 40
0.1945935058861483
 40
0.2552557304854042
 40
0.3376361750933247
 40
0.4219868945950712
 40
0.5068785054119277
 40
0.5902057409689405
 40
0.6701792646520126
 40
0.7464794266307919
 40
0.7915218481184948
 40
0.8374267251560236
 40
0.88601084154173
 40
0.9394442524414627
 40
1.0
 40
1.0
 40
1.0
 40
1.0
 10
-206.8087527526852
 20
-486.5762807576551
 30
0.0
 10
-206.4111808924789
 20
-484.9280322650138
 30
0.0
 10
-205.6512920263527
 20
-481.7776944178697
 30
0.0
 10
-203.3642713550573
 20
-477.6104318270861
 30
0.0
 10
-200.4630933815129
 20
-474.1693485381954
 30
0.0
 10
-196.6437204572476
 20
-471.0187567861846
 30
0.0
 10
-191.8953083390798
 20
-468.2177617550105
 30
0.0
 10
-186.3597378550367
 20
-465.6948098041913
 30
0.0
 10
-180.7083323917995
 20
-463.3941799262628
 30
0.0
 10
-175.1945239976198
 20
-461.0318963887774
 30
0.0
 10
-170.0681242109563
 20
-458.3194187195051
 30
0.0
 10
-166.16098576109
 20
-455.3566158403804
 30
0.0
 10
-163.4890484304681
 20
-452.3012830095685
 30
0.0
 10
-161.7445035480718
 20
-449.3925444351811
 30
0.0
 10
-160.523354128978
 20
-446.0134787551878
 30
0.0
 10
-159.8538150857451
 20
-442.1162964987317
 30
0.0
 10
-159.9264459223784
 20
-439.3577519883698
 30
0.0
 10
-159.9650304217082
 20
-437.8922992448124
 30
0.0
  0
SPLINE
  5
6A
330
1F
100
AcDbEntity
  8
0
  6
Continuous
 62
     7
370
    25
100
AcDbSpline
210
0.0
220
0.0
230
1.0
 70
     8
 71
     3
 72
    23
 73
    19
 74
     0
 42
0.00000001
 43
0.00000001
 40
0.0
 40
0.0
 40
0.0
 40
0.0
 40
0.0698651594446924
 40
0.1379745548114037
 40
0.2065245627954155
 40
0.2762128412917772
 40
0.3466856062247487
 40
0.4170078584131002
 40
0.4860724886754537
 40
0.544766464691093
 40
0.6016257255546918
 40
0.6571506311414247
 40
0.7128305030091919
 40
0.7592466492148634
 40
0.809204226501646
 40
0.8646772176232527
 40
0.9276500345781312
 40
1.0
 40
1.0
 40
1.0
 40
1.0
 10
-159.9650304217082
 20
-437.8922992448124
 30
0.0
 10
-160.9661779769235
 20
-439.3125907839225
 30
0.0
 10
-162.943313495246
 20
-442.1174808660278
 30
0.0
 10
-166.9208387451643
 20
-445.4127241310041
 30
0.0
 10
-171.2903723841431
 20
-448.0786547511307
 30
0.0
 10
-175.9840892513448
 20
-450.2666963651786
 30
0.0
 10
-180.8347142471795
 20
-452.1806541563257
 30
0.0
 10
-185.7060980602095
 20
-453.9960319735258
 30
0.0
 10
-190.265191436327
 20
-455.81492183895
 30
0.0
 10
-194.3999135038366
 20
-457.7802155699708
 30
0.0
 10
-198.0360116564566
 20
-459.9772505687967
 30
0.0
 10
-201.2661303566917
 20
-462.6344428047485
 30
0.0
 10
-203.7759046931198
 20
-465.6636094021562
 30
0.0
 10
-205.5742038117212
 20
-468.9952622515267
 30
0.0
 10
-206.7567721790464
 20
-472.5864990808752
 30
0.0
 10
-207.3908862712339
 20
-476.7248950111144
 30
0.0
 10
-207.4629899662167
 20
-481.4681572944054
 30
0.0
 10
-207.0366788541042
 20
-484.7966897431656
 30
0.0
 10
-206.8087527526852
 20
-486.5762807576551
 30
0.0
  0
SPLINE
  5
6B
330
1F
100
AcDbEntity
  8
0
  6
Continuous
 62
     7
370
    25
100
AcDbSpline
210
0.0
220
0.0
230
1.0
 70
     8
 71
     3
 72
    22
 73
    18
 74
     0
 42
0.00000001
 43
0.00000001
 40
0.0
 40
0.0
 40
0.0
 40
0.0
 40
0.0699093016454716
 40
0.1336193661480009
 40
0.1945935058861482
 40
0.2552557304854038
 40
0.3376361750933239
 40
0.421986894595071
 40
0.5068785054119274
 40
0.5902057409689401
 40
0.6701792646520126
 40
0.7464794266307916
 40
0.791521848118495
 40
0.8374267251560235
 40
0.8860108415417298
 40
0.9394442524414628
 40
1.0
 40
1.0
 40
1.0
 40
1.0
 10
-170.3556122122439
 20
-421.8643449532497
 30
0.0
 10
-168.6651782815547
 20
-421.7331214664154
 30
0.0
 10
-165.4342103700278
 20
-421.4823107914149
 30
0.0
 10
-160.7641798740331
 20
-422.3696417431769
 30
0.0
 10
-156.5950018914877
 20
-424.0654727445215
 30
0.0
 10
-152.4183599340983
 20
-426.7243258585963
 30
0.0
 10
-148.2871153167804
 20
-430.3747790798423
 30
0.0
 10
-144.1770600705244
 20
-434.8597844313077
 30
0.0
 10
-140.2426507032933
 20
-439.5236566932991
 30
0.0
 10
-136.2921250541023
 20
-444.0376143375714
 30
0.0
 10
-132.1282608373967
 20
-448.0749085631441
 30
0.0
 10
-128.1030956723229
 20
-450.8752616053244
 30
0.0
 10
-124.3716274310615
 20
-452.4722752465519
 30
0.0
 10
-121.0661586395811
 20
-453.2325863732447
 30
0.0
 10
-117.475120282463
 20
-453.3497797654168
 30
0.0
 10
-113.5617807595141
 20
-452.7822536879761
 30
0.0
 10
-110.9606931902795
 20
-451.8607405240705
 30
0.0
 10
-109.578888075209
 20
-451.3711946823422
 30
0.0
  0
SPLINE
  5
6C
330
1F
100
AcDbEntity
  8
0
  6
Continuous
 62
     7
370
    25
100
AcDbSpline
210
0.0
220
0.0
230
1.0
 70
     8
 71
     3
 72
    23
 73
    19
 74
     0
 42
0.00000001
 43
0.00000001
 40
0.0
 40
0.0
 40
0.0
 40
0.0
 40
0.0698651594446924
 40
0.1379745548114042
 40
0.206524562795416
 40
0.2762128412917772
 40
0.3466856062247488
 40
0.4170078584131006
 40
0.4860724886754538
 40
0.5447664646910936
 40
0.601625725554692
 40
0.6571506311414245
 40
0.7128305030091922
 40
0.7592466492148631
 40
0.8092042265016457
 40
0.8646772176232526
 40
0.9276500345781314
 40
1.0
 40
1.0
 40
1.0
 40
1.0
 10
-109.578888075209
 20
-451.3711946823422
 30
0.0
 10
-111.2390372069571
 20
-450.8579409987337
 30
0.0
 10
-114.5176146723789
 20
-449.8443320831586
 30
0.0
 10
-118.8807001500926
 20
-447.0797669449727
 30
0.0
 10
-122.7664109902922
 20
-443.7479113718947
 30
0.0
 10
-126.297800504007
 20
-439.9600634028385
 30
0.0
 10
-129.6170080902442
 20
-435.9382903764264
 30
0.0
 10
-132.8488753771793
 20
-431.8663116543958
 30
0.0
 10
-135.9875797682769
 20
-428.0924240699533
 30
0.0
 10
-139.1343845634754
 20
-424.7673788664032
 30
0.0
 10
-142.3475051380127
 20
-421.9881651763388
 30
0.0
 10
-145.8728067012841
 20
-419.7372572963036
 30
0.0
 10
-149.5292782546948
 20
-418.2863840166052
 30
0.0
 10
-153.2535733957394
 20
-417.6056372714249
 30
0.0
 10
-157.0344763063639
 20
-417.5907011308092
 30
0.0
 10
-161.1662767536861
 20
-418.2664574632559
 30
0.0
 10
-165.6996685238138
 20
-419.6636314286083
 30
0.0
 10
-168.7335536203735
 20
-421.0976504827472
 30
0.0
 10
-170.3556122122439
 20
-421.8643449532497
 30
0.0
  0
SPLINE
  5
89
330
1F
100
AcDbEntity
  8
0
  6
Continuous
 62
     7
370
    25
100
AcDbSpline
210
0.0
220
0.0
230
1.0
 70
     8
 71
     3
 72
     9
 73
     5
 74
     0
 42
0.00000001
 43
0.00000001
 40
0.0
 40
0.0
 40
0.0
 40
0.0
 40
0.5599996985095933
 40
1.0
 40
1.0
 40
1.0
 40
1.0
 10
-56.19922797351518
 20
-486.7773762645614
 30
0.0
 10
-56.3715794040581
 20
-486.6804070145665
 30
0.0
 10
-56.67934998143809
 20
-486.5072475463504
 30
0.0
 10
-56.9882595888149
 20
-486.336128974304
 30
0.0
 10
-57.12417990919397
 20
-486.260836751013
 30
0.0
  0
SPLINE
  5
B7
330
1F
100
AcDbEntity
  8
0
  6
Continuous
 62
     7
370
    25
100
AcDbSpline
210
0.0
220
0.0
230
1.0
 70
     8
 71
     3
 72
     9
 73
     5
 74
     0
 42
0.00000001
 43
0.00000001
 40
0.0
 40
0.0
 40
0.0
 40
0.0
 40
0.5599998276532069
 40
1.0
 40
1.0
 40
1.0
 40
1.0
 10
-236.1210124512521
 20
-474.3017153449503
 30
0.0
 10
-235.9488679077751
 20
-474.3982628041858
 30
0.0
 10
-235.6414668426742
 20
-474.5706690344522
 30
0.0
 10
-235.3332137263672
 20
-474.7415468178578
 30
0.0
 10
-235.1975823020657
 20
-474.8167330720065
 30
0.0
  0
CIRCLE
  5
E2
330
1F
100
AcDbEntity
  8
0
  6
Continuous
 62
     7
370
    25
100
AcDbCircle
 10
-264.8480132425
 20
-361.3070346476
 30
0.0
 40
2.500000000000057
  0
CIRCLE
  5
E3
330
1F
100
AcDbEntity
  8
0
  6
Continuous
 62
     7
370
    25
100
AcDbCircle
 10
-264.8480132425
 20
-290.5070346476
 30
0.0
 40
2.499999999999943
  0
CIRCLE
  5
E4
330
1F
100
AcDbEntity
  8
0
  6
Continuous
 62
     7
370
    25
100
AcDbCircle
 10
-194.0480132425
 20
-290.5070346476
 30
0.0
 40
2.499999999999972
  0
CIRCLE
  5
E5
330
1F
100
AcDbEntity
  8
0
  6
Continuous
 62
     7
370
    25
100
AcDbCircle
 10
-194.0480132425
 20
-361.3070346476
 30
0.0
 40
2.500000000000057
  0
CIRCLE
  5
E6
330
1F
100
AcDbEntity
  8
0
  6
Continuous
 62
     7
370
    25
100
AcDbCircle
 10
-23.2480132425
 20
-361.3070346476
 30
0.0
 40
2.499999999999964
  0
CIRCLE
  5
E7
330
1F
100
AcDbEntity
  8
0
  6
Continuous
 62
     7
370
    25
100
AcDbCircle
 10
-23.2480132425
 20
-290.5070346476
 30
0.0
 40
2.499999999999979
  0
CIRCLE
  5
E8
330
1F
100
AcDbEntity
  8
0
  6
Continuous
 62
     7
370
    25
100
AcDbCircle
 10
-94.0480132425
 20
-290.5070346476
 30
0.0
 40
2.499999999999972
  0
CIRCLE
  5
E9
330
1F
100
AcDbEntity
  8
0
  6
Continuous
 62
     7
370
    25
100
AcDbCircle
 10
-94.0480132425
 20
-361.3070346476
 30
0.0
 40
2.500000000000057
  0
CIRCLE
  5
EA
330
1F
100
AcDbEntity
  8
0
  6
Continuous
 62
     7
370
    25
100
AcDbCircle
 10
-120.0480132425
 20
-337.3070346476
 30
0.0
 40
2.500000000000057
  0
CIRCLE
  5
EB
330
1F
100
AcDbEntity
  8
0
  6
Continuous
 62
     7
370
    25
100
AcDbCircle
 10
-168.0480132425
 20
-289.3070346476
 30
0.0
 40
2.499999999999972
  0
CIRCLE
  5
EC
330
1F
100
AcDbEntity
  8
0
  6
Continuous
 62
     7
370
    25
100
AcDbCircle
 10
-168.0480132425
 20
-337.3070346476
 30
0.0
 40
2.499999999999943
  0
CIRCLE
  5
ED
330
1F
100
AcDbEntity
  8
0
  6
Continuous
 62
     7
370
    25
100
AcDbCircle
 10
-120.0480132425
 20
-289.3070346476
 30
0.0
 40
2.499999999999957
  0
CIRCLE
  5
EE
330
1F
100
AcDbEntity
  8
0
  6
Continuous
 62
     7
370
    25
100
AcDbCircle
 10
-244.5480132425
 20
-296.3070346476
 30
0.0
 40
2.000000000000028
  0
CIRCLE
  5
EF
330
1F
100
AcDbEntity
  8
0
  6
Continuous
 62
     7
370
    25
100
AcDbCircle
 10
-43.5480132425
 20
-296.3070346476
 30
0.0
 40
2.000000000000043
  0
SPLINE
  5
10E
330
1F
100
AcDbEntity
  8
0
  6
Continuous
 62
     7
370
    25
100
AcDbSpline
210
0.0
220
0.0
230
1.0
 70
     8
 71
     3
 72
    20
 73
    16
 74
     0
 42
0.00000001
 43
0.00000001
 40
0.0
 40
0.0
 40
0.0
 40
0.0
 40
0.0587170804422066
 40
0.1167445557107131
 40
0.1783723001175243
 40
0.2440823275159951
 40
0.3462737657364537
 40
0.4453860732972319
 40
0.536039790251701
 40
0.6248568115920085
 40
0.7142166367237467
 40
0.8019954407661344
 40
0.8609164307575699
 40
0.9246204346942813
 40
1.0
 40
1.0
 40
1.0
 40
1.0
 10
-172.7426941147459
 20
-196.4045163696381
 30
0.0
 10
-172.3040659182466
 20
-196.8520553494215
 30
0.0
 10
-171.4319610121978
 20
-197.7418771689767
 30
0.0
 10
-169.5638459430076
 20
-198.2754606752503
 30
0.0
 10
-167.604063253821
 20
-198.2548346222454
 30
0.0
 10
-165.2433545039348
 20
-197.6687369402374
 30
0.0
 10
-162.7247397304828
 20
-196.370623774069
 30
0.0
 10
-160.3828666454279
 20
-194.3096224035068
 30
0.0
 10
-158.9966704516149
 20
-191.6566462634003
 30
0.0
 10
-158.5124052363996
 20
-188.8535745601943
 30
0.0
 10
-158.260332507407
 20
-186.0772269124721
 30
0.0
 10
-157.7903013848628
 20
-183.6192775975319
 30
0.0
 10
-156.8225172765634
 20
-181.6091913662347
 30
0.0
 10
-155.4273946772138
 20
-180.0145574384721
 30
0.0
 10
-154.1504351567162
 20
-179.2851904244683
 30
0.0
 10
-153.4583573355013
 20
-178.8898930592699
 30
0.0
  0
SPLINE
  5
10F
330
1F
100
AcDbEntity
  8
0
  6
Continuous
 62
     7
370
    25
100
AcDbSpline
210
0.0
220
0.0
230
1.0
 70
     8
 71
     3
 72
    17
 73
    13
 74
     0
 42
0.00000001
 43
0.00000001
 40
0.0
 40
0.0
 40
0.0
 40
0.0
 40
0.0984969712965707
 40
0.1819889596702106
 40
0.259930272729349
 40
0.3786374568346392
 40
0.5032980298945173
 40
0.6286695056641458
 40
0.7486346779748638
 40
0.8262804523182835
 40
0.9071729577621644
 40
0.9999999999999999
 40
0.9999999999999999
 40
0.9999999999999999
 40
0.9999999999999999
 10
-153.4583573355013
 20
-178.8898930592699
 30
0.0
 10
-154.3810122763326
 20
-178.9296318722454
 30
0.0
 10
-156.0857653322502
 20
-179.0030557058592
 30
0.0
 10
-158.3671108257326
 20
-179.9541638831642
 30
0.0
 10
-160.3960804241867
 20
-181.6421871161886
 30
0.0
 10
-162.0438484443865
 20
-184.1880013228494
 30
0.0
 10
-163.4192450992448
 20
-187.3337647441798
 30
0.0
 10
-164.7570661230509
 20
-190.5065422372793
 30
0.0
 10
-166.2848298716812
 20
-193.1326657828888
 30
0.0
 10
-168.1528198677432
 20
-194.9662658850056
 30
0.0
 10
-170.2599858449883
 20
-196.0982625614338
 30
0.0
 10
-171.8780705399683
 20
-196.2978609620478
 30
0.0
 10
-172.7426941147459
 20
-196.4045163696381
 30
0.0
  0
SPLINE
  5
110
330
1F
100
AcDbEntity
  8
0
  6
Continuous
 62
     7
370
    25
100
AcDbSpline
210
0.0
220
0.0
230
1.0
 70
     8
 71
     3
 72
    17
 73
    13
 74
     0
 42
0.00000001
 43
0.00000001
 40
0.0
 40
0.0
 40
0.0
 40
0.0
 40
0.0984969712965711
 40
0.1819889596702107
 40
0.2599302727293491
 40
0.3786374568346388
 40
0.5032980298945172
 40
0.6286695056641464
 40
0.7486346779748643
 40
0.8262804523182841
 40
0.9071729577621647
 40
0.9999999999999999
 40
0.9999999999999999
 40
0.9999999999999999
 40
0.9999999999999999
 10
-173.9971264036467
 20
-198.1499846849403
 30
0.0
 10
-174.4240390525093
 20
-198.9688967091151
 30
0.0
 10
-175.2128286753153
 20
-200.4819680795258
 30
0.0
 10
-175.5298175787632
 20
-202.9332253203433
 30
0.0
 10
-175.082431376013
 20
-205.5343761526231
 30
0.0
 10
-173.7015756098293
 20
-208.23429222099
 30
0.0
 10
-171.6649629000904
 20
-210.9983023750428
 30
0.0
 10
-169.5861675024139
 20
-213.7432781139256
 30
0.0
 10
-168.0757596727547
 20
-216.379422104025
 30
0.0
 10
-167.4218104019709
 20
-218.9139489456883
 30
0.0
 10
-167.4950555118071
 20
-221.3048065501869
 30
0.0
 10
-168.1312405738107
 20
-222.8059082018215
 30
0.0
 10
-168.4711860687754
 20
-223.6080218860849
 30
0.0
  0
SPLINE
  5
111
330
1F
100
AcDbEntity
  8
0
  6
Continuous
 62
     7
370
    25
100
AcDbSpline
210
0.0
220
0.0
230
1.0
 70
     8
 71
     3
 72
    20
 73
    16
 74
     0
 42
0.00000001
 43
0.00000001
 40
0.0
 40
0.0
 40
0.0
 40
0.0
 40
0.0587170804422067
 40
0.116744555710713
 40
0.1783723001175239
 40
0.2440823275159946
 40
0.346273765736454
 40
0.4453860732972316
 40
0.5360397902517007
 40
0.624856811592007
 40
0.7142166367237461
 40
0.8019954407661332
 40
0.8609164307575692
 40
0.9246204346942806
 40
1.0
 40
1.0
 40
1.0
 40
1.0
 10
-168.4711860687753
 20
-223.6080218860849
 30
0.0
 10
-167.8642918448494
 20
-223.451928214992
 30
0.0
 10
-166.6576310912486
 20
-223.1415741213663
 30
0.0
 10
-165.2614766851801
 20
-221.7905307673921
 30
0.0
 10
-164.2994480264689
 20
-220.0829961461569
 30
0.0
 10
-163.6266691332439
 20
-217.7455135568154
 30
0.0
 10
-163.4915607254066
 20
-214.915272597575
 30
0.0
 10
-164.1055037270206
 20
-211.8566503281971
 30
0.0
 10
-165.7099503630803
 20
-209.3296811396726
 30
0.0
 10
-167.8953490590783
 20
-207.5087593095238
 30
0.0
 10
-170.1737002872466
 20
-205.902284098754
 30
0.0
 10
-172.0673312739273
 20
-204.2662505485913
 30
0.0
 10
-173.3242249598783
 20
-202.4230818097764
 30
0.0
 10
-174.0076571513824
 20
-200.4175532334646
 30
0.0
 10
-174.0008277539433
 20
-198.9469903421075
 30
0.0
 10
-173.9971264036467
 20
-198.1499846849403
 30
0.0
  0
SPLINE
  5
112
330
1F
100
AcDbEntity
  8
0
  6
Continuous
 62
     7
370
    25
100
AcDbSpline
210
0.0
220
0.0
230
1.0
 70
     8
 71
     3
 72
    17
 73
    13
 74
     0
 42
0.00000001
 43
0.00000001
 40
0.0
 40
0.0
 40
0.0
 40
0.0
 40
0.0984969712965707
 40
0.1819889596702103
 40
0.2599302727293479
 40
0.3786374568346389
 40
0.5032980298945171
 40
0.6286695056641456
 40
0.7486346779748645
 40
0.8262804523182836
 40
0.9071729577621647
 40
1.0
 40
1.0
 40
1.0
 40
1.0
 10
-167.5867823106729
 20
-225.5671262732518
 30
0.0
 10
-167.0910400187043
 20
-226.3462994844512
 30
0.0
 10
-166.1750765855927
 20
-227.7859470212481
 30
0.0
 10
-164.2107199955581
 20
-229.2860960847604
 30
0.0
 10
-161.7343641943538
 20
-230.199223684016
 30
0.0
 10
-158.7057404079703
 20
-230.3533255457221
 30
0.0
 10
-155.2937310433731
 20
-229.9715722784444
 30
0.0
 10
-151.8771146218904
 20
-229.5437705242277
 30
0.0
 10
-148.8389430436009
 20
-229.5537909687177
 30
0.0
 10
-146.317003776755
 20
-230.2547177082642
 30
0.0
 10
-144.2830829093462
 20
-231.5135786363347
 30
0.0
 10
-143.3011832763697
 20
-232.8150818873552
 30
0.0
 10
-142.7765051965567
 20
-233.5105401640283
 30
0.0
  0
SPLINE
  5
113
330
1F
100
AcDbEntity
  8
0
  6
Continuous
 62
     7
370
    25
100
AcDbSpline
210
0.0
220
0.0
230
1.0
 70
     8
 71
     3
 72
    20
 73
    16
 74
     0
 42
0.00000001
 43
0.00000001
 40
0.0
 40
0.0
 40
0.0
 40
0.0
 40
0.0587170804422069
 40
0.1167445557107125
 40
0.1783723001175238
 40
0.2440823275159946
 40
0.3462737657364539
 40
0.445386073297231
 40
0.5360397902517008
 40
0.624856811592008
 40
0.7142166367237468
 40
0.8019954407661336
 40
0.860916430757569
 40
0.924620434694281
 40
1.0
 40
1.0
 40
1.0
 40
1.0
 10
-142.7765051965567
 20
-233.5105401640283
 30
0.0
 10
-142.6082391691301
 20
-232.906907513152
 30
0.0
 10
-142.2736833215781
 20
-231.7067315999713
 30
0.0
 10
-142.7456439846998
 20
-229.8221047397231
 30
0.0
 10
-143.7433980151752
 20
-228.135196171493
 30
0.0
 10
-145.4313278718363
 20
-226.3838112641594
 30
0.0
 10
-147.814834237451
 20
-224.8516834710873
 30
0.0
 10
-150.7706503241201
 20
-223.8540625722718
 30
0.0
 10
-153.7612931539928
 20
-223.9800695238537
 30
0.0
 10
-156.4309570652062
 20
-224.9622193969111
 30
0.0
 10
-158.961381022367
 20
-226.1320918338633
 30
0.0
 10
-161.3250431315919
 20
-226.9540075986409
 30
0.0
 10
-163.5497209258424
 20
-227.1209250911232
 30
0.0
 10
-165.6282757166962
 20
-226.7100304425739
 30
0.0
 10
-166.8984058397545
 20
-225.9688345652205
 30
0.0
 10
-167.5867823106729
 20
-225.5671262732518
 30
0.0
  0
CIRCLE
  5
114
330
1F
100
AcDbEntity
  8
0
  6
Continuous
 62
     7
370
    25
100
AcDbCircle
 10
-147.0480132425
 20
-206.3070346476
 30
0.0
 40
2.000000000000028
  0
SPLINE
  5
115
330
1F
100
AcDbEntity
  8
0
  6
Continuous
 62
     7
370
    25
100
AcDbSpline
210
0.0
220
0.0
230
1.0
 70
     8
 71
     3
 72
    17
 73
    13
 74
     0
 42
0.00000001
 43
0.00000001
 40
0.0
 40
0.0
 40
0.0
 40
0.0
 40
0.0984969712965712
 40
0.1819889596702106
 40
0.2599302727293492
 40
0.378637456834639
 40
0.5032980298945171
 40
0.6286695056641457
 40
0.7486346779748645
 40
0.8262804523182844
 40
0.9071729577621649
 40
1.0
 40
1.0
 40
1.0
 40
1.0
 10
-126.5092441743817
 20
-187.0469430219106
 30
0.0
 10
-127.0049864663504
 20
-186.2677698107112
 30
0.0
 10
-127.920949899462
 20
-184.8281222739143
 30
0.0
 10
-129.8853064894965
 20
-183.3279732104019
 30
0.0
 10
-132.361662290701
 20
-182.4148456111465
 30
0.0
 10
-135.3902860770844
 20
-182.2607437494404
 30
0.0
 10
-138.8022954416816
 20
-182.642497016718
 30
0.0
 10
-142.2189118631644
 20
-183.070298770935
 30
0.0
 10
-145.2570834414538
 20
-183.0602783264448
 30
0.0
 10
-147.7790227082997
 20
-182.3593515868983
 30
0.0
 10
-149.8129435757085
 20
-181.1004906588279
 30
0.0
 10
-150.794843208685
 20
-179.7989874078074
 30
0.0
 10
-151.319521288498
 20
-179.1035291311342
 30
0.0
  0
SPLINE
  5
116
330
1F
100
AcDbEntity
  8
0
  6
Continuous
 62
     7
370
    25
100
AcDbSpline
210
0.0
220
0.0
230
1.0
 70
     8
 71
     3
 72
    20
 73
    16
 74
     0
 42
0.00000001
 43
0.00000001
 40
0.0
 40
0.0
 40
0.0
 40
0.0
 40
0.0587170804422069
 40
0.1167445557107127
 40
0.1783723001175232
 40
0.2440823275159946
 40
0.3462737657364539
 40
0.4453860732972316
 40
0.5360397902517005
 40
0.6248568115920076
 40
0.7142166367237469
 40
0.8019954407661339
 40
0.8609164307575692
 40
0.924620434694281
 40
1.0
 40
1.0
 40
1.0
 40
1.0
 10
-151.319521288498
 20
-179.1035291311342
 30
0.0
 10
-151.4877873159246
 20
-179.7071617820105
 30
0.0
 10
-151.8223431634767
 20
-180.9073376951913
 30
0.0
 10
-151.3503825003549
 20
-182.7919645554395
 30
0.0
 10
-150.3526284698795
 20
-184.4788731236695
 30
0.0
 10
-148.6646986132184
 20
-186.2302580310032
 30
0.0
 10
-146.2811922476036
 20
-187.7623858240754
 30
0.0
 10
-143.3253761609346
 20
-188.7600067228906
 30
0.0
 10
-140.3347333310619
 20
-188.6339997713089
 30
0.0
 10
-137.6650694198485
 20
-187.6518498982515
 30
0.0
 10
-135.1346454626876
 20
-186.4819774612991
 30
0.0
 10
-132.7709833534628
 20
-185.6600616965216
 30
0.0
 10
-130.5463055592124
 20
-185.4931442040393
 30
0.0
 10
-128.4677507683585
 20
-185.9040388525885
 30
0.0
 10
-127.1976206453001
 20
-186.6452347299418
 30
0.0
 10
-126.5092441743817
 20
-187.0469430219106
 30
0.0
  0
SPLINE
  5
117
330
1F
100
AcDbEntity
  8
0
  6
Continuous
 62
     7
370
    25
100
AcDbSpline
210
0.0
220
0.0
230
1.0
 70
     8
 71
     3
 72
    17
 73
    13
 74
     0
 42
0.00000001
 43
0.00000001
 40
0.0
 40
0.0
 40
0.0
 40
0.0
 40
0.0984969712965707
 40
0.1819889596702101
 40
0.2599302727293487
 40
0.3786374568346388
 40
0.5032980298945174
 40
0.6286695056641464
 40
0.7486346779748644
 40
0.8262804523182841
 40
0.9071729577621647
 40
1.0
 40
1.0
 40
1.0
 40
1.0
 10
-140.6376691495534
 20
-233.7241762358927
 30
0.0
 10
-139.7150142087222
 20
-233.6844374229172
 30
0.0
 10
-138.0102611528045
 20
-233.6110135893034
 30
0.0
 10
-135.7289156593221
 20
-232.6599054119983
 30
0.0
 10
-133.6999460608679
 20
-230.9718821789742
 30
0.0
 10
-132.0521780406683
 20
-228.4260679723133
 30
0.0
 10
-130.6767813858098
 20
-225.2803045509829
 30
0.0
 10
-129.3389603620037
 20
-222.1075270578833
 30
0.0
 10
-127.8111966133734
 20
-219.4814035122739
 30
0.0
 10
-125.9432066173114
 20
-217.6478034101571
 30
0.0
 10
-123.8360406400663
 20
-216.515806733729
 30
0.0
 10
-122.2179559450863
 20
-216.316208333115
 30
0.0
 10
-121.3533323703087
 20
-216.2095529255247
 30
0.0
  0
SPLINE
  5
118
330
1F
100
AcDbEntity
  8
0
  6
Continuous
 62
     7
370
    25
100
AcDbSpline
210
0.0
220
0.0
230
1.0
 70
     8
 71
     3
 72
    20
 73
    16
 74
     0
 42
0.00000001
 43
0.00000001
 40
0.0
 40
0.0
 40
0.0
 40
0.0
 40
0.0587170804422072
 40
0.1167445557107135
 40
0.1783723001175247
 40
0.2440823275159953
 40
0.3462737657364545
 40
0.4453860732972314
 40
0.5360397902517018
 40
0.6248568115920085
 40
0.7142166367237467
 40
0.8019954407661337
 40
0.8609164307575691
 40
0.9246204346942806
 40
1.0
 40
1.0
 40
1.0
 40
1.0
 10
-121.3533323703087
 20
-216.2095529255247
 30
0.0
 10
-121.791960566808
 20
-215.7620139457412
 30
0.0
 10
-122.6640654728567
 20
-214.872192126186
 30
0.0
 10
-124.532180542047
 20
-214.3386086199124
 30
0.0
 10
-126.4919632312336
 20
-214.3592346729174
 30
0.0
 10
-128.8526719811197
 20
-214.9453323549253
 30
0.0
 10
-131.3712867545718
 20
-216.2434455210936
 30
0.0
 10
-133.7131598396267
 20
-218.3044468916558
 30
0.0
 10
-135.0993560334397
 20
-220.9574230317624
 30
0.0
 10
-135.5836212486551
 20
-223.7604947349684
 30
0.0
 10
-135.8356939776477
 20
-226.5368423826906
 30
0.0
 10
-136.3057251001918
 20
-228.9947916976307
 30
0.0
 10
-137.2735092084912
 20
-231.0048779289279
 30
0.0
 10
-138.6686318078409
 20
-232.5995118566906
 30
0.0
 10
-139.9455913283385
 20
-233.3288788706943
 30
0.0
 10
-140.6376691495534
 20
-233.7241762358927
 30
0.0
  0
SPLINE
  5
119
330
1F
100
AcDbEntity
  8
0
  6
Continuous
 62
     7
370
    25
100
AcDbSpline
210
0.0
220
0.0
230
1.0
 70
     8
 71
     3
 72
    17
 73
    13
 74
     0
 42
0.00000001
 43
0.00000001
 40
0.0
 40
0.0
 40
0.0
 40
0.0
 40
0.098496971296571
 40
0.1819889596702103
 40
0.2599302727293486
 40
0.3786374568346384
 40
0.5032980298945171
 40
0.6286695056641455
 40
0.748634677974864
 40
0.8262804523182838
 40
0.9071729577621653
 40
1.0
 40
1.0
 40
1.0
 40
1.0
 10
-120.0989000814078
 20
-214.4640846102221
 30
0.0
 10
-119.6719874325452
 20
-213.6451725860472
 30
0.0
 10
-118.883197809739
 20
-212.1321012156365
 30
0.0
 10
-118.5662089062913
 20
-209.6808439748191
 30
0.0
 10
-119.0135951090415
 20
-207.0796931425393
 30
0.0
 10
-120.3944508752252
 20
-204.3797770741723
 30
0.0
 10
-122.4310635849641
 20
-201.6157669201197
 30
0.0
 10
-124.5098589826407
 20
-198.8707911812369
 30
0.0
 10
-126.0202668122998
 20
-196.2346471911373
 30
0.0
 10
-126.6742160830837
 20
-193.7001203494741
 30
0.0
 10
-126.6009709732475
 20
-191.3092627449754
 30
0.0
 10
-125.9647859112439
 20
-189.8081610933409
 30
0.0
 10
-125.6248404162793
 20
-189.0060474090775
 30
0.0
  0
SPLINE
  5
11A
330
1F
100
AcDbEntity
  8
0
  6
Continuous
 62
     7
370
    25
100
AcDbSpline
210
0.0
220
0.0
230
1.0
 70
     8
 71
     3
 72
    20
 73
    16
 74
     0
 42
0.00000001
 43
0.00000001
 40
0.0
 40
0.0
 40
0.0
 40
0.0
 40
0.0587170804422066
 40
0.1167445557107128
 40
0.1783723001175241
 40
0.2440823275159947
 40
0.3462737657364531
 40
0.4453860732972306
 40
0.5360397902517008
 40
0.6248568115920078
 40
0.7142166367237466
 40
0.8019954407661339
 40
0.8609164307575692
 40
0.9246204346942816
 40
1.0
 40
1.0
 40
1.0
 40
1.0
 10
-125.6248404162793
 20
-189.0060474090775
 30
0.0
 10
-126.2317346402053
 20
-189.1621410801703
 30
0.0
 10
-127.4383953938061
 20
-189.472495173796
 30
0.0
 10
-128.8345497998745
 20
-190.8235385277705
 30
0.0
 10
-129.7965784585857
 20
-192.5310731490055
 30
0.0
 10
-130.4693573518107
 20
-194.868555738347
 30
0.0
 10
-130.604465759648
 20
-197.6987966975875
 30
0.0
 10
-129.9905227580339
 20
-200.7574189669652
 30
0.0
 10
-128.3860761219742
 20
-203.2843881554899
 30
0.0
 10
-126.2006774259762
 20
-205.1053099856386
 30
0.0
 10
-123.9223261978078
 20
-206.7117851964084
 30
0.0
 10
-122.0286952111272
 20
-208.3478187465711
 30
0.0
 10
-120.7718015251762
 20
-210.1909874853859
 30
0.0
 10
-120.088369333672
 20
-212.1965160616979
 30
0.0
 10
-120.0951987311112
 20
-213.667078953055
 30
0.0
 10
-120.0989000814078
 20
-214.4640846102221
 30
0.0
  0
CIRCLE
  5
12B
330
1F
100
AcDbEntity
  8
0
  6
Continuous
 62
     7
370
    25
100
AcDbCircle
 10
-204.5480132425
 20
-236.3070346476
 30
0.0
 40
1.999999999999972
  0
CIRCLE
  5
12C
330
1F
100
AcDbEntity
  8
0
  6
Continuous
 62
     7
370
    25
100
AcDbCircle
 10
-89.5480132425
 20
-236.3070346476
 30
0.0
 40
2.0
  0
LINE
  5
130
330
1F
100
AcDbEntity
  8
0
  6
Continuous
 62
     7
370
    25
100
AcDbLine
 10
-294.5480132425
 20
-526.8070346476
 30
0.0
 11
-294.5480132425
 21
-531.3070346476
 31
0.0
  0
LINE
  5
131
330
1F
100
AcDbEntity
  8
0
  6
Continuous
 62
     7
370
    25
100
AcDbLine
 10
-276.5480132425
 20
-526.8070346476
 30
0.0
 11
-294.5480132425
 21
-526.8070346476
 31
0.0
  0
LINE
  5
132
330
1F
100
AcDbEntity
  8
0
  6
Continuous
 62
     7
370
    25
100
AcDbLine
 10
-271.5480132425
 20
-521.8070346476
 30
0.0
 11
-271.5480132425
 21
-416.8070346476
 31
0.0
  0
LINE
  5
133
330
1F
100
AcDbEntity
  8
0
  6
Continuous
 62
     7
370
    25
100
AcDbLine
 10
-214.5480132425
 20
-416.8070346476
 30
0.0
 11
-271.5480132425
 21
-416.8070346476
 31
0.0
  0
LINE
  5
134
330
1F
100
AcDbEntity
  8
0
  6
Continuous
 62
     7
370
    25
100
AcDbLine
 10
-184.0480132425
 20
-386.3070346476
 30
0.0
 11
-214.5480132425
 21
-416.8070346476
 31
0.0
  0
LINE
  5
135
330
1F
100
AcDbEntity
  8
0
  6
Continuous
 62
     7
370
    25
100
AcDbLine
 10
-263.5480132425
 20
-386.3070346476
 30
0.0
 11
-24.5480132425
 21
-386.3070346476
 31
0.0
  0
LINE
  5
136
330
1F
100
AcDbEntity
  8
0
  6
Continuous
 62
     7
370
    25
100
AcDbLine
 10
-73.5480132425
 20
-416.8070346476
 30
0.0
 11
-104.0480132425
 21
-386.3070346476
 31
0.0
  0
LINE
  5
137
330
1F
100
AcDbEntity
  8
0
  6
Continuous
 62
     7
370
    25
100
AcDbLine
 10
6.4519867575
 20
-416.8070346476
 30
0.0
 11
-73.5480132425
 21
-416.8070346476
 31
0.0
  0
LINE
  5
138
330
1F
100
AcDbEntity
  8
0
  6
Continuous
 62
     7
370
    25
100
AcDbLine
 10
6.4519867575
 20
-421.3070346476
 30
0.0
 11
6.4519867575
 21
-416.8070346476
 31
0.0
  0
LINE
  5
139
330
1F
100
AcDbEntity
  8
0
  6
Continuous
 62
     7
370
    25
100
AcDbLine
 10
6.4519867575
 20
-421.3070346476
 30
0.0
 11
-6.5480132425
 21
-421.3070346476
 31
0.0
  0
LINE
  5
13A
330
1F
100
AcDbEntity
  8
0
  6
Continuous
 62
     7
370
    25
100
AcDbLine
 10
-6.5480132425
 20
-427.3070346476
 30
0.0
 11
6.4519867575
 21
-427.3070346476
 31
0.0
  0
LINE
  5
13B
330
1F
100
AcDbEntity
  8
0
  6
Continuous
 62
     7
370
    25
100
AcDbLine
 10
6.4519867575
 20
-431.8070346476
 30
0.0
 11
6.4519867575
 21
-427.3070346476
 31
0.0
  0
LINE
  5
13C
330
1F
100
AcDbEntity
  8
0
  6
Continuous
 62
     7
370
    25
100
AcDbLine
 10
-11.5480132425
 20
-431.8070346476
 30
0.0
 11
6.4519867575
 21
-431.8070346476
 31
0.0
  0
LINE
  5
13D
330
1F
100
AcDbEntity
  8
0
  6
Continuous
 62
     7
370
    25
100
AcDbLine
 10
-16.5480132425
 20
-541.8070346476
 30
0.0
 11
-16.5480132425
 21
-436.8070346476
 31
0.0
  0
LINE
  5
13E
330
1F
100
AcDbEntity
  8
0
  6
Continuous
 62
     7
370
    25
100
AcDbLine
 10
-73.5480132425
 20
-541.8070346476
 30
0.0
 11
-16.5480132425
 21
-541.8070346476
 31
0.0
  0
LINE
  5
13F
330
1F
100
AcDbEntity
  8
0
  6
Continuous
 62
     7
370
    25
100
AcDbLine
 10
-104.0480132425
 20
-572.3070346476
 30
0.0
 11
-73.5480132425
 21
-541.8070346476
 31
0.0
  0
LINE
  5
140
330
1F
100
AcDbEntity
  8
0
  6
Continuous
 62
     7
370
    25
100
AcDbLine
 10
-184.0480132425
 20
-572.3070346476
 30
0.0
 11
-104.0480132425
 21
-572.3070346476
 31
0.0
  0
LINE
  5
141
330
1F
100
AcDbEntity
  8
0
  6
Continuous
 62
     7
370
    25
100
AcDbLine
 10
-214.5480132425
 20
-541.8070346476
 30
0.0
 11
-184.0480132425
 21
-572.3070346476
 31
0.0
  0
LINE
  5
142
330
1F
100
AcDbEntity
  8
0
  6
Continuous
 62
     7
370
    25
100
AcDbLine
 10
-294.5480132425
 20
-541.8070346476
 30
0.0
 11
-214.5480132425
 21
-541.8070346476
 31
0.0
  0
LINE
  5
143
330
1F
100
AcDbEntity
  8
0
  6
Continuous
 62
     7
370
    25
100
AcDbLine
 10
-294.5480132425
 20
-537.3070346476
 30
0.0
 11
-294.5480132425
 21
-541.8070346476
 31
0.0
  0
LINE
  5
144
330
1F
100
AcDbEntity
  8
0
  6
Continuous
 62
     7
370
    25
100
AcDbLine
 10
-294.5480132425
 20
-537.3070346476
 30
0.0
 11
-281.5480132425
 21
-537.3070346476
 31
0.0
  0
LINE
  5
145
330
1F
100
AcDbEntity
  8
0
  6
Continuous
 62
     7
370
    25
100
AcDbLine
 10
-281.5480132425
 20
-531.3070346476
 30
0.0
 11
-294.5480132425
 21
-531.3070346476
 31
0.0
  0
LINE
  5
146
330
1F
100
AcDbEntity
  8
0
  6
Continuous
 62
     7
370
    25
100
AcDbLine
 10
-53.4703720271
 20
-490.3642716107
 30
0.0
 11
-53.4703720271
 21
-488.5129707869
 31
0.0
  0
LINE
  5
147
330
1F
100
AcDbEntity
  8
0
  6
Continuous
 62
     7
370
    25
100
AcDbLine
 10
-53.4703720271
 20
-488.5129707869
 30
0.0
 11
-56.1992279735
 21
-486.7773762646
 31
0.0
  0
LINE
  5
148
330
1F
100
AcDbEntity
  8
0
  6
Continuous
 62
     7
370
    25
100
AcDbLine
 10
-57.1241799092
 20
-486.260836751
 30
0.0
 11
-57.1229167075
 21
-486.2304010212
 31
0.0
  0
LINE
  5
149
330
1F
100
AcDbEntity
  8
0
  6
Continuous
 62
     7
370
    25
100
AcDbLine
 10
-57.1229167075
 20
-486.2304010212
 30
0.0
 11
-53.4703720271
 21
-486.2304010212
 31
0.0
  0
LINE
  5
14A
330
1F
100
AcDbEntity
  8
0
  6
Continuous
 62
     7
370
    25
100
AcDbLine
 10
-53.4703720271
 20
-486.2304010212
 30
0.0
 11
-53.4703720271
 21
-484.6842644588
 31
0.0
  0
LINE
  5
14B
330
1F
100
AcDbEntity
  8
0
  6
Continuous
 62
     7
370
    25
100
AcDbLine
 10
-53.4703720271
 20
-484.6842644588
 30
0.0
 11
-61.5419275827
 21
-484.6842644588
 31
0.0
  0
LINE
  5
14C
330
1F
100
AcDbEntity
  8
0
  6
Continuous
 62
     7
370
    25
100
AcDbLine
 10
-61.5419275827
 20
-484.6842644588
 30
0.0
 11
-61.5419275827
 21
-486.2304010212
 31
0.0
  0
LINE
  5
14D
330
1F
100
AcDbEntity
  8
0
  6
Continuous
 62
     7
370
    25
100
AcDbLine
 10
-61.5419275827
 20
-486.2304010212
 30
0.0
 11
-58.7813578436
 21
-486.2304010212
 31
0.0
  0
LINE
  5
14E
330
1F
100
AcDbEntity
  8
0
  6
Continuous
 62
     7
370
    25
100
AcDbLine
 10
-58.7813578436
 20
-486.2304010212
 30
0.0
 11
-57.9731302013
 21
-486.829970038
 31
0.0
  0
LINE
  5
14F
330
1F
100
AcDbEntity
  8
0
  6
Continuous
 62
     7
370
    25
100
AcDbLine
 10
-57.9731302013
 20
-486.829970038
 30
0.0
 11
-61.5419275827
 21
-488.7023083711
 31
0.0
  0
LINE
  5
150
330
1F
100
AcDbEntity
  8
0
  6
Continuous
 62
     7
370
    25
100
AcDbLine
 10
-61.5419275827
 20
-488.7023083711
 30
0.0
 11
-61.5419275827
 21
-490.4799779122
 31
0.0
  0
LINE
  5
151
330
1F
100
AcDbEntity
  8
0
  6
Continuous
 62
     7
370
    25
100
AcDbLine
 10
-61.5419275827
 20
-490.4799779122
 30
0.0
 11
-56.9234839127
 21
-487.9239205248
 31
0.0
  0
LINE
  5
152
330
1F
100
AcDbEntity
  8
0
  6
Continuous
 62
     7
370
    25
100
AcDbLine
 10
-56.9234839127
 20
-487.9239205248
 30
0.0
 11
-53.4703720271
 21
-490.3642716107
 31
0.0
  0
LINE
  5
153
330
1F
100
AcDbEntity
  8
0
  6
Continuous
 62
     7
370
    25
100
AcDbLine
 10
-230.7783128421
 20
-486.9255881918
 30
0.0
 11
-238.8498683976
 21
-486.9255881918
 31
0.0
  0
LINE
  5
154
330
1F
100
AcDbEntity
  8
0
  6
Continuous
 62
     7
370
    25
100
AcDbLine
 10
-238.8498683976
 20
-486.9255881918
 30
0.0
 11
-238.8498683976
 21
-488.4717247542
 31
0.0
  0
LINE
  5
155
330
1F
100
AcDbEntity
  8
0
  6
Continuous
 62
     7
370
    25
100
AcDbLine
 10
-238.8498683976
 20
-488.4717247542
 30
0.0
 11
-230.7783128421
 21
-488.4717247542
 31
0.0
  0
LINE
  5
156
330
1F
100
AcDbEntity
  8
0
  6
Continuous
 62
     7
370
    25
100
AcDbLine
 10
-230.7783128421
 20
-488.4717247542
 30
0.0
 11
-230.7783128421
 21
-486.9255881918
 31
0.0
  0
LINE
  5
157
330
1F
100
AcDbEntity
  8
0
  6
Continuous
 62
     7
370
    25
100
AcDbLine
 10
-230.7783128421
 20
-483.8089694554
 30
0.0
 11
-238.8498683976
 21
-483.8089694554
 31
0.0
  0
LINE
  5
158
330
1F
100
AcDbEntity
  8
0
  6
Continuous
 62
     7
370
    25
100
AcDbLine
 10
-238.8498683976
 20
-483.8089694554
 30
0.0
 11
-238.8498683976
 21
-485.3551060178
 31
0.0
  0
LINE
  5
159
330
1F
100
AcDbEntity
  8
0
  6
Continuous
 62
     7
370
    25
100
AcDbLine
 10
-238.8498683976
 20
-485.3551060178
 30
0.0
 11
-230.7783128421
 21
-485.3551060178
 31
0.0
  0
LINE
  5
15A
330
1F
100
AcDbEntity
  8
0
  6
Continuous
 62
     7
370
    25
100
AcDbLine
 10
-230.7783128421
 20
-485.3551060178
 30
0.0
 11
-230.7783128421
 21
-483.8089694554
 31
0.0
  0
LINE
  5
15B
330
1F
100
AcDbEntity
  8
0
  6
Continuous
 62
     7
370
    25
100
AcDbLine
 10
-238.8473940085
 20
-482.8630112189
 30
0.0
 11
-237.5009934093
 21
-482.8630112189
 31
0.0
  0
LINE
  5
15C
330
1F
100
AcDbEntity
  8
0
  6
Continuous
 62
     7
370
    25
100
AcDbLine
 10
-237.5009934093
 20
-482.8630112189
 30
0.0
 11
-237.5009934093
 21
-480.8749665843
 31
0.0
  0
LINE
  5
15D
330
1F
100
AcDbEntity
  8
0
  6
Continuous
 62
     7
370
    25
100
AcDbLine
 10
-237.5009934093
 20
-480.8749665843
 30
0.0
 11
-230.7783128421
 21
-480.8749665843
 31
0.0
  0
LINE
  5
15E
330
1F
100
AcDbEntity
  8
0
  6
Continuous
 62
     7
370
    25
100
AcDbLine
 10
-230.7783128421
 20
-480.8749665843
 30
0.0
 11
-230.7783128421
 21
-479.3288300219
 31
0.0
  0
LINE
  5
15F
330
1F
100
AcDbEntity
  8
0
  6
Continuous
 62
     7
370
    25
100
AcDbLine
 10
-230.7783128421
 20
-479.3288300219
 30
0.0
 11
-237.5009934093
 21
-479.3288300219
 31
0.0
  0
LINE
  5
160
330
1F
100
AcDbEntity
  8
0
  6
Continuous
 62
     7
370
    25
100
AcDbLine
 10
-237.5009934093
 20
-479.3288300219
 30
0.0
 11
-237.5009934093
 21
-477.3302666326
 31
0.0
  0
LINE
  5
161
330
1F
100
AcDbEntity
  8
0
  6
Continuous
 62
     7
370
    25
100
AcDbLine
 10
-237.5009934093
 20
-477.3302666326
 30
0.0
 11
-238.8473940085
 21
-477.3302666326
 31
0.0
  0
LINE
  5
162
330
1F
100
AcDbEntity
  8
0
  6
Continuous
 62
     7
370
    25
100
AcDbLine
 10
-238.8473940085
 20
-477.3302666326
 30
0.0
 11
-238.8473940085
 21
-482.8630112189
 31
0.0
  0
LINE
  5
163
330
1F
100
AcDbEntity
  8
0
  6
Continuous
 62
     7
370
    25
100
AcDbLine
 10
-53.4728464163
 20
-478.2160803906
 30
0.0
 11
-54.8192470154
 21
-478.2160803906
 31
0.0
  0
LINE
  5
164
330
1F
100
AcDbEntity
  8
0
  6
Continuous
 62
     7
370
    25
100
AcDbLine
 10
-54.8192470154
 20
-478.2160803906
 30
0.0
 11
-54.8192470154
 21
-480.2041250252
 31
0.0
  0
LINE
  5
165
330
1F
100
AcDbEntity
  8
0
  6
Continuous
 62
     7
370
    25
100
AcDbLine
 10
-54.8192470154
 20
-480.2041250252
 30
0.0
 11
-61.5419275827
 21
-480.2041250252
 31
0.0
  0
LINE
  5
166
330
1F
100
AcDbEntity
  8
0
  6
Continuous
 62
     7
370
    25
100
AcDbLine
 10
-61.5419275827
 20
-480.2041250252
 30
0.0
 11
-61.5419275827
 21
-481.7502615876
 31
0.0
  0
LINE
  5
167
330
1F
100
AcDbEntity
  8
0
  6
Continuous
 62
     7
370
    25
100
AcDbLine
 10
-61.5419275827
 20
-481.7502615876
 30
0.0
 11
-54.8192470154
 21
-481.7502615876
 31
0.0
  0
LINE
  5
168
330
1F
100
AcDbEntity
  8
0
  6
Continuous
 62
     7
370
    25
100
AcDbLine
 10
-54.8192470154
 20
-481.7502615876
 30
0.0
 11
-54.8192470154
 21
-483.7488249769
 31
0.0
  0
LINE
  5
169
330
1F
100
AcDbEntity
  8
0
  6
Continuous
 62
     7
370
    25
100
AcDbLine
 10
-54.8192470154
 20
-483.7488249769
 30
0.0
 11
-53.4728464163
 21
-483.7488249769
 31
0.0
  0
LINE
  5
16A
330
1F
100
AcDbEntity
  8
0
  6
Continuous
 62
     7
370
    25
100
AcDbLine
 10
-53.4728464163
 20
-483.7488249769
 30
0.0
 11
-53.4728464163
 21
-478.2160803906
 31
0.0
  0
LINE
  5
16B
330
1F
100
AcDbEntity
  8
0
  6
Continuous
 62
     7
370
    25
100
AcDbLine
 10
-61.5419275827
 20
-477.2701221541
 30
0.0
 11
-53.4703720271
 21
-477.2701221541
 31
0.0
  0
LINE
  5
16C
330
1F
100
AcDbEntity
  8
0
  6
Continuous
 62
     7
370
    25
100
AcDbLine
 10
-53.4703720271
 20
-477.2701221541
 30
0.0
 11
-53.4703720271
 21
-475.7239855917
 31
0.0
  0
LINE
  5
16D
330
1F
100
AcDbEntity
  8
0
  6
Continuous
 62
     7
370
    25
100
AcDbLine
 10
-53.4703720271
 20
-475.7239855917
 30
0.0
 11
-61.5419275827
 21
-475.7239855917
 31
0.0
  0
LINE
  5
16E
330
1F
100
AcDbEntity
  8
0
  6
Continuous
 62
     7
370
    25
100
AcDbLine
 10
-61.5419275827
 20
-475.7239855917
 30
0.0
 11
-61.5419275827
 21
-477.2701221541
 31
0.0
  0
LINE
  5
16F
330
1F
100
AcDbEntity
  8
0
  6
Continuous
 62
     7
370
    25
100
AcDbLine
 10
-61.5419275827
 20
-474.1535034177
 30
0.0
 11
-53.4703720271
 21
-474.1535034177
 31
0.0
  0
LINE
  5
170
330
1F
100
AcDbEntity
  8
0
  6
Continuous
 62
     7
370
    25
100
AcDbLine
 10
-53.4703720271
 20
-474.1535034177
 30
0.0
 11
-53.4703720271
 21
-472.6073668553
 31
0.0
  0
LINE
  5
171
330
1F
100
AcDbEntity
  8
0
  6
Continuous
 62
     7
370
    25
100
AcDbLine
 10
-53.4703720271
 20
-472.6073668553
 30
0.0
 11
-61.5419275827
 21
-472.6073668553
 31
0.0
  0
LINE
  5
172
330
1F
100
AcDbEntity
  8
0
  6
Continuous
 62
     7
370
    25
100
AcDbLine
 10
-61.5419275827
 20
-472.6073668553
 30
0.0
 11
-61.5419275827
 21
-474.1535034177
 31
0.0
  0
LINE
  5
173
330
1F
100
AcDbEntity
  8
0
  6
Continuous
 62
     7
370
    25
100
AcDbLine
 10
-238.8498683976
 20
-470.7148199988
 30
0.0
 11
-238.8498683976
 21
-472.5661208226
 31
0.0
  0
LINE
  5
174
330
1F
100
AcDbEntity
  8
0
  6
Continuous
 62
     7
370
    25
100
AcDbLine
 10
-238.8498683976
 20
-472.5661208226
 30
0.0
 11
-236.1210124513
 21
-474.301715345
 31
0.0
  0
LINE
  5
175
330
1F
100
AcDbEntity
  8
0
  6
Continuous
 62
     7
370
    25
100
AcDbLine
 10
-235.1975823021
 20
-474.816733072
 30
0.0
 11
-235.1973237173
 21
-474.8486905883
 31
0.0
  0
LINE
  5
176
330
1F
100
AcDbEntity
  8
0
  6
Continuous
 62
     7
370
    25
100
AcDbLine
 10
-235.1973237173
 20
-474.8486905883
 30
0.0
 11
-238.8498683976
 21
-474.8486905883
 31
0.0
  0
LINE
  5
177
330
1F
100
AcDbEntity
  8
0
  6
Continuous
 62
     7
370
    25
100
AcDbLine
 10
-238.8498683976
 20
-474.8486905883
 30
0.0
 11
-238.8498683976
 21
-476.3948271507
 31
0.0
  0
LINE
  5
178
330
1F
100
AcDbEntity
  8
0
  6
Continuous
 62
     7
370
    25
100
AcDbLine
 10
-238.8498683976
 20
-476.3948271507
 30
0.0
 11
-230.7783128421
 21
-476.3948271507
 31
0.0
  0
LINE
  5
179
330
1F
100
AcDbEntity
  8
0
  6
Continuous
 62
     7
370
    25
100
AcDbLine
 10
-230.7783128421
 20
-476.3948271507
 30
0.0
 11
-230.7783128421
 21
-474.8486905883
 31
0.0
  0
LINE
  5
17A
330
1F
100
AcDbEntity
  8
0
  6
Continuous
 62
     7
370
    25
100
AcDbLine
 10
-230.7783128421
 20
-474.8486905883
 30
0.0
 11
-233.5388825812
 21
-474.8486905883
 31
0.0
  0
LINE
  5
17B
330
1F
100
AcDbEntity
  8
0
  6
Continuous
 62
     7
370
    25
100
AcDbLine
 10
-233.5388825812
 20
-474.8486905883
 30
0.0
 11
-234.3471102235
 21
-474.2491215715
 31
0.0
  0
LINE
  5
17C
330
1F
100
AcDbEntity
  8
0
  6
Continuous
 62
     7
370
    25
100
AcDbLine
 10
-234.3471102235
 20
-474.2491215715
 30
0.0
 11
-230.7783128421
 21
-472.3767832384
 31
0.0
  0
LINE
  5
17D
330
1F
100
AcDbEntity
  8
0
  6
Continuous
 62
     7
370
    25
100
AcDbLine
 10
-230.7783128421
 20
-472.3767832384
 30
0.0
 11
-230.7783128421
 21
-470.5991136973
 31
0.0
  0
LINE
  5
17E
330
1F
100
AcDbEntity
  8
0
  6
Continuous
 62
     7
370
    25
100
AcDbLine
 10
-230.7783128421
 20
-470.5991136973
 30
0.0
 11
-235.3967565121
 21
-473.1551710848
 31
0.0
  0
LINE
  5
17F
330
1F
100
AcDbEntity
  8
0
  6
Continuous
 62
     7
370
    25
100
AcDbLine
 10
-235.3967565121
 20
-473.1551710848
 30
0.0
 11
-238.8498683976
 21
-470.7148199988
 31
0.0
  0
LINE
  5
180
330
1F
100
AcDbEntity
  8
0
  6
Continuous
 62
     7
370
    25
100
AcDbLine
 10
-269.5480132425
 20
-373.3070346476
 30
0.0
 11
-269.5480132425
 21
-386.3070346476
 31
0.0
  0
LINE
  5
181
330
1F
100
AcDbEntity
  8
0
  6
Continuous
 62
     7
370
    25
100
AcDbLine
 10
-294.5480132425
 20
-386.3070346476
 30
0.0
 11
-269.5480132425
 21
-386.3070346476
 31
0.0
  0
LINE
  5
182
330
1F
100
AcDbEntity
  8
0
  6
Continuous
 62
     7
370
    25
100
AcDbLine
 10
-294.5480132425
 20
-329.3070346476
 30
0.0
 11
-294.5480132425
 21
-386.3070346476
 31
0.0
  0
LINE
  5
183
330
1F
100
AcDbEntity
  8
0
  6
Continuous
 62
     7
370
    25
100
AcDbLine
 10
-294.5480132425
 20
-329.3070346476
 30
0.0
 11
-281.5480132425
 21
-329.3070346476
 31
0.0
  0
LINE
  5
184
330
1F
100
AcDbEntity
  8
0
  6
Continuous
 62
     7
370
    25
100
AcDbLine
 10
-281.5480132425
 20
-323.3070346476
 30
0.0
 11
-294.5480132425
 21
-323.3070346476
 31
0.0
  0
LINE
  5
185
330
1F
100
AcDbEntity
  8
0
  6
Continuous
 62
     7
370
    25
100
AcDbLine
 10
-269.5480132425
 20
-266.3070346476
 30
0.0
 11
-294.5480132425
 21
-266.3070346476
 31
0.0
  0
LINE
  5
186
330
1F
100
AcDbEntity
  8
0
  6
Continuous
 62
     7
370
    25
100
AcDbLine
 10
-263.5480132425
 20
-279.3070346476
 30
0.0
 11
-263.5480132425
 21
-253.3070346476
 31
0.0
  0
LINE
  5
187
330
1F
100
AcDbEntity
  8
0
  6
Continuous
 62
     7
370
    25
100
AcDbLine
 10
-24.5480132425
 20
-279.3070346476
 30
0.0
 11
-24.5480132425
 21
-253.3070346476
 31
0.0
  0
LINE
  5
188
330
1F
100
AcDbEntity
  8
0
  6
Continuous
 62
     7
370
    25
100
AcDbLine
 10
-18.5480132425
 20
-266.3070346476
 30
0.0
 11
-18.5480132425
 21
-279.3070346476
 31
0.0
  0
LINE
  5
189
330
1F
100
AcDbEntity
  8
0
  6
Continuous
 62
     7
370
    25
100
AcDbLine
 10
6.4519867575
 20
-323.3070346476
 30
0.0
 11
6.4519867575
 21
-266.3070346476
 31
0.0
  0
LINE
  5
18A
330
1F
100
AcDbEntity
  8
0
  6
Continuous
 62
     7
370
    25
100
AcDbLine
 10
6.4519867575
 20
-323.3070346476
 30
0.0
 11
-6.5480132425
 21
-323.3070346476
 31
0.0
  0
LINE
  5
18B
330
1F
100
AcDbEntity
  8
0
  6
Continuous
 62
     7
370
    25
100
AcDbLine
 10
-6.5480132425
 20
-329.3070346476
 30
0.0
 11
6.4519867575
 21
-329.3070346476
 31
0.0
  0
LINE
  5
18C
330
1F
100
AcDbEntity
  8
0
  6
Continuous
 62
     7
370
    25
100
AcDbLine
 10
6.4519867575
 20
-386.3070346476
 30
0.0
 11
6.4519867575
 21
-329.3070346476
 31
0.0
  0
LINE
  5
18D
330
1F
100
AcDbEntity
  8
0
  6
Continuous
 62
     7
370
    25
100
AcDbLine
 10
-18.5480132425
 20
-386.3070346476
 30
0.0
 11
6.4519867575
 21
-386.3070346476
 31
0.0
  0
LINE
  5
18E
330
1F
100
AcDbEntity
  8
0
  6
Continuous
 62
     7
370
    25
100
AcDbLine
 10
-18.5480132425
 20
-386.3070346476
 30
0.0
 11
-18.5480132425
 21
-373.3070346476
 31
0.0
  0
LINE
  5
18F
330
1F
100
AcDbEntity
  8
0
  6
Continuous
 62
     7
370
    25
100
AcDbLine
 10
-24.5480132425
 20
-373.3070346476
 30
0.0
 11
-24.5480132425
 21
-386.3070346476
 31
0.0
  0
LINE
  5
190
330
1F
100
AcDbEntity
  8
0
  6
Continuous
 62
     7
370
    25
100
AcDbLine
 10
-114.0480132425
 20
-386.3070346476
 30
0.0
 11
-114.0480132425
 21
-346.3070346476
 31
0.0
  0
LINE
  5
191
330
1F
100
AcDbEntity
  8
0
  6
Continuous
 62
     7
370
    25
100
AcDbLine
 10
-114.0480132425
 20
-346.3070346476
 30
0.0
 11
-174.0480132425
 21
-346.3070346476
 31
0.0
  0
LINE
  5
192
330
1F
100
AcDbEntity
  8
0
  6
Continuous
 62
     7
370
    25
100
AcDbLine
 10
-174.0480132425
 20
-386.3070346476
 30
0.0
 11
-174.0480132425
 21
-346.3070346476
 31
0.0
  0
LINE
  5
193
330
1F
100
AcDbEntity
  8
0
  6
Continuous
 62
     7
370
    25
100
AcDbLine
 10
-263.5480132425
 20
-386.3070346476
 30
0.0
 11
-263.5480132425
 21
-373.3070346476
 31
0.0
  0
LINE
  5
194
330
1F
100
AcDbEntity
  8
0
  6
Continuous
 62
     7
370
    25
100
AcDbLine
 10
-263.5480132425
 20
-266.3070346476
 30
0.0
 11
6.4519867575
 21
-266.3070346476
 31
0.0
  0
LINE
  5
195
330
1F
100
AcDbEntity
  8
0
  6
Continuous
 62
     7
370
    25
100
AcDbLine
 10
-147.0480132425
 20
-279.3070346476
 30
0.0
 11
-147.0480132425
 21
-266.3070346476
 31
0.0
  0
LINE
  5
196
330
1F
100
AcDbEntity
  8
0
  6
Continuous
 62
     7
370
    25
100
AcDbLine
 10
-269.5480132425
 20
-253.3070346476
 30
0.0
 11
-269.5480132425
 21
-279.3070346476
 31
0.0
  0
LINE
  5
197
330
1F
100
AcDbEntity
  8
0
  6
Continuous
 62
     7
370
    25
100
AcDbLine
 10
-294.5480132425
 20
-209.3070346476
 30
0.0
 11
-294.5480132425
 21
-323.3070346476
 31
0.0
  0
LINE
  5
198
330
1F
100
AcDbEntity
  8
0
  6
Continuous
 62
     7
370
    25
100
AcDbLine
 10
-141.0480132425
 20
-266.3070346476
 30
0.0
 11
-141.0480132425
 21
-279.3070346476
 31
0.0
  0
LINE
  5
199
330
1F
100
AcDbEntity
  8
0
  6
Continuous
 62
     7
370
    25
100
AcDbLine
 10
-281.5480132425
 20
-203.3070346476
 30
0.0
 11
-294.5480132425
 21
-203.3070346476
 31
0.0
  0
LINE
  5
19A
330
1F
100
AcDbEntity
  8
0
  6
Continuous
 62
     7
370
    25
100
AcDbLine
 10
-294.5480132425
 20
-146.3070346476
 30
0.0
 11
-294.5480132425
 21
-203.3070346476
 31
0.0
  0
LINE
  5
19B
330
1F
100
AcDbEntity
  8
0
  6
Continuous
 62
     7
370
    25
100
AcDbLine
 10
-269.5480132425
 20
-146.3070346476
 30
0.0
 11
-294.5480132425
 21
-146.3070346476
 31
0.0
  0
LINE
  5
19C
330
1F
100
AcDbEntity
  8
0
  6
Continuous
 62
     7
370
    25
100
AcDbLine
 10
-269.5480132425
 20
-146.3070346476
 30
0.0
 11
-269.5480132425
 21
-159.3070346476
 31
0.0
  0
LINE
  5
19D
330
1F
100
AcDbEntity
  8
0
  6
Continuous
 62
     7
370
    25
100
AcDbLine
 10
-263.5480132425
 20
-159.3070346476
 30
0.0
 11
-263.5480132425
 21
-146.3070346476
 31
0.0
  0
LINE
  5
19E
330
1F
100
AcDbEntity
  8
0
  6
Continuous
 62
     7
370
    25
100
AcDbLine
 10
-30.5480132425
 20
-146.3070346476
 30
0.0
 11
-30.5480132425
 21
-159.3070346476
 31
0.0
  0
LINE
  5
19F
330
1F
100
AcDbEntity
  8
0
  6
Continuous
 62
     7
370
    25
100
AcDbLine
 10
-24.5480132425
 20
-159.3070346476
 30
0.0
 11
-24.5480132425
 21
-146.3070346476
 31
0.0
  0
LINE
  5
1A0
330
1F
100
AcDbEntity
  8
0
  6
Continuous
 62
     7
370
    25
100
AcDbLine
 10
0.4519867575
 20
-203.3070346476
 30
0.0
 11
-12.5480132425
 21
-203.3070346476
 31
0.0
  0
LINE
  5
1A1
330
1F
100
AcDbEntity
  8
0
  6
Continuous
 62
     7
370
    25
100
AcDbLine
 10
-12.5480132425
 20
-209.3070346476
 30
0.0
 11
0.4519867575
 21
-209.3070346476
 31
0.0
  0
LINE
  5
1A2
330
1F
100
AcDbEntity
  8
0
  6
Continuous
 62
     7
370
    25
100
AcDbLine
 10
0.4519867575
 20
-266.3070346476
 30
0.0
 11
0.4519867575
 21
-209.3070346476
 31
0.0
  0
LINE
  5
1A3
330
1F
100
AcDbEntity
  8
0
  6
Continuous
 62
     7
370
    25
100
AcDbLine
 10
-30.5480132425
 20
-253.3070346476
 30
0.0
 11
-30.5480132425
 21
-266.3070346476
 31
0.0
  0
LINE
  5
1A4
330
1F
100
AcDbEntity
  8
0
  6
Continuous
 62
     7
370
    25
100
AcDbLine
 10
-294.5480132425
 20
-209.3070346476
 30
0.0
 11
-281.5480132425
 21
-209.3070346476
 31
0.0
  0
LINE
  5
1A5
330
1F
100
AcDbEntity
  8
0
  6
Continuous
 62
     7
370
    25
100
AcDbLine
 10
-269.5480132425
 20
-226.3070346476
 30
0.0
 11
-219.5480132425
 21
-226.3070346476
 31
0.0
  0
LINE
  5
1A6
330
1F
100
AcDbEntity
  8
0
  6
Continuous
 62
     7
370
    25
100
AcDbLine
 10
-219.5480132425
 20
-226.3070346476
 30
0.0
 11
-219.5480132425
 21
-215.2984689834
 31
0.0
  0
LINE
  5
1A7
330
1F
100
AcDbEntity
  8
0
  6
Continuous
 62
     7
370
    25
100
AcDbLine
 10
-219.5480132425
 20
-197.0656003117
 30
0.0
 11
-219.5480132425
 21
-186.3070346476
 31
0.0
  0
LINE
  5
1A8
330
1F
100
AcDbEntity
  8
0
  6
Continuous
 62
     7
370
    25
100
AcDbLine
 10
-219.5480132425
 20
-186.3070346476
 30
0.0
 11
-269.5480132425
 21
-186.3070346476
 31
0.0
  0
LINE
  5
1A9
330
1F
100
AcDbEntity
  8
0
  6
Continuous
 62
     7
370
    25
100
AcDbLine
 10
-269.5480132425
 20
-186.3070346476
 30
0.0
 11
-269.5480132425
 21
-196.7820678923
 31
0.0
  0
LINE
  5
1AA
330
1F
100
AcDbEntity
  8
0
  6
Continuous
 62
     7
370
    25
100
AcDbLine
 10
-269.5480132425
 20
-215.5820014028
 30
0.0
 11
-269.5480132425
 21
-226.3070346476
 31
0.0
  0
LINE
  5
1AB
330
1F
100
AcDbEntity
  8
0
  6
Continuous
 62
     7
370
    25
100
AcDbLine
 10
-24.5480132425
 20
-196.7820678923
 30
0.0
 11
-24.5480132425
 21
-186.3070346476
 31
0.0
  0
LINE
  5
1AC
330
1F
100
AcDbEntity
  8
0
  6
Continuous
 62
     7
370
    25
100
AcDbLine
 10
-24.5480132425
 20
-186.3070346476
 30
0.0
 11
-74.5480132425
 21
-186.3070346476
 31
0.0
  0
LINE
  5
1AD
330
1F
100
AcDbEntity
  8
0
  6
Continuous
 62
     7
370
    25
100
AcDbLine
 10
-74.5480132425
 20
-186.3070346476
 30
0.0
 11
-74.5480132425
 21
-197.0656003117
 31
0.0
  0
LINE
  5
1AE
330
1F
100
AcDbEntity
  8
0
  6
Continuous
 62
     7
370
    25
100
AcDbLine
 10
-74.5480132425
 20
-215.2984689834
 30
0.0
 11
-74.5480132425
 21
-226.3070346476
 31
0.0
  0
LINE
  5
1AF
330
1F
100
AcDbEntity
  8
0
  6
Continuous
 62
     7
370
    25
100
AcDbLine
 10
-74.5480132425
 20
-226.3070346476
 30
0.0
 11
-24.5480132425
 21
-226.3070346476
 31
0.0
  0
LINE
  5
1B0
330
1F
100
AcDbEntity
  8
0
  6
Continuous
 62
     7
370
    25
100
AcDbLine
 10
-24.5480132425
 20
-226.3070346476
 30
0.0
 11
-24.5480132425
 21
-215.5820014028
 31
0.0
  0
LINE
  5
1B1
330
1F
100
AcDbEntity
  8
0
  6
Continuous
 62
     7
370
    25
100
AcDbLine
 10
0.4519867575
 20
-203.3070346476
 30
0.0
 11
0.4519867575
 21
-146.3070346476
 31
0.0
  0
LINE
  5
1B2
330
1F
100
AcDbEntity
  8
0
  6
Continuous
 62
     7
370
    25
100
AcDbLine
 10
0.4519867575
 20
-146.3070346476
 30
0.0
 11
-24.5480132425
 21
-146.3070346476
 31
0.0
  0
LINE
  5
1B3
330
1F
100
AcDbEntity
  8
0
  6
Continuous
 62
     7
370
    25
100
AcDbLine
 10
-30.5480132425
 20
-146.3070346476
 30
0.0
 11
-263.5480132425
 21
-146.3070346476
 31
0.0
  0
ARC
  5
1B4
330
1F
100
AcDbEntity
  8
0
  6
Continuous
 62
     7
370
    25
100
AcDbCircle
 10
-276.5480132425
 20
-521.8070346476
 30
0.0
 40
5.0
100
AcDbArc
 50
270.0
 51
0.0
  0
ARC
  5
1B5
330
1F
100
AcDbEntity
  8
0
  6
Continuous
 62
     7
370
    25
100
AcDbCircle
 10
-6.5480132425
 20
-424.3070346476
 30
0.0
 40
3.0
100
AcDbArc
 50
90.0
 51
270.0
  0
ARC
  5
1B6
330
1F
100
AcDbEntity
  8
0
  6
Continuous
 62
     7
370
    25
100
AcDbCircle
 10
-11.5480132425
 20
-436.8070346476
 30
0.0
 40
4.999999999999888
100
AcDbArc
 50
90.0
 51
180.0
  0
ARC
  5
1B7
330
1F
100
AcDbEntity
  8
0
  6
Continuous
 62
     7
370
    25
100
AcDbCircle
 10
-281.5480132425
 20
-534.3070346476
 30
0.0
 40
3.0
100
AcDbArc
 50
270.0
 51
90.0
  0
ARC
  5
1B8
330
1F
100
AcDbEntity
  8
0
  6
Continuous
 62
     7
370
    25
100
AcDbCircle
 10
-281.5480132425
 20
-326.3070346476
 30
0.0
 40
3.0
100
AcDbArc
 50
270.0
 51
90.0
  0
ARC
  5
1B9
330
1F
100
AcDbEntity
  8
0
  6
Continuous
 62
     7
370
    25
100
AcDbCircle
 10
-266.5480132425
 20
-279.3070346476
 30
0.0
 40
3.0
100
AcDbArc
 50
180.0
 51
0.0
  0
ARC
  5
1BA
330
1F
100
AcDbEntity
  8
0
  6
Continuous
 62
     7
370
    25
100
AcDbCircle
 10
-144.0480132425
 20
-279.3070346476
 30
0.0
 40
3.000000000000028
100
AcDbArc
 50
180.0
 51
0.0
  0
ARC
  5
1BB
330
1F
100
AcDbEntity
  8
0
  6
Continuous
 62
     7
370
    25
100
AcDbCircle
 10
-21.5480132425
 20
-279.3070346476
 30
0.0
 40
3.000000000000011
100
AcDbArc
 50
180.0
 51
0.0
  0
ARC
  5
1BC
330
1F
100
AcDbEntity
  8
0
  6
Continuous
 62
     7
370
    25
100
AcDbCircle
 10
-6.5480132425
 20
-326.3070346476
 30
0.0
 40
3.0
100
AcDbArc
 50
90.0
 51
270.0
  0
ARC
  5
1BD
330
1F
100
AcDbEntity
  8
0
  6
Continuous
 62
     7
370
    25
100
AcDbCircle
 10
-21.5480132425
 20
-373.3070346476
 30
0.0
 40
2.999999999999982
100
AcDbArc
 50
0.0
 51
180.0
  0
ARC
  5
1BE
330
1F
100
AcDbEntity
  8
0
  6
Continuous
 62
     7
370
    25
100
AcDbCircle
 10
-266.5480132425
 20
-373.3070346476
 30
0.0
 40
3.0
100
AcDbArc
 50
360.0
 51
180.0
  0
ARC
  5
1BF
330
1F
100
AcDbEntity
  8
0
  6
Continuous
 62
     7
370
    25
100
AcDbCircle
 10
-266.5480132425
 20
-159.3070346476
 30
0.0
 40
3.0
100
AcDbArc
 50
180.0
 51
0.0
  0
ARC
  5
1C0
330
1F
100
AcDbEntity
  8
0
  6
Continuous
 62
     7
370
    25
100
AcDbCircle
 10
-27.5480132425
 20
-159.3070346476
 30
0.0
 40
3.000000000000004
100
AcDbArc
 50
180.0
 51
0.0
  0
ARC
  5
1C1
330
1F
100
AcDbEntity
  8
0
  6
Continuous
 62
     7
370
    25
100
AcDbCircle
 10
-12.5480132425
 20
-206.3070346476
 30
0.0
 40
3.000000000000028
100
AcDbArc
 50
90.0
 51
270.0
  0
ARC
  5
1C2
330
1F
100
AcDbEntity
  8
0
  6
Continuous
 62
     7
370
    25
100
AcDbCircle
 10
-27.5480132425
 20
-253.3070346476
 30
0.0
 40
3.000000000000004
100
AcDbArc
 50
0.0
 51
180.0
  0
ARC
  5
1C3
330
1F
100
AcDbEntity
  8
0
  6
Continuous
 62
     7
370
    25
100
AcDbCircle
 10
-266.5480132425
 20
-253.3070346476
 30
0.0
 40
3.0
100
AcDbArc
 50
0.0
 51
180.0
  0
ARC
  5
1C4
330
1F
100
AcDbEntity
  8
0
  6
Continuous
 62
     7
370
    25
100
AcDbCircle
 10
-281.5480132425
 20
-206.3070346476
 30
0.0
 40
3.000000000000057
100
AcDbArc
 50
270.0
 51
90.0
  0
ARC
  5
1C5
330
1F
100
AcDbEntity
  8
0
  6
Continuous
 62
     7
370
    25
100
AcDbCircle
 10
-230.1730132425
 20
-206.1820346476
 30
0.0
 40
13.99999999999997
100
AcDbArc
 50
319.3698339427
 51
40.6301660573
  0
ARC
  5
1C6
330
1F
100
AcDbEntity
  8
0
  6
Continuous
 62
     7
370
    25
100
AcDbCircle
 10
-259.1730132425
 20
-206.1820346476
 30
0.0
 40
13.9999999999999
100
AcDbArc
 50
137.8227649929
 51
222.1772350071
  0
ARC
  5
1C7
330
1F
100
AcDbEntity
  8
0
  6
Continuous
 62
     7
370
    25
100
AcDbCircle
 10
-63.9230132425
 20
-206.1820346476
 30
0.0
 40
13.99999999999999
100
AcDbArc
 50
139.3698339427
 51
220.6301660573
  0
ARC
  5
1C8
330
1F
100
AcDbEntity
  8
0
  6
Continuous
 62
     7
370
    25
100
AcDbCircle
 10
-34.9230132425
 20
-206.1820346476
 30
0.0
 40
14.0
100
AcDbArc
 50
317.8227649929
 51
42.1772350071
  0
ENDSEC
  0
SECTION
  2
OBJECTS
  0
DICTIONARY
  5
C
330
0
100
AcDbDictionary
281
     1
  3
ACAD_GROUP
350
D
  3
ACAD_LAYOUT
350
1A
  3
ACAD_MLINESTYLE
350
17
  3
ACAD_PLOTSETTINGS
350
19
  3
ACAD_PLOTSTYLENAME
350
E
  3
ACAD_SCALELIST
350
47
  3
DWGPROPS
350
1C9
  0
DICTIONARY
  5
D
102
{ACAD_REACTORS
330
C
102
}
330
C
100
AcDbDictionary
281
     1
  0
DICTIONARY
  5
1A
102
{ACAD_REACTORS
330
C
102
}
330
C
100
AcDbDictionary
281
     1
  3
Layout1
350
1E
  3
Layout2
350
26
  3
Model
350
22
  0
DICTIONARY
  5
17
102
{ACAD_REACTORS
330
C
102
}
330
C
100
AcDbDictionary
281
     1
  3
Standard
350
18
  0
DICTIONARY
  5
19
102
{ACAD_REACTORS
330
C
102
}
330
C
100
AcDbDictionary
281
     1
  0
ACDBDICTIONARYWDFLT
  5
E
102
{ACAD_REACTORS
330
C
102
}
330
C
100
AcDbDictionary
281
     1
  3
Normal
350
F
100
AcDbDictionaryWithDefault
340
F
  0
DICTIONARY
  5
47
102
{ACAD_REACTORS
330
C
102
}
330
C
100
AcDbDictionary
281
     1
  3
A0
350
48
  3
A1
350
49
  3
A2
350
4A
  3
A3
350
4B
  3
A4
350
4C
  3
A5
350
4D
  3
A6
350
4E
  3
A7
350
4F
  3
A8
350
50
  3
A9
350
51
  3
B0
350
52
  3
B1
350
53
  3
B2
350
54
  3
B3
350
55
  3
B4
350
56
  3
B5
350
57
  3
B6
350
58
  0
XRECORD
  5
1C9
102
{ACAD_REACTORS
330
C
102
}
330
C
100
AcDbXrecord
280
     1
  1
DWGPROPS COOKIE
  2

  3

  4

  6

  7

  8
itisa
  9

300
=
301
=
302
=
303
=
304
=
305
=
306
=
307
=
308
=
309
=
 40
0.0
 41
2460719.394659202
 42
2460719.394685637
  1

 90
        0
  0
LAYOUT
  5
1E
102
{ACAD_REACTORS
330
1A
102
}
330
1A
100
AcDbPlotSettings
  1

  2
none_device
  4

  6

 40
0.0
 41
0.0
 42
0.0
 43
0.0
 44
0.0
 45
0.0
 46
0.0
 47
0.0
 48
0.0
 49
0.0
140
0.0
141
0.0
142
1.0
143
1.0
 70
   688
 72
     1
 73
     0
 74
     5
  7

 75
    16
147
1.0
148
0.0
149
0.0
100
AcDbLayout
  1
Layout1
 70
     1
 71
     1
 10
0.0
 20
0.0
 11
420.0
 21
297.0
 12
0.0
 22
0.0
 32
0.0
 14
1.0000000000E+20
 24
1.0000000000E+20
 34
1.0000000000E+20
 15
-1.0000000000E+20
 25
-1.0000000000E+20
 35
-1.0000000000E+20
146
0.0
 13
0.0
 23
0.0
 33
0.0
 16
1.0
 26
0.0
 36
0.0
 17
0.0
 27
1.0
 37
0.0
 76
     0
330
1B
  0
LAYOUT
  5
26
102
{ACAD_REACTORS
330
1A
102
}
330
1A
100
AcDbPlotSettings
  1

  2
none_device
  4

  6

 40
0.0
 41
0.0
 42
0.0
 43
0.0
 44
0.0
 45
0.0
 46
0.0
 47
0.0
 48
0.0
 49
0.0
140
0.0
141
0.0
142
1.0
143
1.0
 70
   688
 72
     1
 73
     0
 74
     5
  7

 75
    16
147
1.0
148
0.0
149
0.0
100
AcDbLayout
  1
Layout2
 70
     1
 71
     2
 10
0.0
 20
0.0
 11
0.0
 21
0.0
 12
0.0
 22
0.0
 32
0.0
 14
0.0
 24
0.0
 34
0.0
 15
0.0
 25
0.0
 35
0.0
146
0.0
 13
0.0
 23
0.0
 33
0.0
 16
1.0
 26
0.0
 36
0.0
 17
0.0
 27
1.0
 37
0.0
 76
     0
330
23
  0
LAYOUT
  5
22
102
{ACAD_REACTORS
330
1A
102
}
330
1A
100
AcDbPlotSettings
  1

  2
none_device
  4
ANSI_A_(11.00_x_8.50_Inches)
  6

 40
6.35
 41
19.05
 42
6.35000508
 43
19.05000254
 44
279.4
 45
215.9
 46
205.6245664705
 47
269.1785078676
 48
0.0
 49
0.0
140
0.0
141
0.0
142
0.0197535211
143
1.0
 70
  1696
 72
     0
 73
     0
 74
     0
  7

 75
     0
147
0.0179189148
148
-1300.4909072572
149
0.0
100
AcDbLayout
  1
Model
 70
     1
 71
     0
 10
0.0
 20
0.0
 11
420.0
 21
297.0
 12
0.0
 22
0.0
 32
0.0
 14
-294.5480132425
 24
-572.3070346476
 34
0.0
 15
6.4519867575
 25
-146.3070346476
 35
0.0
146
0.0
 13
0.0
 23
0.0
 33
0.0
 16
1.0
 26
0.0
 36
0.0
 17
0.0
 27
1.0
 37
0.0
 76
     0
330
1F
331
29
  0
MLINESTYLE
  5
18
102
{ACAD_REACTORS
330
17
102
}
330
17
100
AcDbMlineStyle
  2
Standard
 70
     0
  3

 62
   256
 51
90.0
 52
90.0
 71
     2
 49
0.5
 62
   256
  6
BYLAYER
 49
-0.5
 62
   256
  6
BYLAYER
  0
ACDBPLACEHOLDER
  5
F
102
{ACAD_REACTORS
330
E
102
}
330
E
  0
SCALE
  5
48
102
{ACAD_REACTORS
330
47
102
}
330
47
100
AcDbScale
 70
     0
300
1:1
140
1.0
141
1.0
290
     1
  0
SCALE
  5
49
102
{ACAD_REACTORS
330
47
102
}
330
47
100
AcDbScale
 70
     0
300
1:2
140
1.0
141
2.0
290
     0
  0
SCALE
  5
4A
102
{ACAD_REACTORS
330
47
102
}
330
47
100
AcDbScale
 70
     0
300
1:4
140
1.0
141
4.0
290
     0
  0
SCALE
  5
4B
102
{ACAD_REACTORS
330
47
102
}
330
47
100
AcDbScale
 70
     0
300
1:5
140
1.0
141
5.0
290
     0
  0
SCALE
  5
4C
102
{ACAD_REACTORS
330
47
102
}
330
47
100
AcDbScale
 70
     0
300
1:8
140
1.0
141
8.0
290
     0
  0
SCALE
  5
4D
102
{ACAD_REACTORS
330
47
102
}
330
47
100
AcDbScale
 70
     0
300
1:10
140
1.0
141
10.0
290
     0
  0
SCALE
  5
4E
102
{ACAD_REACTORS
330
47
102
}
330
47
100
AcDbScale
 70
     0
300
1:16
140
1.0
141
16.0
290
     0
  0
SCALE
  5
4F
102
{ACAD_REACTORS
330
47
102
}
330
47
100
AcDbScale
 70
     0
300
1:20
140
1.0
141
20.0
290
     0
  0
SCALE
  5
50
102
{ACAD_REACTORS
330
47
102
}
330
47
100
AcDbScale
 70
     0
300
1:30
140
1.0
141
30.0
290
     0
  0
SCALE
  5
51
102
{ACAD_REACTORS
330
47
102
}
330
47
100
AcDbScale
 70
     0
300
1:40
140
1.0
141
40.0
290
     0
  0
SCALE
  5
52
102
{ACAD_REACTORS
330
47
102
}
330
47
100
AcDbScale
 70
     0
300
1:50
140
1.0
141
50.0
290
     0
  0
SCALE
  5
53
102
{ACAD_REACTORS
330
47
102
}
330
47
100
AcDbScale
 70
     0
300
1:100
140
1.0
141
100.0
290
     0
  0
SCALE
  5
54
102
{ACAD_REACTORS
330
47
102
}
330
47
100
AcDbScale
 70
     0
300
2:1
140
2.0
141
1.0
290
     0
  0
SCALE
  5
55
102
{ACAD_REACTORS
330
47
102
}
330
47
100
AcDbScale
 70
     0
300
4:1
140
4.0
141
1.0
290
     0
  0
SCALE
  5
56
102
{ACAD_REACTORS
330
47
102
}
330
47
100
AcDbScale
 70
     0
300
8:1
140
8.0
141
1.0
290
     0
  0
SCALE
  5
57
102
{ACAD_REACTORS
330
47
102
}
330
47
100
AcDbScale
 70
     0
300
10:1
140
10.0
141
1.0
290
     0
  0
SCALE
  5
58
102
{ACAD_REACTORS
330
47
102
}
330
47
100
AcDbScale
 70
     0
300
100:1
140
100.0
141
1.0
290
     0
  0
ENDSEC
  0
EOF
