  0
SECTION
  2
HEADER
  9
$ACADVER
  1
AC1015
  9
$ACADMAINTVER
 70
     6
  9
$DWGCODEPAGE
  3
ANSI_1252
  9
$INSBASE
 10
0.0
 20
0.0
 30
0.0
  9
$EXTMIN
 10
-246.4519867575
 20
-712.9030101261
 30
0.0
  9
$EXTMAX
 10
294.5480132425
 20
-411.9030101261
 30
0.0
  9
$LIMMIN
 10
0.0
 20
0.0
  9
$LIMMAX
 10
420.0
 20
297.0
  9
$ORTHOMODE
 70
     0
  9
$REGENMODE
 70
     1
  9
$FILLMODE
 70
     1
  9
$QTEXTMODE
 70
     0
  9
$MIRRTEXT
 70
     1
  9
$LTSCALE
 40
1.0
  9
$ATTMODE
 70
     1
  9
$TEXTSIZE
 40
3.5
  9
$TRACEWID
 40
1.0
  9
$TEXTSTYLE
  7
Standard
  9
$CLAYER
  8
0
  9
$CELTYPE
  6
ByLayer
  9
$CECOLOR
 62
   256
  9
$CELTSCALE
 40
1.0
  9
$DISPSILH
 70
     0
  9
$DIMSCALE
 40
1.0
  9
$DIMASZ
 40
3.302
  9
$DIMEXO
 40
0.0
  9
$DIMDLI
 40
3.75
  9
$DIMRND
 40
0.0
  9
$DIMDLE
 40
0.0
  9
$DIMEXE
 40
1.0
  9
$DIMTP
 40
0.0
  9
$DIMTM
 40
0.0
  9
$DIMTXT
 40
3.5
  9
$DIMCEN
 40
2.5
  9
$DIMTSZ
 40
0.0
  9
$DIMTOL
 70
     0
  9
$DIMLIM
 70
     0
  9
$DIMTIH
 70
     1
  9
$DIMTOH
 70
     1
  9
$DIMSE1
 70
     0
  9
$DIMSE2
 70
     0
  9
$DIMTAD
 70
     1
  9
$DIMZIN
 70
     1
  9
$DIMBLK
  1

  9
$DIMASO
 70
     1
  9
$DIMSHO
 70
     1
  9
$DIMPOST
  1

  9
$DIMAPOST
  1

  9
$DIMALT
 70
     0
  9
$DIMALTD
 70
     3
  9
$DIMALTF
 40
0.0393700787
  9
$DIMLFAC
 40
1.0
  9
$DIMTOFL
 70
     1
  9
$DIMTVP
 40
0.0
  9
$DIMTIX
 70
     0
  9
$DIMSOXD
 70
     0
  9
$DIMSAH
 70
     0
  9
$DIMBLK1
  1

  9
$DIMBLK2
  1

  9
$DIMSTYLE
  2
ISO-25
  9
$DIMCLRD
 70
     0
  9
$DIMCLRE
 70
     0
  9
$DIMCLRT
 70
     0
  9
$DIMTFAC
 40
1.0
  9
$DIMGAP
 40
1.524
  9
$DIMJUST
 70
     0
  9
$DIMSD1
 70
     0
  9
$DIMSD2
 70
     0
  9
$DIMTOLJ
 70
     0
  9
$DIMTZIN
 70
     1
  9
$DIMALTZ
 70
     0
  9
$DIMALTTZ
 70
     0
  9
$DIMUPT
 70
     0
  9
$DIMDEC
 70
     2
  9
$DIMTDEC
 70
     2
  9
$DIMALTU
 70
     2
  9
$DIMALTTD
 70
     3
  9
$DIMTXSTY
  7
Standard
  9
$DIMAUNIT
 70
     0
  9
$DIMADEC
 70
     2
  9
$DIMALTRND
 40
0.0
  9
$DIMAZIN
 70
     0
  9
$DIMDSEP
 70
    44
  9
$DIMATFIT
 70
     3
  9
$DIMFRAC
 70
     0
  9
$DIMLDRBLK
  1

  9
$DIMLUNIT
 70
     2
  9
$DIMLWD
 70
    -2
  9
$DIMLWE
 70
    -2
  9
$DIMTMOVE
 70
     0
  9
$LUNITS
 70
     2
  9
$LUPREC
 70
     2
  9
$SKETCHINC
 40
1.0
  9
$FILLETRAD
 40
0.0
  9
$AUNITS
 70
     0
  9
$AUPREC
 70
     2
  9
$MENU
  1
.
  9
$ELEVATION
 40
0.0
  9
$PELEVATION
 40
0.0
  9
$THICKNESS
 40
0.0
  9
$LIMCHECK
 70
     0
  9
$CHAMFERA
 40
0.0
  9
$CHAMFERB
 40
0.0
  9
$CHAMFERC
 40
0.0
  9
$CHAMFERD
 40
0.0
  9
$SKPOLY
 70
     0
  9
$TDCREATE
 40
2460691.734710186
  9
$TDUCREATE
 40
2460691.505543519
  9
$TDUPDATE
 40
2460691.734735868
  9
$TDUUPDATE
 40
2460691.505569202
  9
$TDINDWG
 40
0.0000000116
  9
$TDUSRTIMER
 40
0.0000000116
  9
$USRTIMER
 70
     1
  9
$ANGBASE
 50
0.0
  9
$ANGDIR
 70
     0
  9
$PDMODE
 70
     0
  9
$PDSIZE
 40
-1.0
  9
$PLINEWID
 40
0.0
  9
$SPLFRAME
 70
     0
  9
$SPLINETYPE
 70
     6
  9
$SPLINESEGS
 70
     8
  9
$HANDSEED
  5
12E
  9
$SURFTAB1
 70
     6
  9
$SURFTAB2
 70
     6
  9
$SURFTYPE
 70
     6
  9
$SURFU
 70
     6
  9
$SURFV
 70
     6
  9
$UCSBASE
  2

  9
$UCSNAME
  2

  9
$UCSORG
 10
0.0
 20
0.0
 30
0.0
  9
$UCSXDIR
 10
1.0
 20
0.0
 30
0.0
  9
$UCSYDIR
 10
0.0
 20
1.0
 30
0.0
  9
$UCSORTHOREF
  2

  9
$UCSORTHOVIEW
 70
     0
  9
$UCSORGTOP
 10
0.0
 20
0.0
 30
0.0
  9
$UCSORGBOTTOM
 10
0.0
 20
0.0
 30
0.0
  9
$UCSORGLEFT
 10
0.0
 20
0.0
 30
0.0
  9
$UCSORGRIGHT
 10
0.0
 20
0.0
 30
0.0
  9
$UCSORGFRONT
 10
0.0
 20
0.0
 30
0.0
  9
$UCSORGBACK
 10
0.0
 20
0.0
 30
0.0
  9
$PUCSBASE
  2

  9
$PUCSNAME
  2

  9
$PUCSORG
 10
0.0
 20
0.0
 30
0.0
  9
$PUCSXDIR
 10
1.0
 20
0.0
 30
0.0
  9
$PUCSYDIR
 10
0.0
 20
1.0
 30
0.0
  9
$PUCSORTHOREF
  2

  9
$PUCSORTHOVIEW
 70
     0
  9
$PUCSORGTOP
 10
0.0
 20
0.0
 30
0.0
  9
$PUCSORGBOTTOM
 10
0.0
 20
0.0
 30
0.0
  9
$PUCSORGLEFT
 10
0.0
 20
0.0
 30
0.0
  9
$PUCSORGRIGHT
 10
0.0
 20
0.0
 30
0.0
  9
$PUCSORGFRONT
 10
0.0
 20
0.0
 30
0.0
  9
$PUCSORGBACK
 10
0.0
 20
0.0
 30
0.0
  9
$USERI1
 70
     0
  9
$USERI2
 70
     0
  9
$USERI3
 70
     0
  9
$USERI4
 70
     0
  9
$USERI5
 70
     0
  9
$USERR1
 40
0.0
  9
$USERR2
 40
0.0
  9
$USERR3
 40
0.0
  9
$USERR4
 40
0.0
  9
$USERR5
 40
0.0
  9
$WORLDVIEW
 70
     1
  9
$SHADEDGE
 70
     3
  9
$SHADEDIF
 70
    70
  9
$TILEMODE
 70
     1
  9
$MAXACTVP
 70
    64
  9
$PINSBASE
 10
0.0
 20
0.0
 30
0.0
  9
$PLIMCHECK
 70
     0
  9
$PEXTMIN
 10
1.0000000000E+20
 20
1.0000000000E+20
 30
1.0000000000E+20
  9
$PEXTMAX
 10
-1.0000000000E+20
 20
-1.0000000000E+20
 30
-1.0000000000E+20
  9
$PLIMMIN
 10
0.0
 20
0.0
  9
$PLIMMAX
 10
420.0
 20
297.0
  9
$UNITMODE
 70
     0
  9
$VISRETAIN
 70
     1
  9
$PLINEGEN
 70
     0
  9
$PSLTSCALE
 70
     1
  9
$TREEDEPTH
 70
  3020
  9
$CMLSTYLE
  2
Standard
  9
$CMLJUST
 70
     0
  9
$CMLSCALE
 40
20.0
  9
$PROXYGRAPHICS
 70
     1
  9
$MEASUREMENT
 70
     1
  9
$CELWEIGHT
370
    -1
  9
$ENDCAPS
280
     0
  9
$JOINSTYLE
280
     0
  9
$LWDISPLAY
290
     1
  9
$INSUNITS
 70
     4
  9
$HYPERLINKBASE
  1

  9
$STYLESHEET
  1

  9
$XEDIT
290
     1
  9
$CEPSNTYPE
380
     0
  9
$PSTYLEMODE
290
     1
  9
$FINGERPRINTGUID
  2
{eed97560-8a68-4e9a-ace6-8b4069bb2b17}
  9
$VERSIONGUID
  2
{FAEB1C32-E019-11D5-929B-00C0DF256EC4}
  9
$EXTNAMES
290
     1
  9
$PSVPSCALE
 40
0.0
  9
$OLESTARTUP
290
     0
  0
ENDSEC
  0
SECTION
  2
CLASSES
  0
CLASS
  1
ACDBDICTIONARYWDFLT
  2
AcDbDictionaryWithDefault
  3
ObjectDBX Classes
 90
        0
280
     0
281
     0
  0
CLASS
  1
VISUALSTYLE
  2
AcDbVisualStyle
  3
ObjectDBX Classes
 90
     4095
280
     0
281
     0
  0
CLASS
  1
MATERIAL
  2
AcDbMaterial
  3
ObjectDBX Classes
 90
     1153
280
     0
281
     0
  0
CLASS
  1
SCALE
  2
AcDbScale
  3
ObjectDBX Classes
 90
     1153
280
     0
281
     0
  0
CLASS
  1
TABLESTYLE
  2
AcDbTableStyle
  3
ObjectDBX Classes
 90
     4095
280
     0
281
     0
  0
CLASS
  1
MLEADERSTYLE
  2
AcDbMLeaderStyle
  3
ACDB_MLEADERSTYLE_CLASS
 90
     4095
280
     0
281
     0
  0
CLASS
  1
SUN
  2
AcDbSun
  3
SCENEOE
 90
     1153
280
     0
281
     0
  0
CLASS
  1
ACDBPLACEHOLDER
  2
AcDbPlaceHolder
  3
ObjectDBX Classes
 90
        0
280
     0
281
     0
  0
CLASS
  1
LAYOUT
  2
AcDbLayout
  3
ObjectDBX Classes
 90
        0
280
     0
281
     0
  0
ENDSEC
  0
SECTION
  2
TABLES
  0
TABLE
  2
VPORT
  5
8
330
0
100
AcDbSymbolTable
 70
     1
  0
VPORT
  5
29
330
8
100
AcDbSymbolTableRecord
100
AcDbViewportTableRecord
  2
*Active
 70
     0
 10
0.0
 20
0.0
 11
1.0
 21
1.0
 12
24.0480132425
 22
-562.4030101261
 13
0.0
 23
0.0
 14
10.0
 24
10.0
 15
10.0
 25
10.0
 16
0.0
 26
0.0
 36
1.0
 17
0.0
 27
0.0
 37
0.0
 40
307.02
 41
1.7973421927
 42
50.0
 43
0.0
 44
0.0
 50
0.0
 51
0.0
 71
     0
 72
   100
 73
     1
 74
     3
 75
     0
 76
     0
 77
     0
 78
     0
281
     0
 65
     1
110
0.0
120
0.0
130
0.0
111
1.0
121
0.0
131
0.0
112
0.0
122
1.0
132
0.0
 79
     0
146
0.0
  0
ENDTAB
  0
TABLE
  2
LTYPE
  5
5
330
0
100
AcDbSymbolTable
 70
     6
  0
LTYPE
  5
14
330
5
100
AcDbSymbolTableRecord
100
AcDbLinetypeTableRecord
  2
ByBlock
 70
     0
  3

 72
    65
 73
     0
 40
0.0
  0
LTYPE
  5
15
330
5
100
AcDbSymbolTableRecord
100
AcDbLinetypeTableRecord
  2
ByLayer
 70
     0
  3

 72
    65
 73
     0
 40
0.0
  0
LTYPE
  5
16
330
5
100
AcDbSymbolTableRecord
100
AcDbLinetypeTableRecord
  2
Continuous
 70
     0
  3
Solid line
 72
    65
 73
     0
 40
0.0
  0
LTYPE
  5
5E
330
5
100
AcDbSymbolTableRecord
100
AcDbLinetypeTableRecord
  2
HIDDEN
 70
     0
  3
Hidden __ __ __ __ __ __ __ __ __ __ __ __ __ __
 72
    65
 73
     2
 40
1.905
 49
1.27
 74
     0
 49
-0.635
 74
     0
  0
LTYPE
  5
5F
330
5
100
AcDbSymbolTableRecord
100
AcDbLinetypeTableRecord
  2
PHANTOM
 70
     0
  3
Phantom ______  __  __  ______  __  __  ______
 72
    65
 73
     6
 40
12.7
 49
6.35
 74
     0
 49
-1.27
 74
     0
 49
1.27
 74
     0
 49
-1.27
 74
     0
 49
1.27
 74
     0
 49
-1.27
 74
     0
  0
LTYPE
  5
60
330
5
100
AcDbSymbolTableRecord
100
AcDbLinetypeTableRecord
  2
CENTER
 70
     0
  3
Center ____ _ ____ _ ____ _ ____ _ ____ _ ____
 72
    65
 73
     4
 40
10.16
 49
6.35
 74
     0
 49
-1.27
 74
     0
 49
1.27
 74
     0
 49
-1.27
 74
     0
  0
LTYPE
  5
61
330
5
100
AcDbSymbolTableRecord
100
AcDbLinetypeTableRecord
  2
CENTERX2
 70
     0
  3
Center (2x) ________  __  ________  __  _____
 72
    65
 73
     4
 40
20.32
 49
12.7
 74
     0
 49
-2.54
 74
     0
 49
2.54
 74
     0
 49
-2.54
 74
     0
  0
LTYPE
  5
62
330
5
100
AcDbSymbolTableRecord
100
AcDbLinetypeTableRecord
  2
DOT2
 70
     0
  3
Dot (.5x) ........................................
 72
    65
 73
     2
 40
0.635
 49
0.0
 74
     0
 49
-0.635
 74
     0
  0
ENDTAB
  0
TABLE
  2
LAYER
  5
2
330
0
100
AcDbSymbolTable
 70
     1
  0
LAYER
  5
10
330
2
100
AcDbSymbolTableRecord
100
AcDbLayerTableRecord
  2
0
 70
     0
 62
     7
  6
Continuous
370
    -3
390
F
  0
ENDTAB
  0
TABLE
  2
STYLE
  5
3
330
0
100
AcDbSymbolTable
 70
     1
  0
STYLE
  5
11
330
3
100
AcDbSymbolTableRecord
100
AcDbTextStyleTableRecord
  2
Standard
 70
     0
 40
0.0
 41
1.0
 50
0.0
 71
     0
 42
3.5
  3
txt
  4

  0
ENDTAB
  0
TABLE
  2
VIEW
  5
6
330
0
100
AcDbSymbolTable
 70
     0
  0
ENDTAB
  0
TABLE
  2
UCS
  5
7
330
0
100
AcDbSymbolTable
 70
     0
  0
ENDTAB
  0
TABLE
  2
APPID
  5
9
330
0
100
AcDbSymbolTable
 70
     1
  0
APPID
  5
12
330
9
100
AcDbSymbolTableRecord
100
AcDbRegAppTableRecord
  2
ACAD
 70
     0
  0
ENDTAB
  0
TABLE
  2
DIMSTYLE
  5
A
330
0
100
AcDbSymbolTable
 70
     1
100
AcDbDimStyleTable
  0
DIMSTYLE
105
27
330
A
100
AcDbSymbolTableRecord
100
AcDbDimStyleTableRecord
  2
ISO-25
 70
     0
 41
2.5
 42
0.625
 43
3.75
 44
1.25
 73
     0
 74
     0
 77
     1
 78
     8
140
2.5
141
2.5
143
0.0393700787
147
0.625
171
     3
172
     1
178
     0
271
     2
272
     2
274
     3
278
    44
283
     0
284
     8
340
11
  0
ENDTAB
  0
TABLE
  2
BLOCK_RECORD
  5
1
330
0
100
AcDbSymbolTable
 70
     1
  0
BLOCK_RECORD
  5
1F
330
1
100
AcDbSymbolTableRecord
100
AcDbBlockTableRecord
  2
*Model_Space
340
22
  0
BLOCK_RECORD
  5
1B
330
1
100
AcDbSymbolTableRecord
100
AcDbBlockTableRecord
  2
*Paper_Space
340
1E
  0
BLOCK_RECORD
  5
23
330
1
100
AcDbSymbolTableRecord
100
AcDbBlockTableRecord
  2
*Paper_Space0
340
26
  0
ENDTAB
  0
ENDSEC
  0
SECTION
  2
BLOCKS
  0
BLOCK
  5
20
330
1F
100
AcDbEntity
  8
0
100
AcDbBlockBegin
  2
*Model_Space
 70
     0
 10
0.0
 20
0.0
 30
0.0
  3
*Model_Space
  1

  0
ENDBLK
  5
21
330
1F
100
AcDbEntity
  8
0
100
AcDbBlockEnd
  0
BLOCK
  5
1C
330
1B
100
AcDbEntity
 67
     1
  8
0
100
AcDbBlockBegin
  2
*Paper_Space
 70
     0
 10
0.0
 20
0.0
 30
0.0
  3
*Paper_Space
  1

  0
ENDBLK
  5
1D
330
1B
100
AcDbEntity
 67
     1
  8
0
100
AcDbBlockEnd
  0
BLOCK
  5
24
330
23
100
AcDbEntity
  8
0
100
AcDbBlockBegin
  2
*Paper_Space0
 70
     0
 10
0.0
 20
0.0
 30
0.0
  3
*Paper_Space0
  1

  0
ENDBLK
  5
25
330
23
100
AcDbEntity
  8
0
100
AcDbBlockEnd
  0
ENDSEC
  0
SECTION
  2
ENTITIES
  0
SPLINE
  5
79
330
1F
100
AcDbEntity
  8
0
  6
Continuous
 62
     7
370
    25
100
AcDbSpline
210
0.0
220
0.0
230
1.0
 70
     8
 71
     3
 72
    23
 73
    19
 74
     0
 42
0.00000001
 43
0.00000001
 40
0.0
 40
0.0
 40
0.0
 40
0.0
 40
0.0698651594446925
 40
0.1379745548114043
 40
0.2065245627954165
 40
0.2762128412917776
 40
0.3466856062247493
 40
0.417007858413101
 40
0.4860724886754547
 40
0.5447664646910929
 40
0.6016257255546928
 40
0.6571506311414247
 40
0.7128305030091919
 40
0.7592466492148641
 40
0.809204226501646
 40
0.8646772176232523
 40
0.9276500345781314
 40
1.0
 40
1.0
 40
1.0
 40
1.0
 10
51.9838532077663
 20
-527.9338849588303
 30
0.0
 10
52.49710689137484
 20
-529.5940340905784
 30
0.0
 10
53.51071580694974
 20
-532.8726115560003
 30
0.0
 10
56.27528094513583
 20
-537.2356970337137
 30
0.0
 10
59.60713651821384
 20
-541.1214078739137
 30
0.0
 10
63.39498448727009
 20
-544.6527973876284
 30
0.0
 10
67.4167575136821
 20
-547.9720049738658
 30
0.0
 10
71.48873623571292
 20
-551.2038722608006
 30
0.0
 10
75.26262382015496
 20
-554.3425766518983
 30
0.0
 10
78.58766902370552
 20
-557.4893814470968
 30
0.0
 10
81.36688271376961
 20
-560.702502021634
 30
0.0
 10
83.617790593805
 20
-564.2278035849054
 30
0.0
 10
85.06866387350327
 20
-567.8842751383162
 30
0.0
 10
85.74941061868377
 20
-571.6085702793607
 30
0.0
 10
85.76434675929913
 20
-575.3894731899851
 30
0.0
 10
85.08859042685255
 20
-579.5212736373074
 30
0.0
 10
83.69141646150032
 20
-584.0546654074351
 30
0.0
 10
82.2573974073613
 20
-587.0885505039948
 30
0.0
 10
81.49070293685884
 20
-588.7106090958653
 30
0.0
  0
SPLINE
  5
7A
330
1F
100
AcDbEntity
  8
0
  6
Continuous
 62
     7
370
    25
100
AcDbSpline
210
0.0
220
0.0
230
1.0
 70
     8
 71
     3
 72
    22
 73
    18
 74
     0
 42
0.00000001
 43
0.00000001
 40
0.0
 40
0.0
 40
0.0
 40
0.0
 40
0.0699093016454723
 40
0.1336193661480005
 40
0.1945935058861488
 40
0.2552557304854039
 40
0.3376361750933237
 40
0.4219868945950707
 40
0.5068785054119268
 40
0.5902057409689407
 40
0.6701792646520127
 40
0.7464794266307905
 40
0.7915218481184945
 40
0.8374267251560232
 40
0.8860108415417297
 40
0.9394442524414622
 40
1.0
 40
1.0
 40
1.0
 40
1.0
 10
81.49070293685884
 20
-588.7106090958653
 30
0.0
 10
81.62192642369311
 20
-587.0201751651759
 30
0.0
 10
81.87273709869375
 20
-583.7892072536489
 30
0.0
 10
80.98540614693158
 20
-579.1191767576545
 30
0.0
 10
79.28957514558711
 20
-574.9499987751086
 30
0.0
 10
76.6307220315123
 20
-570.7733568177199
 30
0.0
 10
72.98026881026625
 20
-566.6421122004012
 30
0.0
 10
68.49526345880071
 20
-562.5320569541459
 30
0.0
 10
63.83139119680944
 20
-558.5976475869146
 30
0.0
 10
59.31743355253711
 20
-554.6471219377235
 30
0.0
 10
55.28013932696449
 20
-550.4832577210179
 30
0.0
 10
52.47978628478418
 20
-546.4580925559444
 30
0.0
 10
50.88277264355661
 20
-542.7266243146829
 30
0.0
 10
50.12246151686392
 20
-539.4211555232023
 30
0.0
 10
50.00526812469175
 20
-535.8301171660845
 30
0.0
 10
50.57279420213249
 20
-531.9167776431352
 30
0.0
 10
51.49430736603812
 20
-529.3156900739007
 30
0.0
 10
51.9838532077663
 20
-527.9338849588303
 30
0.0
  0
SPLINE
  5
7B
330
1F
100
AcDbEntity
  8
0
  6
Continuous
 62
     7
370
    25
100
AcDbSpline
210
0.0
220
0.0
230
1.0
 70
     8
 71
     3
 72
    23
 73
    19
 74
     0
 42
0.00000001
 43
0.00000001
 40
0.0
 40
0.0
 40
0.0
 40
0.0
 40
0.0698651594446922
 40
0.1379745548114039
 40
0.2065245627954154
 40
0.2762128412917768
 40
0.3466856062247489
 40
0.4170078584131005
 40
0.4860724886754542
 40
0.5447664646910934
 40
0.601625725554692
 40
0.6571506311414244
 40
0.7128305030091919
 40
0.7592466492148628
 40
0.8092042265016455
 40
0.8646772176232522
 40
0.9276500345781311
 40
0.9999999999999999
 40
0.9999999999999999
 40
0.9999999999999999
 40
0.9999999999999999
 10
65.46274864529609
 20
-578.3200273053295
 30
0.0
 10
64.04245710618594
 20
-579.3211748605448
 30
0.0
 10
61.2375670240806
 20
-581.2983103788672
 30
0.0
 10
57.94232375910441
 20
-585.2758356287858
 30
0.0
 10
55.27639313897773
 20
-589.6453692677644
 30
0.0
 10
53.08835152492991
 20
-594.339086134966
 30
0.0
 10
51.17439373378281
 20
-599.1897111308014
 30
0.0
 10
49.35901591658275
 20
-604.0610949438307
 30
0.0
 10
47.54012605115828
 20
-608.6201883199485
 30
0.0
 10
45.57483232013792
 20
-612.754910387458
 30
0.0
 10
43.37779732131158
 20
-616.3910085400779
 30
0.0
 10
40.72060508536019
 20
-619.6211272403132
 30
0.0
 10
37.69143848795237
 20
-622.1309015767412
 30
0.0
 10
34.35978563858172
 20
-623.9292006953427
 30
0.0
 10
30.76854880923347
 20
-625.1117690626676
 30
0.0
 10
26.63015287899404
 20
-625.7458831548556
 30
0.0
 10
21.88689059570313
 20
-625.8179868498381
 30
0.0
 10
18.55835814694283
 20
-625.3916757377253
 30
0.0
 10
16.77876713245336
 20
-625.1637496363065
 30
0.0
  0
SPLINE
  5
7C
330
1F
100
AcDbEntity
  8
0
  6
Continuous
 62
     7
370
    25
100
AcDbSpline
210
0.0
220
0.0
230
1.0
 70
     8
 71
     3
 72
    22
 73
    18
 74
     0
 42
0.00000001
 43
0.00000001
 40
0.0
 40
0.0
 40
0.0
 40
0.0
 40
0.0699093016454717
 40
0.1336193661480007
 40
0.1945935058861482
 40
0.2552557304854041
 40
0.3376361750933237
 40
0.4219868945950708
 40
0.5068785054119278
 40
0.5902057409689405
 40
0.6701792646520124
 40
0.7464794266307921
 40
0.791521848118495
 40
0.8374267251560236
 40
0.8860108415417303
 40
0.9394442524414628
 40
1.0
 40
1.0
 40
1.0
 40
1.0
 10
16.77876713245336
 20
-625.1637496363065
 30
0.0
 10
18.42701562509475
 20
-624.7661777761001
 30
0.0
 10
21.57735347223882
 20
-624.006288909974
 30
0.0
 10
25.74461606302225
 20
-621.7192682386786
 30
0.0
 10
29.18569935191303
 20
-618.8180902651342
 30
0.0
 10
32.33629110392408
 20
-614.9987173408691
 30
0.0
 10
35.13728613509784
 20
-610.2503052227011
 30
0.0
 10
37.66023808591716
 20
-604.7147347386582
 30
0.0
 10
39.96086796384586
 20
-599.0633292754206
 30
0.0
 10
42.32315150133115
 20
-593.5495208812412
 30
0.0
 10
45.03562917060358
 20
-588.4231210945778
 30
0.0
 10
47.99843204972787
 20
-584.5159826447111
 30
0.0
 10
51.05376488054014
 20
-581.8440453140893
 30
0.0
 10
53.96250345492738
 20
-580.0995004316931
 30
0.0
 10
57.34156913492077
 20
-578.8783510125993
 30
0.0
 10
61.23875139137687
 20
-578.2088119693665
 30
0.0
 10
63.99729590173877
 20
-578.2814428059999
 30
0.0
 10
65.46274864529609
 20
-578.3200273053295
 30
0.0
  0
SPLINE
  5
7D
330
1F
100
AcDbEntity
  8
0
  6
Continuous
 62
     7
370
    25
100
AcDbSpline
210
0.0
220
0.0
230
1.0
 70
     8
 71
     3
 72
    23
 73
    19
 74
     0
 42
0.00000001
 43
0.00000001
 40
0.0
 40
0.0
 40
0.0
 40
0.0
 40
0.0698651594446923
 40
0.137974554811404
 40
0.2065245627954159
 40
0.2762128412917773
 40
0.346685606224749
 40
0.4170078584131005
 40
0.4860724886754537
 40
0.544766464691093
 40
0.601625725554692
 40
0.6571506311414244
 40
0.712830503009192
 40
0.7592466492148632
 40
0.8092042265016455
 40
0.8646772176232521
 40
0.9276500345781311
 40
1.0
 40
1.0
 40
1.0
 40
1.0
 10
-0.1014235574465297
 20
-525.1829020310907
 30
0.0
 10
1.636076202984768
 20
-525.2077830656893
 30
0.0
 10
5.067411046215303
 20
-525.2569198557471
 30
0.0
 10
10.07124953070359
 20
-523.9759297268769
 30
0.0
 10
14.7963801405982
 20
-522.0078974575953
 30
0.0
 10
19.32544054374
 20
-519.4966993373844
 30
0.0
 10
23.72499076024727
 20
-516.6974574455605
 30
0.0
 10
28.05698982912864
 20
-513.8234774629854
 30
0.0
 10
32.20827049145961
 20
-511.2042100812048
 30
0.0
 10
36.22855517240391
 20
-509.014320333089
 30
0.0
 10
40.14323869368893
 20
-507.3640399054846
 30
0.0
 10
44.19156850504712
 20
-506.3126773919444
 30
0.0
 10
48.1174241026775
 20
-506.0627267544211
 30
0.0
 10
51.86980157830053
 20
-506.5661686171213
 30
0.0
 10
55.47026945020982
 20
-507.7203267567254
 30
0.0
 10
59.19102499888434
 20
-509.639805775715
 30
0.0
 10
63.07078628339108
 20
-512.3694922789902
 30
0.0
 10
65.51304621617848
 20
-514.6708474987382
 30
0.0
 10
66.81879398891084
 20
-515.9012609416772
 30
0.0
  0
SPLINE
  5
7E
330
1F
100
AcDbEntity
  8
0
  6
Continuous
 62
     7
370
    25
100
AcDbSpline
210
0.0
220
0.0
230
1.0
 70
     8
 71
     3
 72
    22
 73
    18
 74
     0
 42
0.00000001
 43
0.00000001
 40
0.0
 40
0.0
 40
0.0
 40
0.0
 40
0.0699093016454718
 40
0.1336193661480007
 40
0.1945935058861484
 40
0.2552557304854042
 40
0.3376361750933241
 40
0.4219868945950714
 40
0.5068785054119275
 40
0.5902057409689405
 40
0.6701792646520126
 40
0.7464794266307916
 40
0.791521848118495
 40
0.8374267251560231
 40
0.8860108415417299
 40
0.9394442524414627
 40
1.0
 40
1.0
 40
1.0
 40
1.0
 10
66.81879398891084
 20
-515.9012609416772
 30
0.0
 10
65.25164607125531
 20
-515.2540871769814
 30
0.0
 10
62.25631774600294
 20
-514.0171280572237
 30
0.0
 10
57.54065446776071
 20
-513.4179111534958
 30
0.0
 10
53.05148998086327
 20
-513.7423954286792
 30
0.0
 10
48.25763663326051
 20
-514.9804616644394
 30
0.0
 10
43.20053743701522
 20
-517.1756241932646
 30
0.0
 10
37.905699739265
 20
-520.1710408394816
 30
0.0
 10
32.7226382842379
 20
-523.3908475881143
 30
0.0
 10
27.57057549881489
 20
-526.4630968576657
 30
0.0
 10
22.36291277555499
 20
-529.0160870338656
 30
0.0
 10
17.66939653586402
 20
-530.4355366013843
 30
0.0
 10
13.62705499427594
 20
-530.8012997309656
 30
0.0
 10
10.24841830156784
 20
-530.5029525514752
 30
0.0
 10
6.796923121955214
 20
-529.5047182109655
 30
0.0
 10
3.250491270859364
 20
-527.7556804194978
 30
0.0
 10
1.061473216871618
 20
-526.0754890573626
 30
0.0
 10
-0.1014235574465297
 20
-525.1829020310907
 30
0.0
  0
SPLINE
  5
7F
330
1F
100
AcDbEntity
  8
0
  6
Continuous
 62
     7
370
    25
100
AcDbSpline
210
0.0
220
0.0
230
1.0
 70
     8
 71
     3
 72
    23
 73
    19
 74
     0
 42
0.00000001
 43
0.00000001
 40
0.0
 40
0.0
 40
0.0
 40
0.0
 40
0.0698651594446925
 40
0.1379745548114046
 40
0.2065245627954158
 40
0.2762128412917771
 40
0.3466856062247488
 40
0.4170078584131003
 40
0.4860724886754538
 40
0.5447664646910931
 40
0.601625725554691
 40
0.6571506311414235
 40
0.7128305030091919
 40
0.7592466492148635
 40
0.8092042265016449
 40
0.8646772176232523
 40
0.9276500345781312
 40
1.0
 40
1.0
 40
1.0
 40
1.0
 10
-18.81299947426318
 20
-573.8688434257762
 30
0.0
 10
-18.25241925048039
 20
-572.2240716190854
 30
0.0
 10
-17.14534660615703
 20
-568.9758623600172
 30
0.0
 10
-16.81736948671464
 20
-563.8210814434087
 30
0.0
 10
-17.2289337415953
 20
-558.7190597698363
 30
0.0
 10
-18.21766844440863
 20
-553.6356644653465
 30
0.0
 10
-19.52036990180717
 20
-548.5864302472295
 30
0.0
 10
-20.91502596003643
 20
-543.5783456480763
 30
0.0
 10
-22.12328099831788
 20
-538.8208449894141
 30
0.0
 10
-22.96365362459422
 20
-534.3206138982654
 30
0.0
 10
-23.32345984330519
 20
-530.0875639284999
 30
0.0
 10
-23.07236230225172
 20
-525.9124845973631
 30
0.0
 10
-22.09692338769043
 20
-522.1015350544533
 30
0.0
 10
-20.45857331431643
 20
-518.688384095917
 30
0.0
 10
-18.24829793468975
 20
-515.6207901439603
 30
0.0
 10
-15.27298820933268
 20
-512.6752929710657
 30
0.0
 10
-11.47798990191931
 20
-509.8289402385939
 30
0.0
 10
-8.534571199955653
 20
-508.2173708880255
 30
0.0
 10
-6.960880225170135
 20
-507.355749624106
 30
0.0
  0
SPLINE
  5
80
330
1F
100
AcDbEntity
  8
0
  6
Continuous
 62
     7
370
    25
100
AcDbSpline
210
0.0
220
0.0
230
1.0
 70
     8
 71
     3
 72
    22
 73
    18
 74
     0
 42
0.00000001
 43
0.00000001
 40
0.0
 40
0.0
 40
0.0
 40
0.0
 40
0.0699093016454716
 40
0.1336193661480017
 40
0.1945935058861483
 40
0.2552557304854046
 40
0.3376361750933252
 40
0.4219868945950714
 40
0.5068785054119279
 40
0.5902057409689407
 40
0.6701792646520126
 40
0.7464794266307916
 40
0.7915218481184957
 40
0.837426725156024
 40
0.8860108415417307
 40
0.9394442524414627
 40
1.0
 40
1.0
 40
1.0
 40
1.0
 10
-6.960880225170135
 20
-507.355749624106
 30
0.0
 10
-8.060654390514141
 20
-508.6462081715861
 30
0.0
 10
-10.16267977798607
 20
-511.1126933044087
 30
0.0
 10
-12.18978901167724
 20
-515.4123873872659
 30
0.0
 10
-13.26841424432439
 20
-519.7821076806899
 30
0.0
 10
-13.57232543615051
 20
-524.7239166521025
 30
0.0
 10
-13.04733140266389
 20
-530.2118463230645
 30
0.0
 10
-11.83471571332206
 20
-536.1731708671498
 30
0.0
 10
-10.37415159631713
 20
-542.0975302422422
 30
0.0
 10
-9.044343865609553
 20
-547.9468103619281
 30
0.0
 10
-8.225562204957368
 20
-553.6885092804696
 30
0.0
 10
-8.325961725655695
 20
-558.5909425235864
 30
0.0
 10
-9.22725255126513
 20
-562.548464810761
 30
0.0
 10
-10.55505373630358
 20
-565.6695449048683
 30
0.0
 10
-12.5710016771384
 20
-568.6436405108141
 30
0.0
 10
-15.33034317734161
 20
-571.476015231028
 30
0.0
 10
-17.60474390059879
 20
-573.0386874308589
 30
0.0
 10
-18.81299947426318
 20
-573.8688434257762
 30
0.0
  0
SPLINE
  5
81
330
1F
100
AcDbEntity
  8
0
  6
Continuous
 62
     7
370
    25
100
AcDbSpline
210
0.0
220
0.0
230
1.0
 70
     8
 71
     3
 72
    23
 73
    19
 74
     0
 42
0.00000001
 43
0.00000001
 40
0.0
 40
0.0
 40
0.0
 40
0.0
 40
0.0698651594446923
 40
0.1379745548114042
 40
0.2065245627954156
 40
0.2762128412917771
 40
0.3466856062247485
 40
0.4170078584131002
 40
0.4860724886754534
 40
0.5447664646910927
 40
0.6016257255546916
 40
0.6571506311414241
 40
0.7128305030091917
 40
0.759246649214863
 40
0.8092042265016449
 40
0.8646772176232516
 40
0.9276500345781302
 40
1.0
 40
1.0
 40
1.0
 40
1.0
 10
21.70788739128245
 20
-606.7093929097165
 30
0.0
 10
20.31684526256996
 20
-605.6679869948454
 30
0.0
 10
17.56971894154649
 20
-603.6113464801114
 30
0.0
 10
12.76858146440595
 20
-601.7065067979584
 30
0.0
 10
7.789090156440526
 20
-600.5213162616335
 30
0.0
 10
2.648958101103646
 20
-599.8908033054178
 30
0.0
 10
-2.555705893270015
 20
-599.5694468332866
 30
0.0
 10
-7.749649808752951
 20
-599.3482603150497
 30
0.0
 10
-12.64767315182017
 20
-599.0272305882773
 30
0.0
 10
-17.18733667901826
 20
-598.4358245648341
 30
0.0
 10
-21.32439267283023
 20
-597.4699362350466
 30
0.0
 10
-25.21753566932578
 20
-595.9409578162171
 30
0.0
 10
-28.540536863808
 20
-593.835612106811
 30
0.0
 10
-31.28035830861493
 20
-591.2227269430014
 30
0.0
 10
-33.51480087141791
 20
-588.1726914774039
 30
0.0
 10
-35.39671388276352
 20
-584.4327950917993
 30
0.0
 10
-36.93103722604051
 20
-579.9439658558852
 30
0.0
 10
-37.5541643578922
 20
-576.6466060022582
 30
0.0
 10
-37.88731762041814
 20
-574.8836813327875
 30
0.0
  0
SPLINE
  5
82
330
1F
100
AcDbEntity
  8
0
  6
Continuous
 62
     7
370
    25
100
AcDbSpline
210
0.0
220
0.0
230
1.0
 70
     8
 71
     3
 72
    22
 73
    18
 74
     0
 42
0.00000001
 43
0.00000001
 40
0.0
 40
0.0
 40
0.0
 40
0.0
 40
0.0699093016454726
 40
0.133619366148001
 40
0.1945935058861491
 40
0.2552557304854046
 40
0.3376361750933246
 40
0.4219868945950717
 40
0.5068785054119278
 40
0.5902057409689409
 40
0.6701792646520128
 40
0.746479426630792
 40
0.7915218481184956
 40
0.8374267251560236
 40
0.8860108415417305
 40
0.9394442524414622
 40
1.0
 40
1.0
 40
1.0
 40
1.0
 10
-37.88731762041814
 20
-574.8836813327875
 30
0.0
 10
-36.99986751689427
 20
-576.3284023408988
 30
0.0
 10
-35.30366232631476
 20
-579.0897331054872
 30
0.0
 10
-31.84082145340245
 20
-582.3463070936477
 30
0.0
 10
-28.01828402140428
 20
-584.7224584811302
 30
0.0
 10
-23.41225811991151
 20
-586.5385981556126
 30
0.0
 10
-18.03069476708063
 20
-587.7351626913107
 30
0.0
 10
-11.9864193580258
 20
-588.4240472313077
 30
0.0
 10
-5.900679635941181
 20
-588.8656959380513
 30
0.0
 10
0.0732495255614529
 20
-589.4085005921847
 30
0.0
 10
5.786947144469479
 20
-590.4040755008118
 30
0.0
 10
10.41841306791467
 20
-592.0144963051173
 30
0.0
 10
13.90372624552761
 20
-594.0946164602444
 30
0.0
 10
16.46173667557957
 20
-596.3218972195044
 30
0.0
 10
18.66730750820583
 20
-599.1582237302799
 30
0.0
 10
20.50837252560802
 20
-602.6577653677161
 30
0.0
 10
21.29173362858542
 20
-605.3037412626212
 30
0.0
 10
21.70788739128245
 20
-606.7093929097165
 30
0.0
  0
LINE
  5
CF
330
1F
100
AcDbEntity
  8
0
  6
Continuous
 62
     7
370
    25
100
AcDbLine
 10
-32.4519867575
 20
-702.9030101261
 30
0.0
 11
-7.4519867575
 21
-702.9030101261
 31
0.0
  0
LINE
  5
D0
330
1F
100
AcDbEntity
  8
0
  6
Continuous
 62
     7
370
    25
100
AcDbLine
 10
-32.4519867575
 20
-712.9030101261
 30
0.0
 11
-81.7019867575
 21
-712.9030101261
 31
0.0
  0
LINE
  5
D1
330
1F
100
AcDbEntity
  8
0
  6
Continuous
 62
     7
370
    25
100
AcDbLine
 10
-81.7019867575
 20
-411.9030101261
 30
0.0
 11
-32.4519867575
 21
-411.9030101261
 31
0.0
  0
LINE
  5
D2
330
1F
100
AcDbEntity
  8
0
  6
Continuous
 62
     7
370
    25
100
AcDbLine
 10
-32.4519867575
 20
-411.9030101261
 30
0.0
 11
-32.4519867575
 21
-421.9030101261
 31
0.0
  0
LINE
  5
D3
330
1F
100
AcDbEntity
  8
0
  6
Continuous
 62
     7
370
    25
100
AcDbLine
 10
-32.4519867575
 20
-421.9030101261
 30
0.0
 11
-7.4519867575
 21
-421.9030101261
 31
0.0
  0
LINE
  5
D4
330
1F
100
AcDbEntity
  8
0
  6
Continuous
 62
     7
370
    25
100
AcDbLine
 10
-7.4519867575
 20
-411.9030101261
 30
0.0
 11
-7.4519867575
 21
-421.9030101261
 31
0.0
  0
LINE
  5
D5
330
1F
100
AcDbEntity
  8
0
  6
Continuous
 62
     7
370
    25
100
AcDbLine
 10
-7.4519867575
 20
-411.9030101261
 30
0.0
 11
21.0480132425
 21
-411.9030101261
 31
0.0
  0
LINE
  5
D6
330
1F
100
AcDbEntity
  8
0
  6
Continuous
 62
     7
370
    25
100
AcDbLine
 10
21.0480132425
 20
-424.9030101261
 30
0.0
 11
21.0480132425
 21
-411.9030101261
 31
0.0
  0
LINE
  5
D7
330
1F
100
AcDbEntity
  8
0
  6
Continuous
 62
     7
370
    25
100
AcDbLine
 10
27.0480132425
 20
-411.9030101261
 30
0.0
 11
27.0480132425
 21
-424.9030101261
 31
0.0
  0
LINE
  5
D8
330
1F
100
AcDbEntity
  8
0
  6
Continuous
 62
     7
370
    25
100
AcDbLine
 10
27.0480132425
 20
-411.9030101261
 30
0.0
 11
55.5480132425
 21
-411.9030101261
 31
0.0
  0
LINE
  5
D9
330
1F
100
AcDbEntity
  8
0
  6
Continuous
 62
     7
370
    25
100
AcDbLine
 10
55.5480132425
 20
-411.9030101261
 30
0.0
 11
55.5480132425
 21
-421.9030101261
 31
0.0
  0
LINE
  5
DA
330
1F
100
AcDbEntity
  8
0
  6
Continuous
 62
     7
370
    25
100
AcDbLine
 10
80.5480132425
 20
-421.9030101261
 30
0.0
 11
55.5480132425
 21
-421.9030101261
 31
0.0
  0
LINE
  5
DB
330
1F
100
AcDbEntity
  8
0
  6
Continuous
 62
     7
370
    25
100
AcDbLine
 10
80.5480132425
 20
-411.9030101261
 30
0.0
 11
80.5480132425
 21
-421.9030101261
 31
0.0
  0
LINE
  5
DC
330
1F
100
AcDbEntity
  8
0
  6
Continuous
 62
     7
370
    25
100
AcDbLine
 10
80.5480132425
 20
-411.9030101261
 30
0.0
 11
129.7980132425
 21
-411.9030101261
 31
0.0
  0
LINE
  5
DD
330
1F
100
AcDbEntity
  8
0
  6
Continuous
 62
     7
370
    25
100
AcDbLine
 10
80.5480132425
 20
-712.9030101261
 30
0.0
 11
80.5480132425
 21
-702.9030101261
 31
0.0
  0
LINE
  5
DE
330
1F
100
AcDbEntity
  8
0
  6
Continuous
 62
     7
370
    25
100
AcDbLine
 10
80.5480132425
 20
-702.9030101261
 30
0.0
 11
55.5480132425
 21
-702.9030101261
 31
0.0
  0
LINE
  5
DF
330
1F
100
AcDbEntity
  8
0
  6
Continuous
 62
     7
370
    25
100
AcDbLine
 10
55.5480132425
 20
-712.9030101261
 30
0.0
 11
55.5480132425
 21
-702.9030101261
 31
0.0
  0
LINE
  5
E0
330
1F
100
AcDbEntity
  8
0
  6
Continuous
 62
     7
370
    25
100
AcDbLine
 10
55.5480132425
 20
-712.9030101261
 30
0.0
 11
27.0480132425
 21
-712.9030101261
 31
0.0
  0
LINE
  5
E1
330
1F
100
AcDbEntity
  8
0
  6
Continuous
 62
     7
370
    25
100
AcDbLine
 10
21.0480132425
 20
-712.9030101261
 30
0.0
 11
21.0480132425
 21
-699.9030101261
 31
0.0
  0
LINE
  5
E2
330
1F
100
AcDbEntity
  8
0
  6
Continuous
 62
     7
370
    25
100
AcDbLine
 10
-7.4519867575
 20
-712.9030101261
 30
0.0
 11
-7.4519867575
 21
-702.9030101261
 31
0.0
  0
LINE
  5
E3
330
1F
100
AcDbEntity
  8
0
  6
Continuous
 62
     7
370
    25
100
AcDbLine
 10
27.0480132425
 20
-699.9030101261
 30
0.0
 11
27.0480132425
 21
-712.9030101261
 31
0.0
  0
LINE
  5
E4
330
1F
100
AcDbEntity
  8
0
  6
Continuous
 62
     7
370
    25
100
AcDbLine
 10
21.0480132425
 20
-712.9030101261
 30
0.0
 11
-7.4519867575
 21
-712.9030101261
 31
0.0
  0
LINE
  5
E5
330
1F
100
AcDbEntity
  8
0
  6
Continuous
 62
     7
370
    25
100
AcDbLine
 10
-32.4519867575
 20
-712.9030101261
 30
0.0
 11
-32.4519867575
 21
-702.9030101261
 31
0.0
  0
LINE
  5
E6
330
1F
100
AcDbEntity
  8
0
  6
Continuous
 62
     7
370
    25
100
AcDbLine
 10
129.7980132425
 20
-712.9030101261
 30
0.0
 11
80.5480132425
 21
-712.9030101261
 31
0.0
  0
LINE
  5
E7
330
1F
100
AcDbEntity
  8
0
  6
Continuous
 62
     7
370
    25
100
AcDbLine
 10
-68.9519867575
 20
-522.4030101261
 30
0.0
 11
-68.9519867575
 21
-602.4030101261
 31
0.0
  0
LINE
  5
E8
330
1F
100
AcDbEntity
  8
0
  6
Continuous
 62
     7
370
    25
100
AcDbLine
 10
-68.9519867575
 20
-602.4030101261
 30
0.0
 11
-38.4519867575
 21
-632.9030101261
 31
0.0
  0
LINE
  5
E9
330
1F
100
AcDbEntity
  8
0
  6
Continuous
 62
     7
370
    25
100
AcDbLine
 10
-38.4519867575
 20
-632.9030101261
 30
0.0
 11
-38.4519867575
 21
-712.9030101261
 31
0.0
  0
LINE
  5
EA
330
1F
100
AcDbEntity
  8
0
  6
Continuous
 62
     7
370
    25
100
AcDbLine
 10
-81.7019867575
 20
-699.9030101261
 30
0.0
 11
-81.7019867575
 21
-712.9030101261
 31
0.0
  0
LINE
  5
EB
330
1F
100
AcDbEntity
  8
0
  6
Continuous
 62
     7
370
    25
100
AcDbLine
 10
-87.7019867575
 20
-712.9030101261
 30
0.0
 11
-87.7019867575
 21
-699.9030101261
 31
0.0
  0
LINE
  5
EC
330
1F
100
AcDbEntity
  8
0
  6
Continuous
 62
     7
370
    25
100
AcDbLine
 10
-87.7019867575
 20
-712.9030101261
 30
0.0
 11
-190.4519867575
 21
-712.9030101261
 31
0.0
  0
LINE
  5
ED
330
1F
100
AcDbEntity
  8
0
  6
Continuous
 62
     7
370
    25
100
AcDbLine
 10
-190.4519867575
 20
-699.9030101261
 30
0.0
 11
-190.4519867575
 21
-712.9030101261
 31
0.0
  0
LINE
  5
EE
330
1F
100
AcDbEntity
  8
0
  6
Continuous
 62
     7
370
    25
100
AcDbLine
 10
-196.4519867575
 20
-712.9030101261
 30
0.0
 11
-196.4519867575
 21
-699.9030101261
 31
0.0
  0
LINE
  5
EF
330
1F
100
AcDbEntity
  8
0
  6
Continuous
 62
     7
370
    25
100
AcDbLine
 10
-196.4519867575
 20
-712.9030101261
 30
0.0
 11
-246.4519867575
 21
-712.9030101261
 31
0.0
  0
LINE
  5
F0
330
1F
100
AcDbEntity
  8
0
  6
Continuous
 62
     7
370
    25
100
AcDbLine
 10
-246.4519867575
 20
-712.9030101261
 30
0.0
 11
-246.4519867575
 21
-652.9030101261
 31
0.0
  0
LINE
  5
F1
330
1F
100
AcDbEntity
  8
0
  6
Continuous
 62
     7
370
    25
100
AcDbLine
 10
-233.4519867575
 20
-652.9030101261
 30
0.0
 11
-246.4519867575
 21
-652.9030101261
 31
0.0
  0
LINE
  5
F2
330
1F
100
AcDbEntity
  8
0
  6
Continuous
 62
     7
370
    25
100
AcDbLine
 10
-246.4519867575
 20
-646.9030101261
 30
0.0
 11
-233.4519867575
 21
-646.9030101261
 31
0.0
  0
LINE
  5
F3
330
1F
100
AcDbEntity
  8
0
  6
Continuous
 62
     7
370
    25
100
AcDbLine
 10
-246.4519867575
 20
-646.9030101261
 30
0.0
 11
-246.4519867575
 21
-612.4030101262
 31
0.0
  0
LINE
  5
F4
330
1F
100
AcDbEntity
  8
0
  6
Continuous
 62
     7
370
    25
100
AcDbLine
 10
-246.4519867575
 20
-612.4030101262
 30
0.0
 11
-146.4519867575
 21
-612.4030101262
 31
0.0
  0
LINE
  5
F5
330
1F
100
AcDbEntity
  8
0
  6
Continuous
 62
     7
370
    25
100
AcDbLine
 10
-146.4519867575
 20
-612.4030101262
 30
0.0
 11
-146.4519867575
 21
-512.4030101262
 31
0.0
  0
LINE
  5
F6
330
1F
100
AcDbEntity
  8
0
  6
Continuous
 62
     7
370
    25
100
AcDbLine
 10
-146.4519867575
 20
-512.4030101262
 30
0.0
 11
-246.4519867575
 21
-512.4030101262
 31
0.0
  0
LINE
  5
F7
330
1F
100
AcDbEntity
  8
0
  6
Continuous
 62
     7
370
    25
100
AcDbLine
 10
-246.4519867575
 20
-512.4030101262
 30
0.0
 11
-246.4519867575
 21
-477.9030101261
 31
0.0
  0
LINE
  5
F8
330
1F
100
AcDbEntity
  8
0
  6
Continuous
 62
     7
370
    25
100
AcDbLine
 10
-246.4519867575
 20
-477.9030101261
 30
0.0
 11
-233.4519867575
 21
-477.9030101261
 31
0.0
  0
LINE
  5
F9
330
1F
100
AcDbEntity
  8
0
  6
Continuous
 62
     7
370
    25
100
AcDbLine
 10
-233.4519867575
 20
-471.9030101261
 30
0.0
 11
-246.4519867575
 21
-471.9030101261
 31
0.0
  0
LINE
  5
FA
330
1F
100
AcDbEntity
  8
0
  6
Continuous
 62
     7
370
    25
100
AcDbLine
 10
-246.4519867575
 20
-471.9030101261
 30
0.0
 11
-246.4519867575
 21
-411.9030101261
 31
0.0
  0
LINE
  5
FB
330
1F
100
AcDbEntity
  8
0
  6
Continuous
 62
     7
370
    25
100
AcDbLine
 10
-246.4519867575
 20
-411.9030101261
 30
0.0
 11
-196.4519867575
 21
-411.9030101261
 31
0.0
  0
LINE
  5
FC
330
1F
100
AcDbEntity
  8
0
  6
Continuous
 62
     7
370
    25
100
AcDbLine
 10
-196.4519867575
 20
-411.9030101261
 30
0.0
 11
-196.4519867575
 21
-424.9030101261
 31
0.0
  0
LINE
  5
FD
330
1F
100
AcDbEntity
  8
0
  6
Continuous
 62
     7
370
    25
100
AcDbLine
 10
-190.4519867575
 20
-424.9030101261
 30
0.0
 11
-190.4519867575
 21
-411.9030101261
 31
0.0
  0
LINE
  5
FE
330
1F
100
AcDbEntity
  8
0
  6
Continuous
 62
     7
370
    25
100
AcDbLine
 10
-190.4519867575
 20
-411.9030101261
 30
0.0
 11
-87.7019867575
 21
-411.9030101261
 31
0.0
  0
LINE
  5
FF
330
1F
100
AcDbEntity
  8
0
  6
Continuous
 62
     7
370
    25
100
AcDbLine
 10
-87.7019867575
 20
-411.9030101261
 30
0.0
 11
-87.7019867575
 21
-424.9030101261
 31
0.0
  0
LINE
  5
100
330
1F
100
AcDbEntity
  8
0
  6
Continuous
 62
     7
370
    25
100
AcDbLine
 10
-81.7019867575
 20
-424.9030101261
 30
0.0
 11
-81.7019867575
 21
-411.9030101261
 31
0.0
  0
LINE
  5
101
330
1F
100
AcDbEntity
  8
0
  6
Continuous
 62
     7
370
    25
100
AcDbLine
 10
-38.4519867575
 20
-411.9030101261
 30
0.0
 11
-38.4519867575
 21
-491.9030101261
 31
0.0
  0
LINE
  5
102
330
1F
100
AcDbEntity
  8
0
  6
Continuous
 62
     7
370
    25
100
AcDbLine
 10
-38.4519867575
 20
-491.9030101261
 30
0.0
 11
-68.9519867575
 21
-522.4030101261
 31
0.0
  0
LINE
  5
103
330
1F
100
AcDbEntity
  8
0
  6
Continuous
 62
     7
370
    25
100
AcDbLine
 10
117.0480132425
 20
-602.4030101261
 30
0.0
 11
117.0480132425
 21
-522.4030101261
 31
0.0
  0
LINE
  5
104
330
1F
100
AcDbEntity
  8
0
  6
Continuous
 62
     7
370
    25
100
AcDbLine
 10
117.0480132425
 20
-522.4030101261
 30
0.0
 11
86.5480132425
 21
-491.9030101261
 31
0.0
  0
LINE
  5
105
330
1F
100
AcDbEntity
  8
0
  6
Continuous
 62
     7
370
    25
100
AcDbLine
 10
86.5480132425
 20
-491.9030101261
 30
0.0
 11
86.5480132425
 21
-411.9030101261
 31
0.0
  0
LINE
  5
106
330
1F
100
AcDbEntity
  8
0
  6
Continuous
 62
     7
370
    25
100
AcDbLine
 10
129.7980132425
 20
-411.9030101261
 30
0.0
 11
129.7980132425
 21
-424.9030101261
 31
0.0
  0
LINE
  5
107
330
1F
100
AcDbEntity
  8
0
  6
Continuous
 62
     7
370
    25
100
AcDbLine
 10
135.7980132425
 20
-424.9030101261
 30
0.0
 11
135.7980132425
 21
-411.9030101261
 31
0.0
  0
LINE
  5
108
330
1F
100
AcDbEntity
  8
0
  6
Continuous
 62
     7
370
    25
100
AcDbLine
 10
135.7980132425
 20
-411.9030101261
 30
0.0
 11
238.5480132425
 21
-411.9030101261
 31
0.0
  0
LINE
  5
109
330
1F
100
AcDbEntity
  8
0
  6
Continuous
 62
     7
370
    25
100
AcDbLine
 10
238.5480132425
 20
-411.9030101261
 30
0.0
 11
238.5480132425
 21
-424.9030101261
 31
0.0
  0
LINE
  5
10A
330
1F
100
AcDbEntity
  8
0
  6
Continuous
 62
     7
370
    25
100
AcDbLine
 10
244.5480132425
 20
-424.9030101261
 30
0.0
 11
244.5480132425
 21
-411.9030101261
 31
0.0
  0
LINE
  5
10B
330
1F
100
AcDbEntity
  8
0
  6
Continuous
 62
     7
370
    25
100
AcDbLine
 10
244.5480132425
 20
-411.9030101261
 30
0.0
 11
294.5480132425
 21
-411.9030101261
 31
0.0
  0
LINE
  5
10C
330
1F
100
AcDbEntity
  8
0
  6
Continuous
 62
     7
370
    25
100
AcDbLine
 10
294.5480132425
 20
-411.9030101261
 30
0.0
 11
294.5480132425
 21
-471.9030101261
 31
0.0
  0
LINE
  5
10D
330
1F
100
AcDbEntity
  8
0
  6
Continuous
 62
     7
370
    25
100
AcDbLine
 10
281.5480132425
 20
-471.9030101261
 30
0.0
 11
294.5480132425
 21
-471.9030101261
 31
0.0
  0
LINE
  5
10E
330
1F
100
AcDbEntity
  8
0
  6
Continuous
 62
     7
370
    25
100
AcDbLine
 10
294.5480132425
 20
-477.9030101261
 30
0.0
 11
281.5480132425
 21
-477.9030101261
 31
0.0
  0
LINE
  5
10F
330
1F
100
AcDbEntity
  8
0
  6
Continuous
 62
     7
370
    25
100
AcDbLine
 10
294.5480132425
 20
-477.9030101261
 30
0.0
 11
294.5480132425
 21
-532.4030101261
 31
0.0
  0
LINE
  5
110
330
1F
100
AcDbEntity
  8
0
  6
Continuous
 62
     7
370
    25
100
AcDbLine
 10
260.5480132425
 20
-532.4030101261
 30
0.0
 11
294.5480132425
 21
-532.4030101261
 31
0.0
  0
LINE
  5
111
330
1F
100
AcDbEntity
  8
0
  6
Continuous
 62
     7
370
    25
100
AcDbLine
 10
260.5480132425
 20
-532.4030101261
 30
0.0
 11
260.5480132425
 21
-592.4030101261
 31
0.0
  0
LINE
  5
112
330
1F
100
AcDbEntity
  8
0
  6
Continuous
 62
     7
370
    25
100
AcDbLine
 10
260.5480132425
 20
-592.4030101261
 30
0.0
 11
294.5480132425
 21
-592.4030101261
 31
0.0
  0
LINE
  5
113
330
1F
100
AcDbEntity
  8
0
  6
Continuous
 62
     7
370
    25
100
AcDbLine
 10
294.5480132425
 20
-592.4030101261
 30
0.0
 11
294.5480132425
 21
-646.9030101261
 31
0.0
  0
LINE
  5
114
330
1F
100
AcDbEntity
  8
0
  6
Continuous
 62
     7
370
    25
100
AcDbLine
 10
294.5480132425
 20
-646.9030101261
 30
0.0
 11
281.5480132425
 21
-646.9030101261
 31
0.0
  0
LINE
  5
115
330
1F
100
AcDbEntity
  8
0
  6
Continuous
 62
     7
370
    25
100
AcDbLine
 10
281.5480132425
 20
-652.9030101261
 30
0.0
 11
294.5480132425
 21
-652.9030101261
 31
0.0
  0
LINE
  5
116
330
1F
100
AcDbEntity
  8
0
  6
Continuous
 62
     7
370
    25
100
AcDbLine
 10
294.5480132425
 20
-652.9030101261
 30
0.0
 11
294.5480132425
 21
-712.9030101261
 31
0.0
  0
LINE
  5
117
330
1F
100
AcDbEntity
  8
0
  6
Continuous
 62
     7
370
    25
100
AcDbLine
 10
244.5480132425
 20
-699.9030101261
 30
0.0
 11
244.5480132425
 21
-712.9030101261
 31
0.0
  0
LINE
  5
118
330
1F
100
AcDbEntity
  8
0
  6
Continuous
 62
     7
370
    25
100
AcDbLine
 10
238.5480132425
 20
-712.9030101261
 30
0.0
 11
238.5480132425
 21
-699.9030101261
 31
0.0
  0
LINE
  5
119
330
1F
100
AcDbEntity
  8
0
  6
Continuous
 62
     7
370
    25
100
AcDbLine
 10
135.7980132425
 20
-699.9030101261
 30
0.0
 11
135.7980132425
 21
-712.9030101261
 31
0.0
  0
LINE
  5
11A
330
1F
100
AcDbEntity
  8
0
  6
Continuous
 62
     7
370
    25
100
AcDbLine
 10
129.7980132425
 20
-712.9030101261
 30
0.0
 11
129.7980132425
 21
-699.9030101261
 31
0.0
  0
LINE
  5
11B
330
1F
100
AcDbEntity
  8
0
  6
Continuous
 62
     7
370
    25
100
AcDbLine
 10
86.5480132425
 20
-712.9030101261
 30
0.0
 11
86.5480132425
 21
-632.9030101261
 31
0.0
  0
LINE
  5
11C
330
1F
100
AcDbEntity
  8
0
  6
Continuous
 62
     7
370
    25
100
AcDbLine
 10
86.5480132425
 20
-632.9030101261
 30
0.0
 11
117.0480132425
 21
-602.4030101261
 31
0.0
  0
LINE
  5
11D
330
1F
100
AcDbEntity
  8
0
  6
Continuous
 62
     7
370
    25
100
AcDbLine
 10
294.5480132425
 20
-712.9030101261
 30
0.0
 11
244.5480132425
 21
-712.9030101261
 31
0.0
  0
LINE
  5
11E
330
1F
100
AcDbEntity
  8
0
  6
Continuous
 62
     7
370
    25
100
AcDbLine
 10
238.5480132425
 20
-712.9030101261
 30
0.0
 11
135.7980132425
 21
-712.9030101261
 31
0.0
  0
ARC
  5
11F
330
1F
100
AcDbEntity
  8
0
  6
Continuous
 62
     7
370
    25
100
AcDbCircle
 10
24.0480132425
 20
-424.9030101261
 30
0.0
 40
3.000000000000007
100
AcDbArc
 50
180.0
 51
0.0
  0
ARC
  5
120
330
1F
100
AcDbEntity
  8
0
  6
Continuous
 62
     7
370
    25
100
AcDbCircle
 10
24.0480132425
 20
-699.9030101261
 30
0.0
 40
3.0
100
AcDbArc
 50
0.0
 51
180.0
  0
ARC
  5
121
330
1F
100
AcDbEntity
  8
0
  6
Continuous
 62
     7
370
    25
100
AcDbCircle
 10
-84.7019867575
 20
-699.9030101261
 30
0.0
 40
3.0
100
AcDbArc
 50
0.0
 51
180.0
  0
ARC
  5
122
330
1F
100
AcDbEntity
  8
0
  6
Continuous
 62
     7
370
    25
100
AcDbCircle
 10
-193.4519867575
 20
-699.9030101261
 30
0.0
 40
3.000000000000057
100
AcDbArc
 50
0.0
 51
180.0
  0
ARC
  5
123
330
1F
100
AcDbEntity
  8
0
  6
Continuous
 62
     7
370
    25
100
AcDbCircle
 10
-233.4519867575
 20
-649.9030101261
 30
0.0
 40
3.000000000000114
100
AcDbArc
 50
270.0
 51
90.0
  0
ARC
  5
124
330
1F
100
AcDbEntity
  8
0
  6
Continuous
 62
     7
370
    25
100
AcDbCircle
 10
-233.4519867575
 20
-474.9030101261
 30
0.0
 40
3.000000000000057
100
AcDbArc
 50
270.0
 51
90.0
  0
ARC
  5
125
330
1F
100
AcDbEntity
  8
0
  6
Continuous
 62
     7
370
    25
100
AcDbCircle
 10
-193.4519867575
 20
-424.9030101261
 30
0.0
 40
3.000000000000057
100
AcDbArc
 50
180.0
 51
0.0
  0
ARC
  5
126
330
1F
100
AcDbEntity
  8
0
  6
Continuous
 62
     7
370
    25
100
AcDbCircle
 10
-84.7019867575
 20
-424.9030101261
 30
0.0
 40
3.0
100
AcDbArc
 50
180.0
 51
0.0
  0
ARC
  5
127
330
1F
100
AcDbEntity
  8
0
  6
Continuous
 62
     7
370
    25
100
AcDbCircle
 10
132.7980132425
 20
-424.9030101261
 30
0.0
 40
3.000000000000028
100
AcDbArc
 50
180.0
 51
360.0
  0
ARC
  5
128
330
1F
100
AcDbEntity
  8
0
  6
Continuous
 62
     7
370
    25
100
AcDbCircle
 10
241.5480132425
 20
-424.9030101261
 30
0.0
 40
3.000000000000028
100
AcDbArc
 50
180.0
 51
0.0
  0
ARC
  5
129
330
1F
100
AcDbEntity
  8
0
  6
Continuous
 62
     7
370
    25
100
AcDbCircle
 10
281.5480132425
 20
-474.9030101261
 30
0.0
 40
3.0
100
AcDbArc
 50
90.0
 51
270.0
  0
ARC
  5
12A
330
1F
100
AcDbEntity
  8
0
  6
Continuous
 62
     7
370
    25
100
AcDbCircle
 10
281.5480132425
 20
-649.9030101261
 30
0.0
 40
3.0
100
AcDbArc
 50
90.0
 51
270.0
  0
ARC
  5
12B
330
1F
100
AcDbEntity
  8
0
  6
Continuous
 62
     7
370
    25
100
AcDbCircle
 10
241.5480132425
 20
-699.9030101261
 30
0.0
 40
3.000000000000057
100
AcDbArc
 50
0.0
 51
180.0
  0
ARC
  5
12C
330
1F
100
AcDbEntity
  8
0
  6
Continuous
 62
     7
370
    25
100
AcDbCircle
 10
132.7980132425
 20
-699.9030101261
 30
0.0
 40
3.000000000000028
100
AcDbArc
 50
0.0
 51
180.0
  0
ENDSEC
  0
SECTION
  2
OBJECTS
  0
DICTIONARY
  5
C
330
0
100
AcDbDictionary
281
     1
  3
ACAD_GROUP
350
D
  3
ACAD_LAYOUT
350
1A
  3
ACAD_MLINESTYLE
350
17
  3
ACAD_PLOTSETTINGS
350
19
  3
ACAD_PLOTSTYLENAME
350
E
  3
ACAD_SCALELIST
350
47
  3
DWGPROPS
350
12D
  0
DICTIONARY
  5
D
102
{ACAD_REACTORS
330
C
102
}
330
C
100
AcDbDictionary
281
     1
  0
DICTIONARY
  5
1A
102
{ACAD_REACTORS
330
C
102
}
330
C
100
AcDbDictionary
281
     1
  3
Layout1
350
1E
  3
Layout2
350
26
  3
Model
350
22
  0
DICTIONARY
  5
17
102
{ACAD_REACTORS
330
C
102
}
330
C
100
AcDbDictionary
281
     1
  3
Standard
350
18
  0
DICTIONARY
  5
19
102
{ACAD_REACTORS
330
C
102
}
330
C
100
AcDbDictionary
281
     1
  0
ACDBDICTIONARYWDFLT
  5
E
102
{ACAD_REACTORS
330
C
102
}
330
C
100
AcDbDictionary
281
     1
  3
Normal
350
F
100
AcDbDictionaryWithDefault
340
F
  0
DICTIONARY
  5
47
102
{ACAD_REACTORS
330
C
102
}
330
C
100
AcDbDictionary
281
     1
  3
A0
350
48
  3
A1
350
49
  3
A2
350
4A
  3
A3
350
4B
  3
A4
350
4C
  3
A5
350
4D
  3
A6
350
4E
  3
A7
350
4F
  3
A8
350
50
  3
A9
350
51
  3
B0
350
52
  3
B1
350
53
  3
B2
350
54
  3
B3
350
55
  3
B4
350
56
  3
B5
350
57
  3
B6
350
58
  0
XRECORD
  5
12D
102
{ACAD_REACTORS
330
C
102
}
330
C
100
AcDbXrecord
280
     1
  1
DWGPROPS COOKIE
  2

  3

  4

  6

  7

  8
itisa
  9

300
=
301
=
302
=
303
=
304
=
305
=
306
=
307
=
308
=
309
=
 40
0.0
 41
2460691.505543519
 42
2460691.505569202
  1

 90
        0
  0
LAYOUT
  5
1E
102
{ACAD_REACTORS
330
1A
102
}
330
1A
100
AcDbPlotSettings
  1

  2
none_device
  4

  6

 40
0.0
 41
0.0
 42
0.0
 43
0.0
 44
0.0
 45
0.0
 46
0.0
 47
0.0
 48
0.0
 49
0.0
140
0.0
141
0.0
142
1.0
143
1.0
 70
   688
 72
     1
 73
     0
 74
     5
  7

 75
    16
147
1.0
148
0.0
149
0.0
100
AcDbLayout
  1
Layout1
 70
     1
 71
     1
 10
0.0
 20
0.0
 11
420.0
 21
297.0
 12
0.0
 22
0.0
 32
0.0
 14
1.0000000000E+20
 24
1.0000000000E+20
 34
1.0000000000E+20
 15
-1.0000000000E+20
 25
-1.0000000000E+20
 35
-1.0000000000E+20
146
0.0
 13
0.0
 23
0.0
 33
0.0
 16
1.0
 26
0.0
 36
0.0
 17
0.0
 27
1.0
 37
0.0
 76
     0
330
1B
  0
LAYOUT
  5
26
102
{ACAD_REACTORS
330
1A
102
}
330
1A
100
AcDbPlotSettings
  1

  2
none_device
  4

  6

 40
0.0
 41
0.0
 42
0.0
 43
0.0
 44
0.0
 45
0.0
 46
0.0
 47
0.0
 48
0.0
 49
0.0
140
0.0
141
0.0
142
1.0
143
1.0
 70
   688
 72
     1
 73
     0
 74
     5
  7

 75
    16
147
1.0
148
0.0
149
0.0
100
AcDbLayout
  1
Layout2
 70
     1
 71
     2
 10
0.0
 20
0.0
 11
0.0
 21
0.0
 12
0.0
 22
0.0
 32
0.0
 14
0.0
 24
0.0
 34
0.0
 15
0.0
 25
0.0
 35
0.0
146
0.0
 13
0.0
 23
0.0
 33
0.0
 16
1.0
 26
0.0
 36
0.0
 17
0.0
 27
1.0
 37
0.0
 76
     0
330
23
  0
LAYOUT
  5
22
102
{ACAD_REACTORS
330
1A
102
}
330
1A
100
AcDbPlotSettings
  1

  2
none_device
  4
ANSI_A_(11.00_x_8.50_Inches)
  6

 40
6.35
 41
19.05
 42
6.35000508
 43
19.05000254
 44
279.4
 45
215.9
 46
121.0545727817
 47
376.4490690053
 48
0.0
 49
0.0
140
0.0
141
0.0
142
0.02012939
143
1.0
 70
  1696
 72
     0
 73
     0
 74
     0
  7

 75
     0
147
0.0179189148
148
-1300.4909072572
149
0.0
100
AcDbLayout
  1
Model
 70
     1
 71
     0
 10
0.0
 20
0.0
 11
420.0
 21
297.0
 12
0.0
 22
0.0
 32
0.0
 14
-246.4519867575
 24
-712.9030101261
 34
0.0
 15
294.5480132425
 25
-411.9030101261
 35
0.0
146
0.0
 13
0.0
 23
0.0
 33
0.0
 16
1.0
 26
0.0
 36
0.0
 17
0.0
 27
1.0
 37
0.0
 76
     0
330
1F
331
29
  0
MLINESTYLE
  5
18
102
{ACAD_REACTORS
330
17
102
}
330
17
100
AcDbMlineStyle
  2
Standard
 70
     0
  3

 62
   256
 51
90.0
 52
90.0
 71
     2
 49
0.5
 62
   256
  6
BYLAYER
 49
-0.5
 62
   256
  6
BYLAYER
  0
ACDBPLACEHOLDER
  5
F
102
{ACAD_REACTORS
330
E
102
}
330
E
  0
SCALE
  5
48
102
{ACAD_REACTORS
330
47
102
}
330
47
100
AcDbScale
 70
     0
300
1:1
140
1.0
141
1.0
290
     1
  0
SCALE
  5
49
102
{ACAD_REACTORS
330
47
102
}
330
47
100
AcDbScale
 70
     0
300
1:2
140
1.0
141
2.0
290
     0
  0
SCALE
  5
4A
102
{ACAD_REACTORS
330
47
102
}
330
47
100
AcDbScale
 70
     0
300
1:4
140
1.0
141
4.0
290
     0
  0
SCALE
  5
4B
102
{ACAD_REACTORS
330
47
102
}
330
47
100
AcDbScale
 70
     0
300
1:5
140
1.0
141
5.0
290
     0
  0
SCALE
  5
4C
102
{ACAD_REACTORS
330
47
102
}
330
47
100
AcDbScale
 70
     0
300
1:8
140
1.0
141
8.0
290
     0
  0
SCALE
  5
4D
102
{ACAD_REACTORS
330
47
102
}
330
47
100
AcDbScale
 70
     0
300
1:10
140
1.0
141
10.0
290
     0
  0
SCALE
  5
4E
102
{ACAD_REACTORS
330
47
102
}
330
47
100
AcDbScale
 70
     0
300
1:16
140
1.0
141
16.0
290
     0
  0
SCALE
  5
4F
102
{ACAD_REACTORS
330
47
102
}
330
47
100
AcDbScale
 70
     0
300
1:20
140
1.0
141
20.0
290
     0
  0
SCALE
  5
50
102
{ACAD_REACTORS
330
47
102
}
330
47
100
AcDbScale
 70
     0
300
1:30
140
1.0
141
30.0
290
     0
  0
SCALE
  5
51
102
{ACAD_REACTORS
330
47
102
}
330
47
100
AcDbScale
 70
     0
300
1:40
140
1.0
141
40.0
290
     0
  0
SCALE
  5
52
102
{ACAD_REACTORS
330
47
102
}
330
47
100
AcDbScale
 70
     0
300
1:50
140
1.0
141
50.0
290
     0
  0
SCALE
  5
53
102
{ACAD_REACTORS
330
47
102
}
330
47
100
AcDbScale
 70
     0
300
1:100
140
1.0
141
100.0
290
     0
  0
SCALE
  5
54
102
{ACAD_REACTORS
330
47
102
}
330
47
100
AcDbScale
 70
     0
300
2:1
140
2.0
141
1.0
290
     0
  0
SCALE
  5
55
102
{ACAD_REACTORS
330
47
102
}
330
47
100
AcDbScale
 70
     0
300
4:1
140
4.0
141
1.0
290
     0
  0
SCALE
  5
56
102
{ACAD_REACTORS
330
47
102
}
330
47
100
AcDbScale
 70
     0
300
8:1
140
8.0
141
1.0
290
     0
  0
SCALE
  5
57
102
{ACAD_REACTORS
330
47
102
}
330
47
100
AcDbScale
 70
     0
300
10:1
140
10.0
141
1.0
290
     0
  0
SCALE
  5
58
102
{ACAD_REACTORS
330
47
102
}
330
47
100
AcDbScale
 70
     0
300
100:1
140
100.0
141
1.0
290
     0
  0
ENDSEC
  0
EOF
